<?xml version="1.0" encoding="UTF-8"?>
<!DOCTYPE svg PUBLIC "-//W3C//DTD SVG 1.1//EN" "http://www.w3.org/Graphics/SVG/1.1/DTD/svg11.dtd">
<!-- Creator: CorelDRAW -->
<svg xmlns="http://www.w3.org/2000/svg" xml:space="preserve" width="210mm" height="297mm" style="shape-rendering:geometricPrecision; text-rendering:geometricPrecision; image-rendering:optimizeQuality; fill-rule:evenodd; clip-rule:evenodd"
viewBox="0 0 210 297">
 <defs>
  <style type="text/css">
   <![CDATA[
    .fil0 {fill:black}
    .fil1 {fill:black;fill-rule:nonzero}
   ]]>
  </style>
 </defs>
 <g id="Ebene_x0020_1">
  <metadata id="CorelCorpID_0Corel-Layer"/>
  <path class="fil0" d="M103.595 53.6576l21.3407 0c1.3766,0 2.5029,1.1263 2.5029,2.5029l0 21.3407c0,1.3766 -1.1263,2.503 -2.5029,2.503l-21.3407 0c-1.3767,0 -2.503,-1.1264 -2.503,-2.503l0 -21.3407c0,-1.3766 1.1263,-2.5029 2.503,-2.5029zm8.423 6.2347c2.9256,-2.2104 7.0908,-1.6303 9.3011,1.2953 2.2104,2.9257 1.6303,7.0909 -1.2953,9.3012 -2.9257,2.2104 -7.0908,1.6303 -9.3013,-1.2953 -2.2103,-2.9257 -1.6303,-7.0908 1.2955,-9.3012zm0.4317 0.5715c2.6101,-1.972 6.326,-1.4545 8.2979,1.1556 1.972,2.6101 1.4545,6.326 -1.1556,8.298 -2.6101,1.972 -6.326,1.4544 -8.298,-1.1557 -1.9719,-2.6101 -1.4544,-6.326 1.1557,-8.2979zm3.5343 7.296l-0.011 1.4333 -1.5512 -0.0122 0.0111 -1.433 1.5511 0.0119zm-2.3751 -6.6559c0.8198,-0.1894 1.6012,-0.279 2.3417,-0.2732 2.0082,0.0158 3.0062,0.7823 2.9943,2.3033 -0.0132,1.7146 -0.9962,2.5653 -2.9444,2.55l-0.0107 1.3454 -1.5511 -0.0121 0.02 -2.573 1.5512 0.0122c0.994,0.0078 1.4946,-0.4374 1.5017,-1.3338 0.0055,-0.7004 -0.5187,-1.056 -1.5707,-1.0642 -0.7404,-0.0059 -1.5219,0.0858 -2.3416,0.273l0.0096 -1.2276zm-9.5608 3.0696c0.9985,0.1757 1.9918,0.4372 2.9956,0.7455 -0.0105,1.2119 -0.0211,2.4238 -0.0395,3.6318 -1.0012,-0.2322 -1.9971,-0.4293 -2.9983,-0.562 0.0185,-1.2705 0.0343,-2.5429 0.0422,-3.8153zm-0.1212 7.6246c1.0064,0.0898 2.005,0.2245 3.0087,0.3786 -0.0131,1.2119 -0.0315,2.4238 -0.0368,3.6338 -1.0038,-0.0781 -2.0076,-0.1425 -3.0114,-0.1912 0.0105,-1.2725 0.0237,-2.5449 0.0395,-3.8212zm7.1566 -4.7433c0.6411,0.4387 1.2828,0.9044 1.9277,1.3984 -0.0021,0.3558 -0.0047,0.7117 -0.0075,1.0675l-0.0584 -0.0398 -0.2076 -0.1567 -0.2007 -0.168 -0.1936 -0.1793 -0.1859 -0.1905 -0.1781 -0.2017 -0.1694 -0.2129 -0.1586 -0.2213 -0.1454 -0.2263 -0.1325 -0.231 -0.1195 -0.2352 -0.1068 -0.239 -0.0637 -0.1642zm-0.6792 2.7769c-0.1358,-0.0668 -0.2714,-0.1326 -0.4071,-0.1978l0.0039 -0.3372 0.2055 0.2867 0.1977 0.2483zm-0.4651 3.073c0.9959,0.32 1.997,0.6693 2.9982,1.0557 -0.0105,0.9192 -0.021,1.8403 -0.0237,2.7634 -1.0065,-0.1971 -2.0076,-0.3786 -3.0061,-0.5426 0.0052,-1.0908 0.0158,-2.1818 0.0316,-3.2765zm7.8311 -0.6394c0.4021,0.3169 0.8049,0.6293 1.2084,0.9282 -0.0026,0.5269 -0.0053,1.0558 -0.0105,1.5788 -1.0038,-0.5582 -1.9971,-1.1748 -2.993,-1.7525l0.0058 -0.5438 0.0806 0.0015 0.3504 -0.01 0.3502 -0.027 0.3493 -0.044 0.3477 -0.061 0.3111 -0.0702zm-1.832 2.907c1.0012,0.3884 1.9997,0.804 3.0009,1.1788 -0.0053,0.5288 -0.0106,1.0557 -0.0106,1.5826 -1.0037,-0.1893 -2.0076,-0.4 -3.0087,-0.5971 0.0053,-0.7182 0.0105,-1.4422 0.0184,-2.1643zm6.0307 -0.322c0.9959,0.363 1.9945,0.6772 2.993,0.9095 0,0.3141 -0.0026,0.6283 -0.0026,0.9425 -1.0038,-0.1737 -1.9997,-0.4098 -2.9982,-0.685 0.0026,-0.3883 0.0078,-0.7786 0.0078,-1.167zm-0.0237 2.338c0.9986,0.1834 1.9997,0.3415 3.0062,0.4586 -0.0026,0.3142 -0.0053,0.6303 -0.0053,0.9445 -1.0064,-0.0605 -2.0076,-0.1405 -3.0114,-0.2322 0,-0.3903 0.0052,-0.7806 0.0105,-1.1709zm-20.3264 -17.1297c0.8133,0.0627 1.6282,0.1361 2.445,0.2821 -0.0026,1.2783 -0.0106,2.5565 -0.0158,3.8328 -0.8116,-0.1154 -1.6212,-0.1727 -2.4292,-0.2231l0 -3.8918zm0 7.7641c0.7942,0.0384 1.5888,0.0814 2.387,0.1661 -0.0263,1.2704 -0.0474,2.5409 -0.079,3.8093 -0.7699,-0.0556 -1.5395,-0.0842 -2.308,-0.1086l0 -3.8668zm0 7.742c0.7535,0.0121 1.5101,0.0277 2.2685,0.0546 -0.0053,1.2782 -0.0079,2.5506 -0.0079,3.8229 -0.2208,-0.0008 -0.4408,-0.0014 -0.6608,-0.0017l-0.0203 -0.0036 -0.0951 -0.0221 -0.0932 -0.0266 -0.0915 -0.0311 -0.0895 -0.0355 -0.0874 -0.0397 -0.0852 -0.0438 -0.0827 -0.0476 -0.0802 -0.0517 -0.0778 -0.0554 -0.0749 -0.0589 -0.072 -0.0623 -0.069 -0.0659 -0.0658 -0.0691 -0.0624 -0.0719 -0.0589 -0.0749 -0.0554 -0.0777 -0.0516 -0.0803 -0.0477 -0.0827 -0.0438 -0.0852 -0.0397 -0.0875 -0.0355 -0.0895 -0.0311 -0.0914 -0.0266 -0.0932 -0.0221 -0.0952 -0.0174 -0.0968 -0.0126 -0.0982 -0.0076 -0.0999 -0.0028 -0.1082 0 -1.9299zm5.438 -14.2911c0.7261,0.3766 1.4535,0.7826 2.1814,1.252l-0.1107 0.3001 -0.1056 0.3342 -0.0891 0.3387 -0.0729 0.3419 -0.0563 0.3449 -0.04 0.3471 -0.0233 0.3489 -0.0068 0.3499 0.0101 0.3504 0.0078 0.1014c-0.5699,-0.278 -1.1392,-0.5283 -1.7078,-0.7641 0.0026,-1.2138 0.0105,-2.4277 0.0132,-3.6454zm-0.0527 7.2772c0.9959,0.3103 1.9918,0.6538 2.993,1.0831 -0.0211,1.089 -0.0396,2.1799 -0.058,3.2708 -1.0038,-0.2889 -2.005,-0.5191 -3.0036,-0.728 0.0264,-1.2079 0.0449,-2.4179 0.0686,-3.6259zm-0.1054 7.2597c1.0011,0.1073 2.0023,0.2244 3.0088,0.3707 -0.0079,1.0968 -0.0106,2.1877 -0.0106,3.2806 -1.0038,-0.0039 -2.0049,-0.0098 -3.0088,-0.0137 0,-1.2119 0.0027,-2.4218 0.0106,-3.6376zm6.1229 -10.1265c0.258,0.2603 0.5161,0.5212 0.7747,0.7826l-0.0049 0.6298 -0.0001 0 -0.0153 1.9737c-0.2552,-0.206 -0.5102,-0.4117 -0.7649,-0.6169 0.0026,-0.925 0.0079,-1.8461 0.0105,-2.7692zm2.9756 4.1558l-0.0023 0.6271 -0.1975 -0.0037 -0.2529 -0.017 -0.0759 -0.0087 -0.7521 -0.6078 1.2807 0.0101zm-1.0491 2.5568c0.342,0.2077 0.6844,0.4156 1.027,0.6232 -0.0158,0.7182 -0.0237,1.4363 -0.0369,2.1525 -1.0011,-0.4059 -2.0024,-0.8098 -3.0009,-1.2119 0.0144,-0.716 0.0254,-1.4322 0.0384,-2.1491l0.0268 0.0129 0.3239 0.1377 0.3294 0.1217 0.3343 0.1055 0.3386 0.0891 0.3418 0.0729 0.2776 0.0455zm-2.0345 4.3272c1.0012,0.2029 2.0024,0.4079 3.0062,0.6128 -0.0026,0.7142 -0.0026,1.4284 -0.0026,2.1407l-3.0089 0c0,-0.9179 0.0027,-1.8357 0.0053,-2.7535zm6.2576 -4.9616c0.9302,0.7425 1.8631,1.3579 2.8004,1.9133 -0.0027,0.3903 -0.0027,0.7826 -0.0027,1.1748 -1.0011,-0.4761 -1.997,-1.0031 -2.9903,-1.6568 0.0023,-0.446 0.0025,-0.895 0.0026,-1.3454l0.172 -0.0767 0.018 -0.0092zm-0.2031 3.0101c0.9959,0.4917 1.9918,0.8899 2.993,1.245 -0.0053,0.3903 -0.0106,0.7807 -0.0159,1.171 -1.0038,-0.2401 -2.005,-0.5113 -3.0061,-0.8372 0.0105,-0.525 0.0184,-1.0519 0.029,-1.5788zm-0.0396 3.1614c1.0039,0.1679 2.005,0.3025 3.0062,0.4255l0 1.1181 -3.0088 0c0,-0.5128 0.0001,-1.029 0.0026,-1.5436zm6.036 -3.1204c0.6495,0.1598 1.2971,0.2784 1.9471,0.3826l0 0.871c-0.6508,-0.0837 -1.3002,-0.1796 -1.9497,-0.3071 0,-0.3162 0,-0.6323 0.0026,-0.9465zm-0.0052 1.889c0.6499,0.097 1.2998,0.1681 1.9523,0.2304l0 0.5618 -0.0028 0.1082 -0.0077 0.0999 -0.0124 0.0969c-0.6474,-0.0426 -1.294,-0.0899 -1.9373,-0.1526 0.0026,-0.3123 0.0053,-0.6284 0.0079,-0.9446zm-0.0132 1.8891c0.5288,0.027 1.0589,0.0468 1.5884,0.0654l-0.0169 0.0236 -0.0589 0.0749 -0.0624 0.0721 -0.0657 0.0689 -0.0691 0.0658 -0.072 0.0624 -0.0749 0.059 -0.0776 0.0553 -0.0803 0.0516 -0.0828 0.0477 -0.0852 0.0438 -0.0873 0.0397 -0.0896 0.0354 -0.0914 0.0312 -0.0933 0.0266 -0.0951 0.0221 -0.0968 0.0174 -0.0983 0.0126 -0.0998 0.0076 -0.091 0.0023 0 -0.8854z"/>
  <path class="fil1" d="M43.4012 105.226c-0.956,-0.6334 -2.157,-0.9501 -3.603,-0.9501 -2.8801,0 -4.3261,1.6193 -4.3261,4.8519 0,3.8361 1.4998,5.7601 4.4993,5.7601 1.213,0 2.3603,-0.1733 3.4298,-0.5079l0 -9.154zm4.6427 12.4762c-2.8143,0.7349 -5.5629,1.1054 -8.2457,1.1054 -5.9394,0 -8.9091,-3.1848 -8.9091,-9.5603 0,-5.8796 2.904,-8.8194 8.7179,-8.8194 1.2368,0 2.5036,0.2928 3.7942,0.8724l0 -7.5228 4.6427 0 0 23.9247zm8.1383 -8.1562c0,3.8421 1.4878,5.7601 4.4635,5.7601 2.9756,0 4.4634,-1.918 4.4634,-5.7601 0,-3.7464 -1.4878,-5.6166 -4.4634,-5.6166 -2.9757,0 -4.4635,1.8702 -4.4635,5.6166zm-4.6368 0.0717c0,-6.1604 3.0354,-9.2436 9.1003,-9.2436 6.0708,0 9.1062,3.0832 9.1062,9.2436 0,6.1485 -3.0354,9.2258 -9.1062,9.2258 -6.0469,0 -9.0764,-3.0773 -9.1003,-9.2258zm21.7019 9.1899l0 -18.3797 3.5911 0 0.5736 2.6948c1.7627,-1.7985 3.7704,-2.6948 6.023,-2.6948 4.356,0 6.5309,2.2646 6.5309,6.7938l0 11.5859 -4.6367 0 0 -11.5859c0,-2.0316 -1.0098,-3.0474 -3.0294,-3.0474 -1.5058,0 -2.9757,0.5976 -4.4097,1.8045l0 12.8288 -4.6428 0zm28.8483 -18.3797c5.5809,0 8.3653,2.8442 8.3653,8.5445 0,0.7529 -0.0478,1.5117 -0.1553,2.2706l-12.2014 0c0,2.5932 1.9001,3.8899 5.7063,3.8899 1.8583,0 3.7106,-0.1793 5.5689,-0.5259l0 3.6748c-1.6253,0.3525 -3.5971,0.5258 -5.9154,0.5258 -6.6684,0 -9.9966,-3.131 -9.9966,-9.399 0,-5.9871 2.8741,-8.9807 8.6282,-8.9807zm-3.9914 7.5945l7.8454 0 0 -0.1375c0,-2.5454 -1.2846,-3.8181 -3.854,-3.8181 -2.4498,0 -3.7823,1.3205 -3.9914,3.9556zm16.2764 10.7852l0 -25.0301 11.2035 0c5.1148,0 7.6722,2.3482 7.6722,7.0507 0,5.1028 -3.4955,8.186 -10.4865,9.2616l-0.6692 -4.1289c4.2065,-0.7588 6.3038,-2.4259 6.3038,-4.9893 0,-2.0793 -1.0397,-3.119 -3.1131,-3.119l-6.268 0 0 20.955 -4.6427 0zm21.935 0l0 -25.0301 4.816 0 8.4908 18.9892 8.3175 -18.9892 4.6367 0 0 25.0301 -4.2902 0 0 -17.4356 -6.7878 17.4356 -3.9616 0 -6.9312 -17.4356 0 17.4356 -4.2902 0z"/>
  <path class="fil0" d="M33.7176 74.6092c0.9986,0.0573 1.9919,0.1426 2.9956,0.2432 -0.0105,0.3953 -0.021,0.7905 -0.0395,1.1845 -1.0012,-0.0757 -1.9971,-0.14 -2.9982,-0.1833 0.0184,-0.4144 0.0343,-0.8294 0.0421,-1.2444zm-0.4531 -20.8665l21.3408 0c1.3766,0 2.5029,1.1263 2.5029,2.5029l0 21.3407c0,0.2213 -0.0294,0.4357 -0.0839,0.6404 -0.0126,0.0469 -0.0263,0.0932 -0.0414,0.139l-0.0003 0.0007 -0.0014 0.0042c-0.0108,0.0326 -0.0224,0.065 -0.0345,0.097l-0.0004 0.0013 -0.0016 0.0042 -0.0017 0.0042 -0.0016 0.0042 -0.0016 0.0042 -0.0017 0.0042 -0.0016 0.0042 -0.0016 0.0042 -0.0012 0.0033 -0.0004 0.001c-0.0375,0.0945 -0.0807,0.1864 -0.1289,0.2749l-0.009 0.016 -0.002 0.0036 -0.008 0.0142 -0.0022 0.0039 -0.0179 0.0309 -0.0027 0.0047c-0.0102,0.0171 -0.0205,0.0341 -0.031,0.051l-0.0027 0.0043 -0.0028 0.0044 -0.0047 0.0076 -0.0009 0.0014c-0.0291,0.0459 -0.0598,0.0909 -0.0917,0.1348 -0.0724,0.0993 -0.1518,0.1933 -0.2377,0.2809 -0.0412,0.0423 -0.0842,0.083 -0.1284,0.1221l-0.0031 0.0028 -0.0031 0.0027 -0.0031 0.0028 -0.0031 0.0027 -0.003 0.0028 -0.0002 0.0001 -0.0236 0.0203 -0.0025 0.0021 -0.024 0.0204 0.0001 0c-0.4333,0.3589 -0.9886,0.5753 -1.5918,0.5753l-21.3408 0 0 0c-0.0215,0 -0.0429,-0.0004 -0.0643,-0.0009 -0.0213,-0.0005 -0.0427,-0.0014 -0.0639,-0.0024 -0.0212,-0.0011 -0.0424,-0.0025 -0.0635,-0.0041 -0.0211,-0.0016 -0.0422,-0.0035 -0.0632,-0.0056 -0.0209,-0.0022 -0.0418,-0.0047 -0.0626,-0.0073 -0.0208,-0.0026 -0.0416,-0.0056 -0.0623,-0.0087 -0.0206,-0.0032 -0.0411,-0.0067 -0.0616,-0.0104 -0.0205,-0.0036 -0.041,-0.0076 -0.0613,-0.0117 -0.0203,-0.0042 -0.0405,-0.0087 -0.0606,-0.0134 -0.0202,-0.0047 -0.0402,-0.0096 -0.0601,-0.0147 -0.02,-0.0052 -0.0399,-0.0107 -0.0596,-0.0163 -0.0198,-0.0057 -0.0395,-0.0114 -0.059,-0.0176 -0.0196,-0.0061 -0.039,-0.0125 -0.0584,-0.0191 -0.0193,-0.0066 -0.0387,-0.0134 -0.0578,-0.0204 -0.0191,-0.0071 -0.0381,-0.0144 -0.057,-0.0218 -0.019,-0.0075 -0.0379,-0.0152 -0.0566,-0.0232 -0.0187,-0.0079 -0.0372,-0.0161 -0.0557,-0.0245 -0.0184,-0.0084 -0.0368,-0.017 -0.055,-0.0258 -0.0182,-0.0089 -0.0363,-0.0179 -0.0543,-0.0272 -0.018,-0.0093 -0.0359,-0.0186 -0.0536,-0.0283 -0.0178,-0.0096 -0.0353,-0.0195 -0.0528,-0.0296 -0.0174,-0.0101 -0.0348,-0.0204 -0.052,-0.0308 -0.0172,-0.0105 -0.0342,-0.0212 -0.0512,-0.0321 -0.0169,-0.0109 -0.0338,-0.0219 -0.0504,-0.0332 -0.0167,-0.0112 -0.0332,-0.0228 -0.0495,-0.0344 -0.0164,-0.0117 -0.0326,-0.0235 -0.0487,-0.0356 -0.016,-0.012 -0.032,-0.0243 -0.0477,-0.0367 -0.0158,-0.0124 -0.0315,-0.0249 -0.0469,-0.0377 -0.0154,-0.0127 -0.0305,-0.0258 -0.0456,-0.0387l-0.001 -0.0009 -0.0006 -0.0007 -0.0043 -0.0037 -0.0001 0 -0.0055 -0.0049 -0.0001 0 -0.0006 -0.0007 -0.005 -0.0043 0 0 -0.0007 -0.0007 -0.0046 -0.004 -0.001 -0.0009 -0.0007 -0.0006 -0.0041 -0.0036 -0.0001 -0.0002 -0.0007 -0.0006 -0.0002 -0.0002 -0.0043 -0.0038 -0.0018 -0.0017 -0.0006 -0.0006 -0.0002 -0.0001 -0.0013 -0.0012 -0.0007 -0.0006 -0.0007 -0.0007 -0.016 -0.0145 -0.0006 -0.0007 -0.0001 0 -0.0048 -0.0043 -0.0006 -0.0007 -0.0005 -0.0004 -0.001 -0.0009 -0.0006 -0.0006 -0.0007 -0.0007 -0.0002 -0.0001 -0.0279 -0.0263 -0.0007 -0.0007 -0.0006 -0.0006 -0.0008 -0.0008c-0.0312,-0.0299 -0.0616,-0.0606 -0.0913,-0.0921l0 0c-0.0146,-0.0154 -0.029,-0.0313 -0.0432,-0.0471l-0.0006 -0.0006 -0.0018 -0.002 0 -0.0001 -0.0007 -0.0007 -0.0006 -0.0007 -0.0059 -0.0066 -0.0009 -0.0012 -0.0007 -0.0006 -0.0009 -0.001 -0.0041 -0.0046 -0.0009 -0.0011 -0.0034 -0.004 -0.0007 -0.0006 -0.0009 -0.0013 -0.0002 -0.0002 -0.0006 -0.0006 -0.0007 -0.0008 -0.0061 -0.0071 -0.0023 -0.0026 -0.0002 -0.0003 -0.0006 -0.0006 -0.0006 -0.0008 -0.0002 -0.0002 -0.0008 -0.0009 -0.0008 -0.001 -0.0019 -0.0021 0 -0.0001 -0.0022 -0.0025 -0.0007 -0.0009 -0.0001 -0.0001 -0.0007 -0.0007 -0.001 -0.0012 -0.0001 -0.0003 -0.0007 -0.0006 -0.0006 -0.0008 -0.0001 -0.0001 -0.0006 -0.0007 -0.0005 -0.0007 -0.0241 -0.0287 0 -0.0001 -0.0023 -0.0028 -0.0002 -0.0002 -0.0009 -0.0011 -0.0003 -0.0004 -0.0008 -0.0009 -0.0006 -0.0008 -0.0003 -0.0003 -0.0006 -0.0008 -0.0022 -0.0027 -0.0003 -0.0004 -0.0007 -0.0009 -0.0006 -0.0008 -0.0002 -0.0002 -0.0007 -0.0008 -0.0011 -0.0014 -0.0059 -0.0074 -0.0002 -0.0001 -0.0009 -0.0012 -0.0003 -0.0004 -0.0045 -0.0056 -0.0001 -0.0001 -0.0045 -0.0057 -0.0003 -0.0003 -0.0114 -0.0145 -0.0007 -0.0008 -0.0002 -0.0003 -0.0008 -0.001 -0.0002 -0.0004 -0.0009 -0.0011 -0.0002 -0.0001 -0.0006 -0.0009 -0.0011 -0.0014 -0.0007 -0.0008 -0.0001 -0.0003 -0.0007 -0.0009 -0.0005 -0.0006 -0.0007 -0.0009 -0.0002 -0.0002 -0.0006 -0.0008 -0.0001 -0.0002 -0.0009 -0.0011 -0.0003 -0.0004 -0.0007 -0.0009 -0.0006 -0.0007 -0.0005 -0.0007 -0.0006 -0.0008 -0.0031 -0.004 -0.0003 -0.0003 -0.0009 -0.0011 -0.0001 -0.0002 -0.0006 -0.0007 -0.0002 -0.0004 -0.0006 -0.0008 -0.0007 -0.0008 -0.0001 -0.0003 -0.0007 -0.0008 -0.001 -0.0013 -0.0002 -0.0004 -0.0008 -0.0009 -0.0002 -0.0003 -0.0006 -0.0008 -0.002 -0.0027 -0.0004 -0.0006 -0.0009 -0.0011 -0.0001 -0.0002 -0.0033 -0.0043 -0.0002 -0.0003 -0.0066 -0.0089 0 0 -0.0022 -0.0029 -0.0002 -0.0003 -0.0041 -0.0054 -0.0005 -0.0007 -0.0008 -0.0011 -0.0001 -0.0001 -0.0003 -0.0005 -0.0003 -0.0003 -0.0002 -0.0003 -0.0006 -0.0008 -0.0018 -0.0025 -0.0003 -0.0004 -0.0042 -0.0058 -0.0001 -0.0002 -0.0041 -0.0057 -0.0004 -0.0005 -0.0009 -0.0012 -0.0001 -0.0001 -0.0028 -0.0039 -0.0007 -0.0011 -0.0008 -0.001 0 -0.0001 -0.0007 -0.0008 -0.0005 -0.0008 -0.0001 -0.0002 -0.001 -0.0013 -0.0006 -0.0008 -0.0005 -0.0008 -0.0001 -0.0001 -0.0038 -0.0051 -0.0004 -0.0008 -0.0006 -0.0008 -0.0001 0 -0.0005 -0.0008 -0.0005 -0.0008 -0.001 -0.0013 -0.0001 -0.0001 -0.0005 -0.0008 -0.0035 -0.005 -0.0009 -0.0012 -0.0005 -0.0008 -0.0009 -0.0013 -0.0002 -0.0001 -0.0005 -0.0008 -0.0006 -0.0009 -0.0005 -0.0008 -0.0001 -0.0001 -0.0015 -0.0021 -0.0008 -0.0011 -0.0041 -0.0059 -0.0011 -0.0016 -0.0015 -0.0021 -0.0001 -0.0002 -0.0005 -0.0008 -0.0016 -0.0022 -0.0001 -0.0001 -0.001 -0.0014 -0.0001 -0.0003 -0.0007 -0.0009 -0.0009 -0.0012 -0.0005 -0.0008 -0.0002 -0.0003 -0.0006 -0.0009 -0.0008 -0.0011 -0.0005 -0.0008 -0.0008 -0.0012 -0.0008 -0.0011 -0.0005 -0.0008 -0.0007 -0.001 -0.0056 -0.0084 -0.0005 -0.0008 -0.0002 -0.0002 -0.0012 -0.0018 -0.0002 -0.0003 -0.0005 -0.0008 -0.0002 -0.0002 -0.0009 -0.0014 -0.0005 -0.0008 -0.0008 -0.0011 -0.0008 -0.0012 -0.0005 -0.0008 -0.0005 -0.0008 -0.0007 -0.0008 -0.0004 -0.0008 -0.0014 -0.002 -0.0007 -0.0011 -0.0005 -0.0008 -0.001 -0.0013 -0.0002 -0.0002 -0.0004 -0.0008 -0.0014 -0.0021 -0.0006 -0.0008 -0.0001 -0.0002 -0.0005 -0.0008 -0.0005 -0.0008 -0.0047 -0.0072 -0.0005 -0.0009 -0.0013 -0.0019 -0.0008 -0.0011 -0.0005 -0.0008 -0.0005 -0.0008 -0.0004 -0.0008 -0.0019 -0.0029 -0.0007 -0.001 -0.0005 -0.0008 -0.0005 -0.0008 -0.0002 -0.0003 -0.0009 -0.0014 -0.0005 -0.0008 -0.0005 -0.0008 -0.0001 0 -0.003 -0.0047 -0.0005 -0.0008 -0.0004 -0.0008 -0.0002 -0.0001 -0.0015 -0.0023 -0.0004 -0.0008 -0.0005 -0.0008 -0.0019 -0.0028 -0.0017 -0.0027 -0.0005 -0.0008 -0.0005 -0.0008 -0.0004 -0.0008 -0.0005 -0.0008 -0.0001 -0.0002 -0.002 -0.0031 -0.0005 -0.0008 -0.0005 -0.0008 -0.0005 -0.0008 -0.0005 -0.0008 0 -0.0001 -0.0055 -0.0086 -0.0004 -0.0008 -0.0005 -0.0009 -0.0005 -0.0008 -0.0005 -0.0008 -0.0005 -0.0008 -0.0001 -0.0001 -0.003 -0.0047 -0.0004 -0.0008 -0.0005 -0.0008 -0.0011 -0.0016 -0.0004 -0.0008 -0.0005 -0.0008 -0.0005 -0.0008 -0.0005 -0.0008 -0.0002 -0.0004 -0.0003 -0.0004 -0.0005 -0.0009 0 0 -0.0242 -0.0405 -0.0004 -0.0008 -0.0108 -0.0187 -0.0001 -0.0001 -0.0005 -0.0008 -0.0004 -0.0009 -0.0005 -0.0008 -0.0005 -0.0008 -0.0016 -0.0028 -0.0021 -0.0038 -0.0005 -0.0008 -0.0005 -0.0008 -0.0005 -0.0008 -0.0018 -0.0033 -0.0005 -0.0008 -0.0005 -0.0008 -0.0012 -0.0022 -0.0006 -0.0012 -0.0004 -0.0008 -0.0005 -0.0008 -0.0004 -0.0008 -0.0005 -0.0009 -0.0005 -0.0008 -0.0006 -0.0011 -0.0012 -0.0023 -0.0004 -0.0008 -0.0005 -0.0008 -0.0017 -0.003 -0.0003 -0.0006 -0.0003 -0.0006 -0.0005 -0.0008 -0.0005 -0.0008 -0.0004 -0.0008 -0.0018 -0.0033 -0.0004 -0.0008 -0.0051 -0.0092 -0.0004 -0.0008 -0.0012 -0.0023 -0.0006 -0.0011 -0.0005 -0.0008 -0.0008 -0.0016 0 0 -0.0005 -0.0008 -0.0012 -0.0025 -0.0001 -0.0001 -0.0005 -0.0008 -0.003 -0.0059 0 0 -0.0005 -0.0008 -0.0046 -0.0087 -0.0007 -0.0013 -0.0004 -0.0008 -0.0007 -0.0013 -0.0006 -0.0013 -0.0005 -0.0008 -0.0007 -0.0013 -0.0006 -0.0012 -0.0005 -0.0008 -0.0007 -0.0014 -0.0006 -0.0012 -0.0004 -0.0008 -0.0005 -0.0008 -0.0001 -0.0002 -0.0012 -0.0024 0 0 -0.0005 -0.0008 -0.0001 -0.0003 -0.0007 -0.0015 -0.0005 -0.0008 -0.0041 -0.0081 -0.0001 -0.0003 -0.0005 -0.0008 -0.0028 -0.0057 -0.0001 -0.0003 -0.0005 -0.0008 -0.0001 -0.0002 -0.0027 -0.0053 -0.0007 -0.0014 -0.0011 -0.0023 -0.0001 -0.0002 -0.0005 -0.0008 -0.0045 -0.009 -0.0001 -0.0004 -0.0002 -0.0002 -0.0003 -0.0006 -0.0004 -0.0008 -0.0007 -0.0014 -0.0001 -0.0004 -0.0005 -0.0008 -0.0003 -0.0008 -0.0005 -0.0008 -0.0001 -0.0003 -0.0008 -0.0016 -0.0027 -0.0055 -0.0001 -0.0003 -0.0005 -0.0009 -0.0027 -0.0056 -0.0004 -0.0008 -0.0031 -0.0063 -0.0001 -0.0004 -0.0014 -0.0028 -0.0004 -0.0009 -0.0002 -0.0003 -0.0004 -0.0008 -0.0001 -0.0003 -0.0005 -0.0009 -0.0006 -0.0013 -0.0001 -0.0001 -0.0003 -0.0008 -0.0001 0 -0.0006 -0.0014 -0.0005 -0.0009 -0.0002 -0.0005 -0.0022 -0.0047 -0.0002 -0.0005 -0.0007 -0.0014 -0.0001 -0.0001 -0.0003 -0.0008 -0.0001 -0.0003 -0.0005 -0.0011 -0.0004 -0.0008 -0.0003 -0.0004 -0.0003 -0.0008 -0.0009 -0.0018 -0.0003 -0.0008 -0.0001 -0.0003 -0.0006 -0.0013 -0.0002 -0.0004 -0.0007 -0.0015 -0.0001 -0.0001 -0.0003 -0.0008 -0.0001 -0.0002 -0.0005 -0.0011 -0.0004 -0.0008 -0.0004 -0.0009 -0.0004 -0.0008 -0.0005 -0.0011 -0.0003 -0.0007 -0.0021 -0.0045 -0.0002 -0.0006 -0.0006 -0.0011 -0.0003 -0.0007 -0.0053 -0.0116 0 -0.0001 -0.0061 -0.0137 -0.0001 -0.0003 -0.0008 -0.0016 0 -0.0001 -0.0077 -0.0173 -0.0004 -0.0008 0 -0.0001 -0.0007 -0.0015 -0.0002 -0.0004 -0.0005 -0.0012 -0.0002 -0.0004 -0.0003 -0.0008 -0.0008 -0.0017 -0.0003 -0.0009 -0.0001 -0.0002 -0.0005 -0.0011 -0.0005 -0.0013 -0.0001 -0.0002 -0.0152 -0.0359 -0.0002 -0.0006 -0.0001 -0.0002 -0.0021 -0.0053 -0.0004 -0.0008 -0.0003 -0.001 -0.0001 -0.0002 -0.0007 -0.0016 -0.0003 -0.0008 -0.0003 -0.001 -0.0001 -0.0001 -0.0013 -0.0033 -0.0001 -0.0002 -0.0014 -0.0035 -0.0004 -0.0008 -0.0003 -0.001 -0.0004 -0.0007 0 -0.0001 -0.0006 -0.0014 -0.0005 -0.0013 -0.0003 -0.0008 -0.0003 -0.001 -0.0002 -0.0003 -0.0007 -0.0015 -0.0003 -0.0008 -0.0003 -0.0008 -0.0015 -0.0036 -0.0003 -0.0009 -0.0003 -0.0009 -0.0003 -0.0008 -0.0006 -0.0015 -0.0006 -0.0013 -0.0003 -0.0008 -0.002 -0.0052 -0.0001 -0.0001 -0.0003 -0.001 -0.0003 -0.0008 -0.0003 -0.001 -0.0004 -0.0008 -0.0012 -0.0032 -0.0006 -0.0013 -0.0003 -0.0008 -0.0003 -0.001 -0.0003 -0.0008 -0.0003 -0.001 -0.0004 -0.0008 -0.0003 -0.0009 -0.0002 -0.0003 -0.0009 -0.0024 -0.0003 -0.001 -0.0004 -0.0008 0 -0.0002 -0.0003 -0.0008 -0.0003 -0.0008 -0.0003 -0.001 -0.0004 -0.0008 -0.0003 -0.0009 -0.0004 -0.0008 -0.0003 -0.001 -0.0003 -0.0008 -0.0003 -0.001 -0.0004 -0.0008 -0.0005 -0.0013 -0.0019 -0.005 -0.0003 -0.0008 -0.0003 -0.001 0 0 -0.0137 -0.0377 0 0 -0.0003 -0.001 -0.0007 -0.0018 -0.0003 -0.001 -0.0003 -0.0008 -0.0004 -0.0009 -0.0003 -0.0009 -0.0003 -0.0009 -0.0003 -0.0007 -0.0007 -0.0021 -0.0003 -0.0009 -0.0003 -0.0008 -0.0003 -0.001 -0.0004 -0.0008 -0.0001 -0.0005 -0.001 -0.0032 -0.0004 -0.001 -0.0003 -0.0008 -0.0003 -0.001 -0.0003 -0.0008 -0.0004 -0.001 -0.0024 -0.0071 -0.0003 -0.0009 -0.0003 -0.001 -0.0004 -0.0008 -0.0003 -0.001 -0.0011 -0.0034 0 -0.0002 -0.0003 -0.001 -0.0004 -0.0009 -0.0003 -0.0009 -0.0003 -0.0009 -0.0011 -0.0033 -0.001 -0.003 -0.0003 -0.001 -0.0004 -0.0008 -0.0003 -0.001 -0.0004 -0.0013 -0.0007 -0.0024 -0.0003 -0.0008 -0.0004 -0.001 -0.0011 -0.0035 0 0 -0.0003 -0.001 -0.0003 -0.001 -0.0004 -0.0012 -0.0011 -0.0032 0 0 -0.0018 -0.0055 -0.0003 -0.001 0 -0.0002 -0.0004 -0.001 -0.001 -0.0033 -0.0006 -0.0018 -0.0003 -0.001 -0.0003 -0.0008 -0.0001 -0.0003 -0.0011 -0.0034 -0.0003 -0.001 -0.0011 -0.0035 0 0 -0.0003 -0.001 -0.0003 -0.001 -0.0003 -0.0008 -0.0001 -0.0001c-0.0057,-0.0183 -0.0112,-0.0367 -0.0164,-0.0552 -0.0057,-0.0197 -0.0111,-0.0396 -0.0163,-0.0595 -0.0052,-0.02 -0.0101,-0.0401 -0.0147,-0.0602 -0.0047,-0.0201 -0.0092,-0.0403 -0.0134,-0.0606 -0.0042,-0.0203 -0.008,-0.0408 -0.0118,-0.0612 -0.0036,-0.0205 -0.0071,-0.0411 -0.0103,-0.0617 -0.0032,-0.0207 -0.0061,-0.0415 -0.0087,-0.0623 -0.0027,-0.0208 -0.0051,-0.0417 -0.0073,-0.0626 -0.0022,-0.021 -0.004,-0.0421 -0.0057,-0.0632 -0.0016,-0.0211 -0.0029,-0.0422 -0.004,-0.0635 -0.0011,-0.0212 -0.0019,-0.0426 -0.0024,-0.0639 -0.0006,-0.0214 -0.0009,-0.0427 -0.0009,-0.0643l0 -21.3407c0,-0.0215 0.0003,-0.043 0.0009,-0.0644 0.0005,-0.0214 0.0013,-0.0427 0.0024,-0.0639 0.0011,-0.0213 0.0024,-0.0425 0.004,-0.0636 0.0017,-0.0211 0.0035,-0.0421 0.0057,-0.0631 0.0022,-0.021 0.0046,-0.042 0.0073,-0.0628 0.0026,-0.0208 0.0055,-0.0414 0.0087,-0.0621 0.0032,-0.0207 0.0067,-0.0413 0.0103,-0.0618 0.0037,-0.0205 0.0076,-0.0408 0.0118,-0.0611 0.0042,-0.0203 0.0087,-0.0407 0.0134,-0.0608 0.0046,-0.0202 0.0095,-0.0402 0.0147,-0.0601 0.0052,-0.02 0.0106,-0.0399 0.0163,-0.0597 0.0056,-0.0197 0.0114,-0.0393 0.0175,-0.0589 0.0062,-0.0195 0.0125,-0.039 0.0192,-0.0584 0.0065,-0.0194 0.0134,-0.0386 0.0204,-0.0577 0.0071,-0.0191 0.0143,-0.0382 0.0218,-0.0571 0.0075,-0.0189 0.0152,-0.0377 0.0231,-0.0564 0.0079,-0.0187 0.0162,-0.0373 0.0246,-0.0558 0.0084,-0.0185 0.017,-0.0368 0.0258,-0.0551 0.0088,-0.0182 0.0179,-0.0363 0.0272,-0.0543 0.0092,-0.018 0.0186,-0.0358 0.0282,-0.0535 0.0097,-0.0177 0.0196,-0.0354 0.0297,-0.0529 0.0101,-0.0174 0.0203,-0.0348 0.0308,-0.052 0.0105,-0.0172 0.0212,-0.0342 0.032,-0.0512 0.0109,-0.0169 0.022,-0.0336 0.0332,-0.0503 0.0113,-0.0166 0.0229,-0.0332 0.0345,-0.0495 0.0117,-0.0164 0.0235,-0.0326 0.0355,-0.0487 0.012,-0.016 0.0243,-0.032 0.0368,-0.0478 0.0124,-0.0158 0.0249,-0.0313 0.0377,-0.0468 0.0128,-0.0155 0.0258,-0.0309 0.0389,-0.046 0.0131,-0.0151 0.0264,-0.0301 0.0399,-0.0449 0.0135,-0.0149 0.0272,-0.0295 0.041,-0.044 0.0139,-0.0145 0.0278,-0.0288 0.0419,-0.043 0.0142,-0.0142 0.0287,-0.0282 0.0432,-0.0421 0.0145,-0.0138 0.0291,-0.0275 0.0439,-0.041 0.0149,-0.0134 0.0299,-0.0268 0.0451,-0.04 0.0151,-0.0131 0.0304,-0.026 0.0459,-0.0388 0.0154,-0.0128 0.0311,-0.0254 0.0469,-0.0378 0.0157,-0.0124 0.0317,-0.0246 0.0477,-0.0367 0.0161,-0.012 0.0323,-0.0239 0.0487,-0.0356 0.0164,-0.0116 0.0328,-0.023 0.0495,-0.0343 0.0166,-0.0112 0.0335,-0.0224 0.0504,-0.0333 0.017,-0.0109 0.034,-0.0215 0.0512,-0.032 0.0172,-0.0105 0.0346,-0.0208 0.052,-0.0309 0.0175,-0.0101 0.0351,-0.0199 0.0528,-0.0296 0.0177,-0.0096 0.0356,-0.0192 0.0536,-0.0284 0.018,-0.0093 0.036,-0.0182 0.0543,-0.027 0.0182,-0.0089 0.0366,-0.0174 0.055,-0.0258 0.0185,-0.0084 0.037,-0.0165 0.0557,-0.0244 0.0187,-0.008 0.0376,-0.0158 0.0566,-0.0233 0.0189,-0.0075 0.0379,-0.0147 0.057,-0.0218 0.0191,-0.007 0.0385,-0.0139 0.0578,-0.0205 0.0194,-0.0065 0.0388,-0.0129 0.0584,-0.019 0.0195,-0.0061 0.0393,-0.012 0.059,-0.0176 0.0197,-0.0057 0.0396,-0.0111 0.0596,-0.0163 0.0199,-0.0051 0.04,-0.01 0.0601,-0.0147 0.0201,-0.0047 0.0403,-0.0091 0.0606,-0.0133 0.0203,-0.0041 0.0408,-0.0082 0.0613,-0.0119 0.0204,-0.0037 0.041,-0.007 0.0616,-0.0102 0.0207,-0.0032 0.0415,-0.0062 0.0623,-0.0089 0.0208,-0.0026 0.0417,-0.0049 0.0626,-0.0071 0.021,-0.0021 0.0421,-0.004 0.0632,-0.0056 0.021,-0.0016 0.0423,-0.003 0.0635,-0.0041 0.0212,-0.001 0.0426,-0.0019 0.0639,-0.0024 0.0214,-0.0005 0.0427,-0.0008 0.0643,-0.0008l0 0zm0.332 23.3533c1.0064,0.0293 2.0049,0.0732 3.0087,0.1235 -0.0131,0.3953 -0.0316,0.7905 -0.0368,1.1852 -1.0039,-0.0255 -2.0077,-0.0465 -3.0115,-0.0624 0.0106,-0.415 0.0238,-0.83 0.0396,-1.2463zm6.1018 -1.7745c0.9933,0.2069 1.9839,0.4341 2.9824,0.6836 -0.0052,0.2998 -0.0132,0.6002 -0.0237,0.8981 -0.9985,-0.1871 -1.9944,-0.3571 -2.9903,-0.513 0.0132,-0.3552 0.0264,-0.7116 0.0316,-1.0687zm-0.0896 2.1354c0.996,0.1044 1.9971,0.2183 2.9983,0.3444 -0.0106,0.2998 -0.0211,0.6002 -0.0237,0.9013 -1.0065,-0.0644 -2.0076,-0.1235 -3.0062,-0.177 0.0053,-0.3558 0.0159,-0.7116 0.0316,-1.0687zm6.0545 -0.6664c0.9933,0.2514 1.9865,0.5194 2.9851,0.7606 -0.0027,0.1719 -0.0053,0.3444 -0.0105,0.515 -1.0039,-0.1821 -1.9972,-0.3832 -2.993,-0.5716 0.0079,-0.2343 0.0158,-0.4685 0.0184,-0.704zm-0.0553 1.4061c1.0011,0.1266 1.9997,0.2622 3.0009,0.3844 -0.0053,0.1725 -0.0106,0.3444 -0.0106,0.5162 -1.0038,-0.0618 -2.0076,-0.1305 -3.0087,-0.1948 0.0052,-0.2342 0.0105,-0.4703 0.0184,-0.7058zm6.0307 -0.1051c0.9959,0.1184 1.9945,0.2209 2.993,0.2966 0,0.1025 -0.0027,0.205 -0.0027,0.3075 -1.0038,-0.0567 -1.9997,-0.1337 -2.9982,-0.2235 0.0026,-0.1266 0.0079,-0.2539 0.0079,-0.3806zm-0.0237 0.7625c0.9985,0.0599 1.9997,0.1114 3.0062,0.1496 -0.0027,0.1025 -0.0053,0.2056 -0.0053,0.308 -1.0065,-0.0197 -2.0076,-0.0457 -3.0115,-0.0756 0,-0.1274 0.0053,-0.2547 0.0106,-0.382zm-20.3264 -5.5867c0.8132,0.0204 1.6281,0.0442 2.445,0.0919 -0.0027,0.4169 -0.0106,0.8338 -0.0159,1.25 -0.8115,-0.0376 -1.6211,-0.0562 -2.4291,-0.0726l0 -1.2693zm0 2.532c0.7941,0.0125 1.5887,0.0267 2.387,0.0543 -0.0264,0.4143 -0.0474,0.8287 -0.079,1.2424 -0.7699,-0.0181 -1.5396,-0.0275 -2.308,-0.0355l0 -1.2612zm0.145 2.5259c0.7055,0.0039 1.4136,0.0089 2.1234,0.0171 -0.0051,0.408 -0.0076,0.814 -0.0077,1.2201l-0.2781 0 -0.1082 -0.0028 -0.0999 -0.0076 -0.0982 -0.0126 -0.0968 -0.0174 -0.0952 -0.0221 -0.0932 -0.0266 -0.0914 -0.0311 -0.0895 -0.0355 -0.0875 -0.0397 -0.0851 -0.0438 -0.0827 -0.0476 -0.0803 -0.0517 -0.0777 -0.0553 -0.075 -0.059 -0.0719 -0.0623 -0.069 -0.0659 -0.0659 -0.069 -0.0623 -0.072 -0.059 -0.0749 -0.0554 -0.0777 -0.0516 -0.0803 -0.0477 -0.0827 -0.0438 -0.0852 -0.0396 -0.0874 -0.0107 -0.027zm5.2929 -4.6618c0.9933,0.1681 1.9892,0.3539 2.9851,0.5862 -0.0027,0.3584 -0.0079,0.7154 -0.0132,1.0719 -0.9959,-0.1858 -1.9918,-0.3348 -2.9851,-0.4691 0.0027,-0.3959 0.0106,-0.7918 0.0132,-1.189zm-0.0527 2.3735c0.9959,0.1012 1.9918,0.2132 2.993,0.3533 -0.0211,0.3551 -0.0395,0.7109 -0.058,1.0667 -1.0038,-0.0942 -2.0049,-0.1693 -3.0035,-0.2374 0.0264,-0.394 0.0448,-0.7886 0.0685,-1.1826zm-0.1053 2.3678c1.0011,0.035 2.0023,0.0732 3.0087,0.1209 -0.0076,0.3466 -0.0104,0.6914 -0.0105,1.0368l-3.0088 0c0.0001,-0.3858 0.0029,-0.7708 0.0106,-1.1577zm6.1229 -3.3028c0.988,0.3252 1.9813,0.6537 2.9798,0.9821 -0.0026,0.2361 -0.0052,0.4716 -0.0079,0.7065 -0.9959,-0.2622 -1.9918,-0.5251 -2.9825,-0.7854 0.0027,-0.3017 0.008,-0.6022 0.0106,-0.9032zm-0.0343 1.8013c0.9933,0.196 1.9892,0.394 2.9878,0.5913 -0.0159,0.2342 -0.0238,0.4684 -0.0369,0.7021 -1.0012,-0.1325 -2.0024,-0.2642 -3.0009,-0.3953 0.0184,-0.2992 0.0316,-0.5983 0.05,-0.8981zm-0.0737 1.7994c1.0011,0.0661 2.0023,0.133 3.0062,0.1998 -0.0025,0.2202 -0.0027,0.4403 -0.0027,0.66l-3.0088 0c0.0002,-0.2866 0.0028,-0.5732 0.0053,-0.8598zm6.0676 -1.6683c0.9933,0.2648 1.9892,0.4806 2.9903,0.674 -0.0026,0.1273 -0.0026,0.2553 -0.0026,0.3832 -1.0011,-0.1553 -1.9971,-0.3271 -2.9903,-0.5404 0.0026,-0.1712 0.0026,-0.3437 0.0026,-0.5168zm-0.0131 1.0318c0.9958,0.1604 1.9917,0.2902 2.9929,0.406 -0.0053,0.1274 -0.0105,0.2547 -0.0158,0.3819 -1.0038,-0.0783 -2.005,-0.1667 -3.0061,-0.273 0.0105,-0.1712 0.0184,-0.3431 0.029,-0.5149zm-0.0396 1.0311c1.0038,0.0547 2.005,0.0986 3.0061,0.1388l0 0.3264 -3.0087 0c0,-0.1547 0.0002,-0.3101 0.0026,-0.4652zm6.036 -1.0178c0.6165,0.0495 1.2315,0.0868 1.8484,0.1196l-0.0217 0.0637 -0.0354 0.0895 -0.0397 0.0873 -0.0203 0.0395c-0.5786,-0.0252 -1.1562,-0.0538 -1.7339,-0.0909 0,-0.1031 0,-0.2062 0.0026,-0.3087zm-0.0053 0.6162c0.5208,0.0253 1.0415,0.0452 1.5636,0.0625l-0.0052 0.0074 -0.0589 0.0749 -0.0625 0.0721 -0.0657 0.0689 -0.0608 0.058c-0.4405,-0.0104 -0.8801,-0.0219 -1.3183,-0.0358 0.0025,-0.1018 0.0052,-0.2049 0.0078,-0.308zm-0.0131 0.616c0.3078,0.0052 0.6159,0.0094 0.9244,0.0134l-0.0818 0.042 -0.0874 0.0397 -0.0895 0.0354 -0.0915 0.0312 -0.0932 0.0266 -0.0952 0.0221 -0.0968 0.0174 -0.0982 0.0126 -0.0999 0.0076 -0.0909 0.0024 0 -0.2504zm-9.0288 -11.4447l-2.6798 -2.2738 4.2524 -5.0126 2.6801 2.2735 -4.2527 5.0129zm-3.4721 1.3764l0.4763 -3.278 2.6802 2.2738 -3.1565 1.0042zm3.4986 -9.8917c3.2713,0 5.9242,2.6528 5.9242,5.9241 0,3.2713 -2.6529,5.9242 -5.9242,5.9242 -3.2713,0 -5.9242,-2.6529 -5.9242,-5.9242 0,-3.2713 2.6529,-5.9241 5.9242,-5.9241zm0 -0.7163c3.6668,0 6.6404,2.9736 6.6404,6.6404 0,3.6668 -2.9736,6.6404 -6.6404,6.6404 -3.6668,0 -6.6404,-2.9736 -6.6404,-6.6404 0,-3.6668 2.9736,-6.6404 6.6404,-6.6404z"/>
  <path class="fil0" d="M68.6534 69.1366c1.021,0.1178 2.0365,0.2932 3.0629,0.5 -0.0108,0.8128 -0.0215,1.6255 -0.0404,2.4357 -1.0237,-0.1557 -2.0419,-0.288 -3.0656,-0.377 0.0189,-0.852 0.035,-1.7053 0.0431,-2.5587zm11.8168 -10.6716c3.6667,0 6.6404,2.9736 6.6404,6.6404 0,3.6668 -2.9737,6.6404 -6.6404,6.6404 -3.6668,0 -6.6405,-2.9736 -6.6405,-6.6404 0,-3.6668 2.9737,-6.6404 6.6405,-6.6404zm0 0.7162c3.2712,0 5.9241,2.6529 5.9241,5.9242 0,3.2713 -2.6529,5.9242 -5.9241,5.9242 -3.2713,0 -5.9242,-2.6529 -5.9242,-5.9242 0,-3.2713 2.6529,-5.9242 5.9242,-5.9242zm-12.2801 -6.2007l21.8202 0 0 0c0.022,0 0.0438,0.0002 0.0656,0.0008l0.0001 0c0.0218,0.0005 0.0436,0.0014 0.0653,0.0025l0.0001 0c0.0217,0.0011 0.0433,0.0024 0.0649,0.0041l0 0c0.0216,0.0017 0.0431,0.0036 0.0646,0.0058l0 0c0.0215,0.0022 0.0427,0.0045 0.064,0.0073l0.0001 0c0.0213,0.0027 0.0424,0.0058 0.0635,0.009l0.0001 0c0.0211,0.0033 0.0421,0.0068 0.063,0.0105l0.0001 0c0.021,0.0038 0.0418,0.0079 0.0625,0.0122l0.0001 0c0.0207,0.0042 0.0414,0.0087 0.062,0.0135l0 0c0.0206,0.0048 0.0411,0.0098 0.0614,0.0151l0.0001 0c0.0203,0.0053 0.0407,0.0108 0.0609,0.0166l0 0c0.0202,0.0057 0.0404,0.0118 0.0603,0.0181l0.0001 0c0.0199,0.0062 0.0398,0.0127 0.0595,0.0194l0.0001 0c0.0198,0.0067 0.0394,0.0137 0.059,0.0209l0.0001 0c0.0195,0.0072 0.0389,0.0147 0.0582,0.0223l0.0001 0c0.0193,0.0077 0.0387,0.0156 0.0578,0.0238l0 0c0.0191,0.0081 0.038,0.0164 0.0569,0.025l0 0c0.0189,0.0085 0.0376,0.0173 0.0563,0.0263l0 0c0.0186,0.009 0.0371,0.0182 0.0554,0.0277l0.0001 0c0.0184,0.0094 0.0366,0.0192 0.0548,0.0291l0 0c0.0181,0.0098 0.0361,0.0199 0.0539,0.0302l0.0001 0c0.0178,0.0103 0.0356,0.0208 0.0532,0.0315l0 0c0.0176,0.0107 0.035,0.0217 0.0523,0.0328l0 0c0.0173,0.0111 0.0345,0.0225 0.0515,0.034l0.0001 0c0.017,0.0115 0.0338,0.0232 0.0505,0.0351l0.0001 0c0.0167,0.0119 0.0333,0.0241 0.0497,0.0364l0.0001 0c0.0164,0.0123 0.0326,0.0248 0.0487,0.0375l0.0001 0c0.0161,0.0127 0.0321,0.0256 0.0479,0.0387l0 0c0.0158,0.0131 0.0314,0.0262 0.0468,0.0397l0.0001 0c0.0155,0.0134 0.0309,0.027 0.046,0.0408l0.0001 0c0.0151,0.0138 0.0301,0.0278 0.0449,0.0419l0 0c0.0149,0.0142 0.0296,0.0286 0.0441,0.0431l0.0001 0c0.0145,0.0145 0.0286,0.0291 0.0428,0.044l0.0001 0c0.0141,0.0148 0.0281,0.0297 0.0419,0.0449l0 0c0.0138,0.0152 0.0273,0.0305 0.0408,0.046l0 0c0.0134,0.0155 0.0267,0.0312 0.0398,0.047l0 0c0.0131,0.0158 0.0258,0.0318 0.0385,0.0479l0.0001 0c0.0127,0.0161 0.0252,0.0324 0.0375,0.0488l0.0001 0c0.0122,0.0165 0.0243,0.033 0.0362,0.0498l0.0001 0c0.0119,0.0167 0.0236,0.0336 0.0351,0.0507l0.0001 0c0.0115,0.017 0.0227,0.0341 0.0339,0.0514l0 0c0.0111,0.0173 0.022,0.0348 0.0327,0.0524l0.0001 0c0.0107,0.0176 0.0212,0.0353 0.0315,0.0531l0 0c0.0103,0.0178 0.0204,0.0359 0.0302,0.0541l0.0001 0c0.0099,0.0181 0.0194,0.0363 0.0289,0.0547l0 0c0.0095,0.0184 0.0187,0.0369 0.0277,0.0555l0.0001 0c0.009,0.0187 0.0177,0.0375 0.0263,0.0563l0 0c0.0086,0.0189 0.017,0.038 0.0251,0.0571l0.0001 0c0.0081,0.0191 0.0158,0.0383 0.0235,0.0576l0.0001 0c0.0076,0.0194 0.015,0.0388 0.0222,0.0584l0.0001 0c0.0072,0.0195 0.0141,0.0392 0.0208,0.059l0.0001 0c0.0067,0.0198 0.0132,0.0397 0.0194,0.0598l0.0001 0c0.0062,0.02 0.0122,0.04 0.0179,0.0602l0.0001 0c0.0058,0.0202 0.0113,0.0406 0.0166,0.061l0 0c0.0053,0.0204 0.0103,0.0409 0.0151,0.0614l0.0001 0c0.0048,0.0206 0.0092,0.0415 0.0136,0.0622l0 0c0.0043,0.0208 0.0082,0.0415 0.012,0.0625l0.0001 0c0.0037,0.021 0.0071,0.042 0.0104,0.0631l0.0001 0c0.0032,0.0212 0.0062,0.0423 0.0089,0.0636l0 0c0.0028,0.0213 0.0052,0.0427 0.0074,0.0642l0.0001 0c0.0022,0.0214 0.004,0.0429 0.0056,0.0645l0.0001 0c0.0016,0.0216 0.003,0.0433 0.0041,0.065l0.0001 0c0.0011,0.0217 0.0019,0.0435 0.0024,0.0654l0 0c0.0006,0.0219 0.0009,0.0438 0.0009,0.0659l0.0001 0 0 21.8202 -0.0001 0c0,0.0219 -0.0003,0.0438 -0.0009,0.0656l0 0c-0.0005,0.0219 -0.0014,0.0437 -0.0024,0.0654l-0.0001 0c-0.0011,0.0217 -0.0025,0.0434 -0.0041,0.065l-0.0001 0c-0.0017,0.0216 -0.0034,0.0431 -0.0056,0.0646l-0.0001 0c-0.0022,0.0214 -0.0046,0.0427 -0.0074,0.064l0 0c-0.0028,0.0213 -0.0057,0.0425 -0.0089,0.0636l-0.0001 0c-0.0032,0.0212 -0.0067,0.0422 -0.0104,0.0631l-0.0001 0c-0.0038,0.021 -0.0077,0.0418 -0.012,0.0626l0 0c-0.0043,0.0208 -0.0089,0.0414 -0.0136,0.062l-0.0001 0c-0.0048,0.0206 -0.0098,0.0412 -0.0151,0.0615l0 0c-0.0053,0.0204 -0.0108,0.0408 -0.0166,0.061l-0.0001 0c-0.0057,0.0202 -0.0117,0.0403 -0.0179,0.0603l-0.0001 0c-0.0062,0.02 -0.0127,0.0398 -0.0194,0.0596l-0.0001 0c-0.0067,0.0198 -0.0136,0.0395 -0.0208,0.0591l-0.0001 0c-0.0072,0.0195 -0.0146,0.039 -0.0222,0.0583l-0.0001 0c-0.0076,0.0194 -0.0154,0.0387 -0.0235,0.0578l-0.0001 0c-0.0081,0.0192 -0.0165,0.038 -0.0251,0.0569l0 0c-0.0086,0.0189 -0.0173,0.0377 -0.0263,0.0563l-0.0001 0c-0.009,0.0187 -0.0182,0.0371 -0.0277,0.0555l0 0c-0.0095,0.0184 -0.019,0.0368 -0.0289,0.0549l-0.0001 0c-0.0098,0.0181 -0.0199,0.036 -0.0302,0.0539l0 0c-0.0103,0.0178 -0.0208,0.0356 -0.0315,0.0532l-0.0001 0c-0.0107,0.0176 -0.0215,0.0351 -0.0327,0.0524l0 0c-0.0111,0.0173 -0.0224,0.0345 -0.0339,0.0515l-0.0001 0c-0.0115,0.017 -0.0232,0.0339 -0.0351,0.0506l-0.0001 0c-0.0119,0.0167 -0.024,0.0334 -0.0362,0.0498l-0.0001 0c-0.0123,0.0164 -0.0248,0.0327 -0.0375,0.0488l-0.0001 0c-0.0126,0.0161 -0.0254,0.0322 -0.0385,0.048l0 0c-0.0131,0.0157 -0.0264,0.0313 -0.0398,0.0468l0 0c-0.0135,0.0155 -0.027,0.031 -0.0408,0.0461l0 0c-0.0138,0.0151 -0.0278,0.0302 -0.0419,0.045l-0.0001 0c-0.0141,0.0148 -0.0283,0.0296 -0.0428,0.0441l-0.0001 0c-0.0145,0.0145 -0.0292,0.0288 -0.0441,0.0429l0 0c-0.0148,0.0141 -0.0298,0.0282 -0.0449,0.042l-0.0001 0c-0.0151,0.0138 -0.0305,0.0273 -0.046,0.0407l-0.0001 0c-0.0154,0.0135 -0.0309,0.0268 -0.0468,0.0399l0 0c-0.0158,0.013 -0.0318,0.0258 -0.0479,0.0385l-0.0001 0c-0.0161,0.0127 -0.0324,0.0253 -0.0487,0.0376l-0.0001 0c-0.0164,0.0123 -0.033,0.0244 -0.0497,0.0363l-0.0001 0c-0.0167,0.0119 -0.0335,0.0237 -0.0505,0.0352l-0.0001 0c-0.017,0.0116 -0.0342,0.0229 -0.0515,0.034l0 0c-0.0173,0.0111 -0.0347,0.022 -0.0523,0.0327l0 0c-0.0176,0.0108 -0.0354,0.0213 -0.0532,0.0316l-0.0001 0c-0.0178,0.0102 -0.0358,0.0203 -0.0539,0.0302l0 0c-0.0181,0.0099 -0.0364,0.0195 -0.0548,0.029l-0.0001 0c-0.0183,0.0094 -0.0368,0.0187 -0.0554,0.0277l0 0c-0.0186,0.009 -0.0374,0.0177 -0.0563,0.0264l0 0c-0.0189,0.0085 -0.0378,0.017 -0.0569,0.0251l0 0c-0.0191,0.0082 -0.0385,0.016 -0.0578,0.0236l-0.0001 0c-0.0193,0.0077 -0.0387,0.0151 -0.0582,0.0223l-0.0001 0c-0.0196,0.0072 -0.0393,0.0142 -0.059,0.0209l-0.0001 0c-0.0197,0.0068 -0.0396,0.0133 -0.0595,0.0195l-0.0001 0c-0.02,0.0063 -0.0401,0.0123 -0.0603,0.018l0 0c-0.0202,0.0058 -0.0406,0.0114 -0.0609,0.0167l-0.0001 0c-0.0203,0.0053 -0.0409,0.0103 -0.0614,0.0151l0 0c-0.0206,0.0048 -0.0413,0.0094 -0.062,0.0136l-0.0001 0c-0.0207,0.0044 -0.0416,0.0083 -0.0625,0.0121l-0.0001 0c-0.0209,0.0038 -0.0419,0.0072 -0.063,0.0105l-0.0001 0c-0.021,0.0033 -0.0422,0.0062 -0.0635,0.009l-0.0001 0c-0.0212,0.0027 -0.0426,0.0052 -0.064,0.0074l0 0c-0.0214,0.0022 -0.043,0.0041 -0.0646,0.0057l0 0c-0.0216,0.0017 -0.0432,0.0031 -0.0649,0.0042l-0.0001 0c-0.0216,0.0011 -0.0435,0.0019 -0.0653,0.0025l-0.0001 0c-0.0218,0.0006 -0.0436,0.0009 -0.0656,0.0009l0 0 -21.8202 0 0 0c-0.022,0 -0.0438,-0.0003 -0.0657,-0.0009l0 0c-0.0218,-0.0006 -0.0437,-0.0014 -0.0654,-0.0025l0 0c-0.0217,-0.0011 -0.0433,-0.0025 -0.0649,-0.0042l0 0c-0.0216,-0.0017 -0.0431,-0.0035 -0.0646,-0.0057l0 0c-0.0215,-0.0022 -0.0428,-0.0047 -0.064,-0.0074l-0.0001 0c-0.0213,-0.0028 -0.0425,-0.0057 -0.0636,-0.009l0 0c-0.0212,-0.0032 -0.0422,-0.0068 -0.0631,-0.0105l0 0c-0.021,-0.0038 -0.0418,-0.0078 -0.0626,-0.0121l0 0c-0.0208,-0.0042 -0.0414,-0.0088 -0.062,-0.0136l0 0c-0.0206,-0.0048 -0.0411,-0.0098 -0.0615,-0.0151l0 0c-0.0204,-0.0053 -0.0407,-0.0109 -0.0609,-0.0167l0 0c-0.0202,-0.0057 -0.0404,-0.0117 -0.0603,-0.018l-0.0001 0c-0.02,-0.0062 -0.0398,-0.0127 -0.0596,-0.0195l0 0c-0.0198,-0.0067 -0.0395,-0.0137 -0.059,-0.0209l-0.0001 0c-0.0195,-0.0072 -0.0389,-0.0146 -0.0583,-0.0223l0 0c-0.0194,-0.0076 -0.0387,-0.0154 -0.0578,-0.0236l0 0c-0.0192,-0.0081 -0.038,-0.0166 -0.0569,-0.0251l0 0c-0.0189,-0.0086 -0.0377,-0.0173 -0.0563,-0.0264 -0.0187,-0.009 -0.0371,-0.0183 -0.0555,-0.0277 -0.0184,-0.0095 -0.0368,-0.0191 -0.0549,-0.029 -0.0181,-0.0098 -0.036,-0.02 -0.0539,-0.0302 -0.0179,-0.0103 -0.0357,-0.0208 -0.0532,-0.0316 -0.0176,-0.0107 -0.035,-0.0216 -0.0523,-0.0327 -0.0173,-0.0112 -0.0346,-0.0224 -0.0516,-0.034 -0.017,-0.0115 -0.0338,-0.0233 -0.0506,-0.0352 -0.0168,-0.0119 -0.0333,-0.024 -0.0498,-0.0363 -0.0164,-0.0123 -0.0326,-0.0249 -0.0488,-0.0376 -0.0161,-0.0127 -0.0322,-0.0255 -0.0479,-0.0385 -0.0159,-0.0131 -0.0314,-0.0264 -0.0469,-0.0399 -0.0155,-0.0134 -0.0309,-0.0269 -0.0461,-0.0407 -0.0152,-0.0138 -0.0302,-0.0278 -0.045,-0.042 -0.0148,-0.0142 -0.0296,-0.0284 -0.0441,-0.0429 -0.0145,-0.0145 -0.0287,-0.0293 -0.0429,-0.0441 -0.0141,-0.0148 -0.0282,-0.0299 -0.042,-0.045 -0.0137,-0.0151 -0.0273,-0.0306 -0.0407,-0.0461 -0.0135,-0.0155 -0.0268,-0.0311 -0.0399,-0.0468 -0.013,-0.0158 -0.0259,-0.0319 -0.0385,-0.048 -0.0127,-0.0161 -0.0253,-0.0324 -0.0376,-0.0488 -0.0123,-0.0164 -0.0244,-0.0331 -0.0363,-0.0498 -0.0119,-0.0167 -0.0237,-0.0336 -0.0352,-0.0506 -0.0116,-0.017 -0.0228,-0.0342 -0.034,-0.0515 -0.0111,-0.0173 -0.022,-0.0348 -0.0327,-0.0524 -0.0107,-0.0175 -0.0213,-0.0353 -0.0315,-0.0532 -0.0103,-0.0178 -0.0205,-0.0358 -0.0303,-0.0539 -0.0099,-0.0181 -0.0195,-0.0365 -0.029,-0.0549 -0.0057,-0.0111 -0.0112,-0.0225 -0.0168,-0.0337l-0.0008 -0.0016 -0.0003 -0.0007 -0.0003 -0.0004 -0.0003 -0.001 -0.0003 -0.0004 -0.0003 -0.0007 -0.0008 -0.0015 -0.002 -0.0041 -0.0001 -0.0004 -0.0006 -0.001 -0.0006 -0.0013 -0.0081 -0.0167 0 -0.0001 -0.0007 -0.0014 -0.0002 -0.0006 -0.0005 -0.001 -0.0005 -0.0011 -0.0039 -0.0081 -0.0007 -0.0015 -0.0002 -0.0006 -0.0005 -0.001 -0.0005 -0.001 -0.0003 -0.0006 -0.0006 -0.0014 -0.0046 -0.0096 -0.0001 -0.0004 -0.0006 -0.0012 -0.0003 -0.0007 -0.0004 -0.0008 -0.0006 -0.0012 -0.0001 -0.0002 0 -0.0001 -0.0004 -0.0008c-0.0297,-0.0644 -0.0569,-0.1302 -0.0813,-0.1973l-0.0004 -0.0009 0 -0.0001 -0.0003 -0.0008 -0.0003 -0.0009 -0.0003 -0.0009 -0.0004 -0.001 0 0 -0.0036 -0.0101 -0.0003 -0.001c-0.0059,-0.0165 -0.0116,-0.033 -0.0171,-0.0496l-0.0001 -0.0003 -0.0003 -0.0009 -0.0006 -0.0018 -0.0003 -0.0008 -0.0001 -0.0002 -0.0003 -0.0009 -0.0003 -0.001 -0.0006 -0.0018 -0.0003 -0.001 -0.0004 -0.0009 -0.009 -0.0279 -0.0001 -0.0007 -0.0079 -0.0255 -0.0001 -0.0002 -0.0003 -0.001 -0.0003 -0.001 -0.0005 -0.0014 0 -0.0004 -0.0003 -0.0009 -0.0004 -0.001 0 0 -0.0004 -0.0013 -0.0004 -0.0014 -0.0001 -0.0004 -0.0002 -0.0006 -0.0001 -0.0001 -0.0003 -0.0014 -0.0001 -0.0003 -0.0003 -0.001 -0.0016 -0.0053 -0.0001 -0.0005 -0.0005 -0.0018 -0.0003 -0.0009 -0.0003 -0.001 -0.0001 -0.0003 -0.0004 -0.0016 -0.0003 -0.001 -0.0004 -0.0015 -0.0001 -0.0003 -0.0003 -0.001 -0.0003 -0.0009 -0.0003 -0.001 -0.0001 -0.0003 -0.0004 -0.0016 -0.0003 -0.001 0 -0.0001 -0.0005 -0.0014 0 -0.0003 -0.0003 -0.0009 -0.0004 -0.001 -0.0004 -0.0018 -0.0004 -0.001 -0.0012 -0.0044 -0.0001 -0.0003 -0.0001 -0.0002 -0.0002 -0.0007 0 -0.0002 -0.0005 -0.0018 -0.0003 -0.0009 -0.0005 -0.0018 0 -0.0001 -0.0003 -0.0009 -0.0001 -0.0004 -0.0013 -0.0047 -0.0003 -0.0012 -0.0001 -0.0004 -0.0003 -0.0009 0 -0.0001 -0.0015 -0.0052 -0.0002 -0.0008 -0.0017 -0.0064 -0.0005 -0.0016 0 -0.0002 -0.0004 -0.0009 0 -0.0003 -0.0034 -0.0125 -0.0003 -0.0013 0 -0.0003 -0.0004 -0.0009 -0.0001 -0.0006 0 -0.0004 -0.0003 -0.001 -0.0001 -0.0003 -0.0004 -0.0014 0 -0.0002 -0.0002 -0.001 -0.0001 -0.0001 -0.0009 -0.0034 0 -0.0002 -0.0003 -0.001 -0.0001 -0.0005 -0.0001 -0.0004 -0.0003 -0.001 -0.0037 -0.0142 0 -0.0002 -0.0005 -0.0019 -0.0009 -0.0036 -0.0001 -0.0003 -0.0004 -0.0016 -0.0001 -0.0003 -0.0004 -0.0017 -0.0001 -0.0003 -0.0004 -0.0016 0 -0.0003 -0.0005 -0.0016 0 -0.0004 -0.0005 -0.0016 0 -0.0003 -0.0004 -0.0016 -0.0001 -0.0003 -0.0004 -0.0017 -0.0002 -0.0009 -0.0033 -0.0134 -0.0001 -0.0002 -0.0022 -0.0094 0 -0.0002 -0.0002 -0.001 -0.0002 -0.0004 -0.0003 -0.0014 0 -0.0002 -0.0011 -0.0046 -0.0002 -0.001 0 -0.0001 -0.0005 -0.0018 -0.0002 -0.001 -0.0001 -0.0009 -0.0002 -0.0004 -0.0003 -0.0016 -0.0002 -0.0009 -0.0009 -0.0036 -0.0001 -0.0003 -0.0001 -0.001 -0.0001 -0.0002 -0.0004 -0.0017 -0.0002 -0.001 -0.0004 -0.0018 -0.0001 -0.0001 -0.0001 -0.001 -0.0003 -0.001 -0.0001 -0.0005 0 -0.0005 -0.0002 -0.0004 -0.0003 -0.0015 -0.0002 -0.001 -0.0004 -0.0016 -0.0001 -0.0003 -0.0001 -0.001 -0.0001 -0.0001 -0.0019 -0.0085 -0.0001 -0.001 -0.0007 -0.0029 -0.0002 -0.001 0 -0.0002 -0.0023 -0.0105 -0.0002 -0.0009 -0.0006 -0.0029 -0.0002 -0.001 0 -0.0001 -0.0052 -0.0253 -0.0001 -0.001 -0.0002 -0.001 0 -0.0001 -0.0006 -0.0028 -0.0002 -0.001 -0.0018 -0.0089 -0.0001 -0.0009 -0.0002 -0.001 -0.0002 -0.001 0 -0.0001 -0.0013 -0.0067 -0.0002 -0.0009 -0.0011 -0.006 -0.0002 -0.001 -0.0001 -0.0009 -0.0012 -0.0059 -0.0001 -0.0009 -0.0002 -0.001 -0.0009 -0.005 -0.0002 -0.0009 0 -0.0001 -0.0002 -0.0009 -0.0001 -0.001 -0.0002 -0.001 -0.0002 -0.0011 -0.0001 -0.001 -0.0002 -0.001 -0.0001 -0.0009 -0.0002 -0.001 -0.0002 -0.001 -0.0001 -0.0009 -0.0001 -0.0004 -0.0004 -0.0017 -0.0001 -0.001 -0.0002 -0.001 -0.0001 -0.0009 -0.0002 -0.001 -0.0002 -0.001 -0.0001 -0.001 -0.0001 -0.0003 -0.0001 -0.0006 -0.0001 -0.0011 -0.0002 -0.0009 -0.0002 -0.001 -0.0001 -0.001 -0.0002 -0.0009 -0.0002 -0.001 -0.0001 -0.001 0 0 -0.0004 -0.0021 -0.0002 -0.0009 -0.0001 -0.001 -0.0002 -0.001 -0.0001 -0.001 -0.0002 -0.0009 -0.0002 -0.001 -0.0001 -0.001 -0.0002 -0.0011 -0.0001 -0.0006 -0.0001 -0.0004 -0.0001 -0.0009 -0.0002 -0.001 -0.0001 -0.001 -0.0002 -0.0009 -0.0002 -0.001 -0.0003 -0.0021 -0.0001 -0.001 -0.0023 -0.0147 -0.0002 -0.001 -0.0001 -0.0009 -0.0002 -0.001 -0.0002 -0.0011 -0.0001 -0.0009 -0.0002 -0.001 -0.0001 -0.0015 -0.0004 -0.0026 -0.0002 -0.0009 -0.0001 -0.001 -0.0002 -0.001 -0.0001 -0.0005 -0.0001 -0.0004 -0.0001 -0.001 0 -0.0001 -0.0007 -0.0049 -0.0001 -0.001 -0.0002 -0.001 -0.0002 -0.0009 0 -0.0002 -0.0006 -0.0048 -0.0002 -0.001 -0.0001 -0.001 -0.0002 -0.0009 0 -0.0004 -0.002 -0.0147 -0.0001 -0.0009 -0.001 -0.007 -0.0001 -0.001 -0.0005 -0.004 -0.0002 -0.001 -0.0001 -0.0009 -0.0003 -0.0029 0 -0.0002 -0.0002 -0.001 -0.0002 -0.001 -0.0001 -0.0016 -0.0002 -0.0012 0 -0.0002 -0.0002 -0.001 -0.0001 -0.001 0 -0.0003 -0.0003 -0.0027 -0.0002 -0.001 0 -0.0002 -0.0003 -0.0027 -0.0002 -0.001 0 -0.0001 -0.0003 -0.003 -0.0002 -0.0009 -0.0013 -0.011 -0.0001 -0.001 0 -0.0005 -0.0012 -0.0106 -0.0001 -0.001 0 -0.0001 -0.0002 -0.0019 -0.0001 -0.001 -0.0002 -0.0016 0 -0.0005 -0.0002 -0.0009 0 -0.0001 -0.0005 -0.005 -0.0001 -0.0009 0 -0.0001 -0.0003 -0.003 -0.0002 -0.001 0 -0.0005 0 -0.0004 -0.0001 0 -0.0001 -0.001 -0.0006 -0.0067 0 -0.0004 -0.0002 -0.001 0 -0.001 -0.0002 -0.0009 0 -0.0005 -0.0001 -0.0016 0 -0.0001 -0.0005 -0.0049 -0.0001 -0.0005 -0.0001 -0.0012 0 -0.0004 -0.0002 -0.001 0 -0.0002 -0.0011 -0.0128 -0.0002 -0.001 0 -0.0002 -0.0002 -0.0017 0 -0.0002 -0.0009 -0.0121 -0.0001 -0.001 -0.0001 -0.001 0 -0.0004 -0.0002 -0.0014 0 -0.0006 -0.0001 -0.0013 -0.0001 -0.0003 0 -0.0003 -0.0001 -0.0016 0 -0.0004 -0.0001 -0.0015 -0.0001 -0.0005 -0.0002 -0.0017 0 -0.0003 -0.0001 -0.0016 0 -0.0004 -0.0002 -0.0018 0 -0.0001 0 -0.001 -0.0001 -0.0002 -0.0001 -0.0016 -0.0022 -0.0314 -0.0001 -0.0002 0 -0.0011 -0.001 -0.0151 0 -0.0001 0 -0.0011 -0.0004 -0.0069 0 -0.0002 -0.0003 -0.006 0 -0.001 -0.0001 -0.0004 -0.0001 -0.0017 0 -0.001 -0.0002 -0.0019 0 -0.0002 0 -0.0011 -0.0012 -0.0273 0 0 0 -0.0011 -0.0011 -0.0316 0 -0.0001 0 -0.0011 0 -0.001 -0.0001 -0.0061 0 -0.0011 0 -0.001 -0.0002 -0.0062 0 -0.0011 0 -0.001 -0.0002 -0.0061 0 -0.0011 -0.0001 -0.0067 0 -0.0003 0 -0.0011 0 -0.001 0 -0.0011 0 -0.001 0 -0.0011 0 -0.001 0 -0.001 -0.0002 -0.009 0 -0.0002 0 -0.0011 0 -0.001 0 -0.0011 0 -0.001 0 -0.0011 0 -0.001 0 -0.0009 0 -0.001 -0.0001 -0.0081 0 -21.8202c0,-0.022 0.0003,-0.044 0.0009,-0.0659 0.0006,-0.0219 0.0014,-0.0436 0.0025,-0.0654 0.0011,-0.0217 0.0025,-0.0434 0.0042,-0.065 0.0017,-0.0216 0.0036,-0.0431 0.0057,-0.0645 0.0022,-0.0215 0.0047,-0.0429 0.0075,-0.0642 0.0027,-0.0213 0.0057,-0.0424 0.0089,-0.0636 0.0032,-0.0211 0.0068,-0.0421 0.0105,-0.0631 0.0038,-0.021 0.0078,-0.0417 0.0121,-0.0625 0.0042,-0.0208 0.0089,-0.0415 0.0136,-0.0622 0.0048,-0.0205 0.0099,-0.0411 0.0151,-0.0614 0.0053,-0.0205 0.0109,-0.0408 0.0167,-0.061 0.0058,-0.0202 0.0117,-0.0402 0.018,-0.0602 0.0062,-0.02 0.0128,-0.04 0.0195,-0.0598 0.0067,-0.0198 0.0137,-0.0395 0.0209,-0.059 0.0072,-0.0196 0.0146,-0.039 0.0223,-0.0584 0.0076,-0.0193 0.0155,-0.0385 0.0236,-0.0576 0.0081,-0.0191 0.0166,-0.0382 0.0252,-0.0571 0.0085,-0.0188 0.0172,-0.0377 0.0263,-0.0563 0.009,-0.0186 0.0183,-0.0371 0.0277,-0.0555 0.0095,-0.0184 0.0191,-0.0366 0.029,-0.0547 0.0098,-0.0182 0.02,-0.0362 0.0303,-0.0541 0.0102,-0.0178 0.0208,-0.0355 0.0315,-0.0531 0.0107,-0.0176 0.0216,-0.035 0.0327,-0.0524 0.0111,-0.0173 0.0224,-0.0344 0.034,-0.0514 0.0115,-0.0171 0.0232,-0.034 0.0352,-0.0507 0.0119,-0.0168 0.024,-0.0333 0.0363,-0.0498 0.0123,-0.0164 0.0249,-0.0327 0.0376,-0.0488 0.0126,-0.0161 0.0255,-0.0321 0.0385,-0.0479 0.0131,-0.0158 0.0264,-0.0315 0.0399,-0.047 0.0134,-0.0155 0.027,-0.0308 0.0407,-0.046 0.0138,-0.0151 0.0279,-0.0301 0.042,-0.0449 0.0141,-0.0149 0.0284,-0.0295 0.0429,-0.044 0.0145,-0.0145 0.0293,-0.0289 0.0441,-0.0431 0.0148,-0.0141 0.0299,-0.0281 0.045,-0.0419 0.0152,-0.0138 0.0306,-0.0274 0.0461,-0.0408 0.0155,-0.0134 0.0311,-0.0266 0.0469,-0.0397 0.0157,-0.0131 0.0318,-0.026 0.0479,-0.0387 0.0161,-0.0127 0.0324,-0.0252 0.0488,-0.0375 0.0165,-0.0123 0.0331,-0.0244 0.0498,-0.0364 0.0167,-0.0119 0.0336,-0.0236 0.0506,-0.0351 0.017,-0.0115 0.0342,-0.0229 0.0516,-0.034 0.0172,-0.0111 0.0347,-0.0221 0.0523,-0.0328 0.0175,-0.0107 0.0353,-0.0212 0.0532,-0.0315 0.0178,-0.0103 0.0358,-0.0203 0.0539,-0.0302 0.0181,-0.0099 0.0365,-0.0197 0.0549,-0.0291 0.0183,-0.0095 0.0368,-0.0187 0.0555,-0.0277 0.0186,-0.009 0.0374,-0.0178 0.0563,-0.0263l0 0c0.0189,-0.0086 0.0377,-0.0169 0.0569,-0.025l0 0c0.0191,-0.0082 0.0384,-0.0161 0.0578,-0.0238l0 0c0.0194,-0.0076 0.0388,-0.0151 0.0583,-0.0223l0.0001 0c0.0195,-0.0072 0.0393,-0.0142 0.059,-0.0209l0 0c0.0198,-0.0067 0.0397,-0.0132 0.0596,-0.0194l0.0001 0c0.02,-0.0063 0.0401,-0.0124 0.0603,-0.0181l0 0c0.0202,-0.0058 0.0405,-0.0113 0.0609,-0.0166l0 0c0.0204,-0.0053 0.0409,-0.0103 0.0615,-0.0151l0 0c0.0205,-0.0048 0.0412,-0.0093 0.062,-0.0135l0 0c0.0208,-0.0043 0.0417,-0.0084 0.0626,-0.0122l0 0c0.0209,-0.0037 0.042,-0.0072 0.0631,-0.0105l0 0c0.0211,-0.0032 0.0423,-0.0063 0.0636,-0.009l0.0001 0c0.0212,-0.0027 0.0426,-0.0051 0.064,-0.0073l0 0c0.0214,-0.0022 0.043,-0.0042 0.0646,-0.0058l0 0c0.0216,-0.0017 0.0432,-0.003 0.0649,-0.0041l0 0c0.0217,-0.0011 0.0436,-0.002 0.0654,-0.0025l0 0c0.0219,-0.0005 0.0436,-0.0007 0.0657,-0.0008l0 0zm0.3394 21.2696c1.029,0.0603 2.05,0.1506 3.0764,0.254 -0.0135,0.8127 -0.0324,1.6255 -0.0378,2.4369 -1.0263,-0.0523 -2.0527,-0.0955 -3.079,-0.1282 0.0108,-0.8534 0.0242,-1.7067 0.0404,-2.5627zm6.2389 -3.6489c1.0156,0.4254 2.0285,0.8926 3.0495,1.4057 -0.0054,0.6164 -0.0135,1.2342 -0.0243,1.8467 -1.0209,-0.3848 -2.0392,-0.7343 -3.0575,-1.0549 0.0135,-0.7303 0.0269,-1.4633 0.0323,-2.1975zm-0.0916 4.391c1.0183,0.2147 2.042,0.4489 3.0656,0.7081 -0.0107,0.6164 -0.0215,1.2342 -0.0242,1.8532 -1.0291,-0.1321 -2.0527,-0.2538 -3.0737,-0.3638 0.0054,-0.7316 0.0162,-1.4632 0.0323,-2.1975zm6.1905 -1.3703c1.0156,0.517 2.0312,1.068 3.0522,1.564 -0.0027,0.3534 -0.0054,0.7081 -0.0108,1.0589 -1.0264,-0.3744 -2.0419,-0.7879 -3.0602,-1.1754 0.0081,-0.4816 0.0162,-0.9632 0.0188,-1.4475zm-0.0565 2.8912c1.0236,0.2604 2.0446,0.5392 3.0683,0.7905 -0.0054,0.3547 -0.0108,0.7081 -0.0108,1.0614 -1.0264,-0.127 -2.0527,-0.2683 -3.0764,-0.4005 0.0054,-0.4816 0.0108,-0.9672 0.0189,-1.4514zm6.1662 -0.216c1.0183,0.2434 2.0392,0.4542 3.0602,0.6099 0,0.2107 -0.0027,0.4214 -0.0027,0.6322 -1.0264,-0.1165 -2.0446,-0.2749 -3.0656,-0.4595 0.0027,-0.2604 0.0081,-0.5221 0.0081,-0.7826zm-0.0243 1.568c1.021,0.123 2.0447,0.229 3.0737,0.3075 -0.0027,0.2108 -0.0054,0.4228 -0.0054,0.6335 -1.029,-0.0406 -2.0527,-0.0943 -3.079,-0.1557 0,-0.2618 0.0054,-0.5236 0.0107,-0.7853zm-20.783 -11.4881c0.8315,0.0421 1.6647,0.0912 2.4999,0.1892 -0.0027,0.8572 -0.0108,1.7145 -0.0162,2.5704 -0.8298,-0.0774 -1.6576,-0.1158 -2.4837,-0.1495l0 -2.6101zm0 5.2069c0.8119,0.0258 1.6244,0.0547 2.4406,0.1114 -0.0269,0.8521 -0.0485,1.7041 -0.0808,2.5548 -0.7872,-0.0373 -1.5742,-0.0565 -2.3598,-0.0729l0 -2.5933zm0 5.1923c0.7704,0.0081 1.544,0.0185 2.3194,0.0366 -0.0054,0.8572 -0.0081,1.7106 -0.0081,2.5639l-0.4166 -0.0009 -0.0803 -0.0062 -0.1004 -0.0128 -0.099 -0.0178 -0.0973 -0.0226 -0.0953 -0.0273 -0.0935 -0.0318 -0.0915 -0.0362 -0.0895 -0.0406 -0.087 -0.0448 -0.0846 -0.0487 -0.0821 -0.0528 -0.0794 -0.0566 -0.0767 -0.0603 -0.0735 -0.0638 -0.0706 -0.0673 -0.0673 -0.0705 -0.0638 -0.0736 -0.0602 -0.0766 -0.0567 -0.0795 -0.0528 -0.0821 -0.0487 -0.0846 -0.0448 -0.087 -0.0405 -0.0895 -0.0363 -0.0914 -0.0318 -0.0936 -0.0272 -0.0953 -0.0226 -0.0973 -0.0178 -0.099 -0.0129 -0.1004 -0.0078 -0.1021 -0.0028 -0.1106 0 -0.5769zm5.5601 -9.5844c0.6753,0.2297 1.3517,0.4758 2.0285,0.7553l0.1436 0.3177 0.1611 0.3145 0.1754 0.3051 0.1896 0.2956 0.2031 0.2856 0.144 0.1832 -0.0067 0.9524c-1.0182,-0.3822 -2.0365,-0.6884 -3.0521,-0.9646 0.0027,-0.8141 0.0108,-1.6282 0.0135,-2.4448zm-0.0539 4.8805c1.0183,0.2081 2.0365,0.4384 3.0602,0.7264 -0.0215,0.7303 -0.0404,1.4619 -0.0593,2.1935 -1.0263,-0.1937 -2.05,-0.3481 -3.0709,-0.4881 0.0269,-0.8102 0.0458,-1.6217 0.07,-2.4318zm-0.1078 4.8687c1.0237,0.072 2.0474,0.1505 3.0764,0.2487 -0.008,0.7324 -0.0108,1.4608 -0.0108,2.1905l-3.0763 0c0,-0.8126 0.0027,-1.6239 0.0107,-2.4392zm9.306 -4.5601l-0.0068 1.241c-1.0182,-0.5392 -2.0366,-1.0798 -3.0494,-1.615l0.0004 -0.1144 0.1464 0.0578 0.3389 0.1146 0.346 0.0983 0.3527 0.0814 0.3589 0.0641 0.3648 0.0464 0.3698 0.0281 0.3744 0.0094 0.3742 -0.0094 0.0297 -0.0023zm-3.0805 1.4727c1.0156,0.4031 2.0339,0.8101 3.0549,1.2158 -0.0162,0.4817 -0.0243,0.9634 -0.0377,1.4437 -1.0237,-0.2723 -2.0474,-0.5432 -3.0684,-0.8128 0.0189,-0.6151 0.0324,-1.2303 0.0512,-1.8467zm-0.0754 3.6999c1.0237,0.1362 2.0474,0.2736 3.0737,0.411 -0.0026,0.4724 -0.0027,0.9446 -0.0027,1.4157l-3.0764 0c0.0001,-0.6089 0.0028,-1.2177 0.0054,-1.8267zm6.204 -3.4303c1.0155,0.5444 2.0338,0.9882 3.0575,1.386 -0.0027,0.2618 -0.0027,0.5248 -0.0027,0.7879 -1.0237,-0.3194 -2.0419,-0.6727 -3.0575,-1.1112 0.0027,-0.352 0.0027,-0.7067 0.0027,-1.0627zm-0.0135 2.1216c1.0183,0.3298 2.0365,0.5968 3.0602,0.8349 -0.0054,0.2618 -0.0108,0.5236 -0.0162,0.7854 -1.0263,-0.161 -2.05,-0.343 -3.0736,-0.5615 0.0107,-0.3521 0.0188,-0.7055 0.0296,-1.0588zm-0.0404 2.1202c1.0263,0.1126 2.05,0.2029 3.0737,0.2854l0 0.7298 -3.0764 0c0,-0.3373 0.0001,-0.6768 0.0027,-1.0152zm6.1716 -2.0928c0.664,0.1073 1.3262,0.1867 1.9907,0.2566l0 0.5842c-0.6653,-0.0561 -1.3294,-0.1204 -1.9934,-0.206 0,-0.212 0,-0.424 0.0027,-0.6348zm-0.0054 1.267c0.6552,0.0641 1.3103,0.1114 1.968,0.1527l-0.0132 0.0733 -0.0226 0.0973 -0.0272 0.0953 -0.0319 0.0936 -0.0362 0.0914 -0.0405 0.0894 -0.0177 0.0343c-0.5971,-0.0264 -1.1933,-0.0559 -1.7868,-0.0939 0.0027,-0.2094 0.0054,-0.4214 0.0081,-0.6334zm-0.0135 1.2669c0.4512,0.0151 0.9033,0.0268 1.3554,0.0375l-0.0104 0.0099 -0.0736 0.0638 -0.0766 0.0603 -0.0795 0.0566 -0.082 0.0528 -0.0847 0.0487 -0.0871 0.0448 -0.0892 0.0406 -0.0916 0.0362 -0.0935 0.0318 -0.0954 0.0273 -0.0972 0.0226 -0.099 0.0178 -0.1004 0.0128 -0.1022 0.0078 -0.093 0.0024 0 -0.5737zm-9.2038 -13.7057l2.4561 -3.9357 -5.6141 0.0081 2.4662 3.9276 -2.466 3.928 5.6138 0.0077 -2.456 -3.9357zm-1.3533 -1.8415l2.0086 0 -1.0012 1.6044 -1.0074 -1.6044zm-0.14 3.9063l2.2879 0 0.9053 1.4508 -4.1005 -0.0055 0.9073 -1.4453z"/>
  <path class="fil0" d="M138.464 53.8278l21.3408 0c1.3766,0 2.5029,1.1263 2.5029,2.5029l0 21.3408c0,1.3766 -1.1263,2.5029 -2.5029,2.5029l-21.3408 0c-1.3766,0 -2.5029,-1.1263 -2.5029,-2.5029l0 -21.3408c0,-1.3766 1.1263,-2.5029 2.5029,-2.5029zm0.4532 5.5091c0.9985,0.2329 1.9918,0.5797 2.9956,0.9885 -0.0105,1.6069 -0.0211,3.2138 -0.0395,4.8156 -1.0012,-0.3079 -1.9971,-0.5667 -2.9983,-0.7452 0.0185,-1.6846 0.0343,-3.3717 0.0422,-5.0589zm-0.1212 10.1099c1.0064,0.1191 2.005,0.2976 3.0087,0.502 -0.0131,1.6069 -0.0316,3.2139 -0.0368,4.8182 -1.0038,-0.1035 -2.0076,-0.1915 -3.0115,-0.2536 0.0106,-1.6871 0.0238,-3.3768 0.0396,-5.0666zm6.1019 -7.2143c0.9932,0.841 1.9838,1.7647 2.9824,2.7791 -0.0053,1.2188 -0.0132,2.4402 -0.0237,3.6512 -0.9986,-0.7608 -1.9945,-1.4517 -2.9904,-2.0857 0.0132,-1.4439 0.0264,-2.8929 0.0317,-4.3446zm-0.0896 8.6815c0.9959,0.4244 1.997,0.8876 2.9982,1.4 -0.0105,1.2187 -0.0211,2.4401 -0.0237,3.664 -1.0065,-0.2613 -2.0076,-0.502 -3.0061,-0.7193 0.0052,-1.4465 0.0157,-2.8956 0.0316,-4.3447zm6.0544 -2.7092c0.9933,1.0195 1.9865,2.0623 2.9851,3.0068 -0.0026,0.7064 -0.0053,1.4128 -0.0106,2.1141 -1.0037,-0.7116 -1.997,-1.4931 -2.9929,-2.259 0.0079,-0.9523 0.0158,-1.9045 0.0184,-2.8619zm-0.0553 5.7161c1.0012,0.5175 1.9997,1.0428 3.0009,1.5189 -0.0053,0.709 -0.0106,1.4154 -0.0106,2.1219 -1.0037,-0.2433 -2.0076,-0.5072 -3.0087,-0.7711 0.0052,-0.9523 0.0105,-1.9123 0.0184,-2.8697zm6.0307 -0.5952c0.9959,0.4606 1.9945,0.8565 2.993,1.1463 0,0.4373 -0.0026,0.872 -0.0026,1.3068 -1.0038,-0.2148 -1.9997,-0.5149 -2.9983,-0.8643 0.0026,-0.5278 0.0079,-1.0583 0.0079,-1.5888zm-0.0237 3.1854c0.9986,0.2329 1.9997,0.4321 3.0062,0.5771 -0.0026,0.4373 -0.0053,0.8745 -0.0053,1.3093 -1.0065,-0.0751 -2.0076,-0.176 -3.0114,-0.2924 0,-0.5305 0.0052,-1.061 0.0105,-1.594zm-17.8816 -22.1564c-0.0028,1.6617 -0.0105,3.3231 -0.0156,4.9822 -0.8116,-0.153 -1.6212,-0.229 -2.4292,-0.2958l0 -2.7037 0.0028 -0.1081 0.0076 -0.0999 0.0126 -0.0982 0.0174 -0.0968 0.0221 -0.0952 0.0266 -0.0933 0.0312 -0.0914 0.0354 -0.0895 0.0397 -0.0874 0.0438 -0.0851 0.0477 -0.0828 0.0516 -0.0803 0.0553 -0.0777 0.059 -0.0749 0.0624 -0.072 0.0658 -0.069 0.0689 -0.0657 0.0721 -0.0625 0.0749 -0.0589 0.0777 -0.0554 0.0803 -0.0516 0.0828 -0.0477 0.0852 -0.0439 0.0873 -0.0396 0.0894 -0.0354 0.0916 -0.0311 0.0932 -0.0267 0.0951 -0.0221 0.0968 -0.0174 0.0984 -0.0126 0.0999 -0.0077 0.1082 -0.0028 0.462 0zm-2.4448 9.8209c0.7941,0.0511 1.5887,0.1078 2.387,0.2202 -0.0263,1.6845 -0.0474,3.3691 -0.079,5.051 -0.7699,-0.0737 -1.5395,-0.1114 -2.308,-0.1439l0 -5.1273zm0 10.2657c0.7535,0.0161 1.51,0.0365 2.2684,0.0721 -0.0052,1.6949 -0.0078,3.3821 -0.0078,5.0692 -0.2651,-0.0014 -0.5292,-0.0021 -0.7932,-0.0024l-0.0762 -0.0218 -0.0915 -0.0311 -0.0895 -0.0355 -0.0874 -0.0396 -0.0852 -0.0438 -0.0827 -0.0477 -0.0802 -0.0516 -0.0778 -0.0554 -0.0749 -0.059 -0.072 -0.0623 -0.069 -0.0659 -0.0659 -0.069 -0.0623 -0.0719 -0.0589 -0.075 -0.0554 -0.0777 -0.0516 -0.0803 -0.0477 -0.0827 -0.0438 -0.0852 -0.0397 -0.0874 -0.0355 -0.0895 -0.0311 -0.0914 -0.0266 -0.0932 -0.0221 -0.0952 -0.0174 -0.0968 -0.0126 -0.0983 -0.0076 -0.0999 -0.0028 -0.1082 0 -3.2235zm5.438 -18.9496c0.9932,0.6831 1.9891,1.4387 2.985,2.3832 -0.0026,1.4568 -0.0079,2.9085 -0.0131,4.3576 -0.9959,-0.7556 -1.9919,-1.3611 -2.9851,-1.9071 0.0026,-1.6095 0.0105,-3.219 0.0132,-4.8337zm-0.0527 9.6493c0.9958,0.4115 1.9918,0.8669 2.9929,1.4361 -0.0211,1.4439 -0.0395,2.893 -0.0579,4.3369 -1.0039,-0.3829 -2.005,-0.6883 -3.0036,-0.9652 0.0264,-1.6017 0.0449,-3.206 0.0686,-4.8078zm-0.1054 9.626c1.0011,0.1423 2.0023,0.2976 3.0088,0.4917 -0.008,1.4542 -0.0106,2.9007 -0.0106,4.3498 -1.0038,-0.0077 -2.005,-0.013 -3.0088,-0.0181 0,-1.6069 0.0027,-3.2113 0.0106,-4.8234zm6.1229 -13.4272c0.988,1.3222 1.9813,2.6574 2.9798,3.9927 -0.0026,0.96 -0.0052,1.9174 -0.0079,2.8723 -0.9959,-1.0662 -1.9918,-2.1349 -2.9824,-3.1932 0.0026,-1.2265 0.0079,-2.4479 0.0105,-3.6718zm-0.0342 7.323c0.9933,0.797 1.9892,1.6017 2.9877,2.4039 -0.0158,0.9522 -0.0237,1.9045 -0.0369,2.8542 -1.0012,-0.5382 -2.0024,-1.0739 -3.0009,-1.6069 0.0185,-1.2163 0.0316,-2.4325 0.0501,-3.6512zm-0.0738 7.3152c1.0012,0.2692 2.0024,0.5382 3.0062,0.8126 -0.0026,0.9531 -0.0026,1.9064 -0.0026,2.8569l-0.7372 0c-0.758,-0.0044 -1.5156,-0.0073 -2.2717,-0.0131 0,-1.2188 0.0027,-2.4376 0.0053,-3.6564zm6.0676 -6.8908c0.9933,1.0402 1.9892,1.8812 2.9904,2.6393 -0.0027,0.5331 -0.0027,1.0662 -0.0027,1.5992 -1.0011,-0.6081 -1.997,-1.2809 -2.9903,-2.1141 0.0026,-0.7065 0.0026,-1.4128 0.0026,-2.1244zm-0.0132 4.2385c0.996,0.6288 1.9919,1.136 2.993,1.5888 -0.0052,0.5331 -0.0105,1.0635 -0.0158,1.5966 -1.0038,-0.3079 -2.005,-0.6521 -3.0061,-1.0713 0.0105,-0.7038 0.0184,-1.4077 0.0289,-2.1141zm-0.0395 4.236c1.0038,0.2147 2.005,0.3855 3.0062,0.5434l0 1.5424 -3.0088 0c0,-0.6936 0.0001,-1.3897 0.0026,-2.0858zm6.036 -4.4042c0.6495,0.1956 1.2971,0.335 1.9471,0.4549l0 1.2229c-0.6508,-0.0954 -1.3002,-0.2084 -1.9497,-0.3633 0,-0.4399 0,-0.8772 0.0026,-1.3145zm-0.0052 2.6213c0.6499,0.1183 1.2998,0.201 1.9523,0.2726l0 1.2201c-0.655,-0.0501 -1.3093,-0.1056 -1.9602,-0.1833 0.0026,-0.4322 0.0052,-0.8695 0.0079,-1.3094zm-0.0132 2.6187c0.5956,0.0381 1.193,0.0625 1.7891,0.0852l-0.019 0.0419 -0.0438 0.0852 -0.0478 0.0828 -0.0516 0.0803 -0.0554 0.0777 -0.0589 0.075 -0.0624 0.072 -0.0658 0.0689 -0.069 0.0658 -0.072 0.0624 -0.0749 0.059 -0.0777 0.0554 -0.0803 0.0516 -0.0827 0.0477 -0.0852 0.0438 -0.0873 0.0396 -0.0896 0.0355 -0.0914 0.0311 -0.0933 0.0266 -0.0951 0.0221 -0.0968 0.0175 -0.0983 0.0125 -0.0998 0.0077 -0.091 0.0023 0 -1.2496z"/>
  <path class="fil0" d="M166.407 93.7344l9.1645 0c0.5912,0 1.0748,0.4837 1.0748,1.0748l0 9.1645c0,0.5912 -0.4836,1.0748 -1.0748,1.0748l-9.1645 0c-0.5911,0 -1.0748,-0.4836 -1.0748,-1.0748l0 -9.1645c0,-0.5911 0.4837,-1.0748 1.0748,-1.0748zm0.1946 2.3658c0.4288,0.1 0.8554,0.2489 1.2864,0.4245 -0.0045,0.69 -0.009,1.3801 -0.0169,2.068 -0.43,-0.1323 -0.8576,-0.2434 -1.2876,-0.3201 0.008,-0.7234 0.0148,-1.4479 0.0181,-2.1724zm-0.052 4.3415c0.4322,0.0512 0.861,0.1278 1.2921,0.2156 -0.0057,0.6901 -0.0136,1.3802 -0.0159,2.0691 -0.431,-0.0444 -0.8621,-0.0822 -1.2932,-0.1089 0.0045,-0.7245 0.0102,-1.4501 0.017,-2.1758zm2.6204 -3.0981c0.4265,0.3612 0.8519,0.7579 1.2807,1.1935 -0.0023,0.5234 -0.0057,1.0479 -0.0102,1.5679 -0.4288,-0.3266 -0.8565,-0.6234 -1.2841,-0.8956 0.0056,-0.6201 0.0113,-1.2423 0.0136,-1.8658zm-0.0385 3.7282c0.4277,0.1823 0.8576,0.3812 1.2875,0.6012 -0.0045,0.5234 -0.009,1.0479 -0.0101,1.5735 -0.4323,-0.1123 -0.8622,-0.2156 -1.291,-0.309 0.0023,-0.6211 0.0068,-1.2434 0.0136,-1.8657zm2.6 -1.1634c0.4265,0.4378 0.853,0.8856 1.2819,1.2912 -0.0012,0.3034 -0.0023,0.6067 -0.0046,0.9079 -0.431,-0.3056 -0.8576,-0.6412 -1.2853,-0.9701 0.0034,-0.409 0.0068,-0.8179 0.008,-1.229zm-0.0238 2.4547c0.4299,0.2222 0.8588,0.4478 1.2887,0.6522 -0.0023,0.3045 -0.0045,0.6079 -0.0045,0.9112 -0.4311,-0.1044 -0.8622,-0.2178 -1.2921,-0.3311 0.0023,-0.4089 0.0045,-0.8212 0.0079,-1.2323zm2.5898 -0.2556c0.4277,0.1978 0.8565,0.3678 1.2853,0.4922 0,0.1878 -0.0011,0.3745 -0.0011,0.5612 -0.4311,-0.0922 -0.8588,-0.2211 -1.2876,-0.3711 0.0011,-0.2267 0.0034,-0.4545 0.0034,-0.6823zm-0.0102 1.3679c0.4288,0.1 0.8588,0.1856 1.291,0.2478 -0.0011,0.1878 -0.0023,0.3756 -0.0023,0.5623 -0.4322,-0.0323 -0.8621,-0.0756 -1.2932,-0.1256 0,-0.2278 0.0023,-0.4556 0.0045,-0.6845zm-7.679 -9.5147c-0.0012,0.7135 -0.0044,1.427 -0.0067,2.1395 -0.3485,-0.0657 -0.6961,-0.0983 -1.0431,-0.127l0 -1.1611 0.0012 -0.0464 0.0032 -0.0429 0.0054 -0.0422 0.0075 -0.0416 0.0095 -0.0408 0.0114 -0.0401 0.0134 -0.0393 0.0152 -0.0384 0.0171 -0.0375 0.0188 -0.0366 0.0204 -0.0355 0.0222 -0.0345 0.0238 -0.0334 0.0253 -0.0321 0.0268 -0.031 0.0283 -0.0296 0.0296 -0.0282 0.0309 -0.0268 0.0322 -0.0253 0.0333 -0.0238 0.0345 -0.0222 0.0356 -0.0205 0.0366 -0.0188 0.0375 -0.017 0.0384 -0.0152 0.0393 -0.0134 0.04 -0.0115 0.0409 -0.0094 0.0415 -0.0075 0.0423 -0.0054 0.0429 -0.0033 0.0464 -0.0012 0.1984 0zm-1.0498 4.2174c0.341,0.0219 0.6822,0.0463 1.025,0.0945 -0.0113,0.7234 -0.0203,1.4468 -0.0339,2.1691 -0.3306,-0.0316 -0.6611,-0.0478 -0.9911,-0.0617l0 -2.2019zm0 4.4084c0.3236,0.007 0.6484,0.0157 0.9741,0.031 -0.0022,0.7279 -0.0034,1.4524 -0.0034,2.1769 -0.1138,-0.0006 -0.2272,-0.0009 -0.3406,-0.001l-0.0327 -0.0094 -0.0393 -0.0133 -0.0384 -0.0153 -0.0376 -0.017 -0.0365 -0.0188 -0.0356 -0.0205 -0.0344 -0.0222 -0.0334 -0.0238 -0.0322 -0.0253 -0.0309 -0.0267 -0.0296 -0.0283 -0.0283 -0.0297 -0.0268 -0.0309 -0.0253 -0.0321 -0.0238 -0.0334 -0.0222 -0.0345 -0.0204 -0.0355 -0.0188 -0.0366 -0.0171 -0.0375 -0.0152 -0.0385 -0.0134 -0.0392 -0.0114 -0.0401 -0.0095 -0.0408 -0.0075 -0.0416 -0.0054 -0.0422 -0.0032 -0.0429 -0.0012 -0.0465 0 -1.3843zm2.3352 -8.1376c0.4266,0.2934 0.8542,0.6179 1.2819,1.0235 -0.0011,0.6256 -0.0034,1.249 -0.0056,1.8712 -0.4277,-0.3244 -0.8554,-0.5845 -1.282,-0.8189 0.0012,-0.6912 0.0046,-1.3824 0.0057,-2.0758zm-0.0226 4.1438c0.4276,0.1767 0.8553,0.3722 1.2853,0.6167 -0.0091,0.6201 -0.017,1.2423 -0.0249,1.8624 -0.4311,-0.1644 -0.861,-0.2956 -1.2898,-0.4145 0.0113,-0.6878 0.0192,-1.3768 0.0294,-2.0646zm-0.0453 4.1337c0.43,0.0611 0.8599,0.1278 1.2921,0.2111 -0.0034,0.6245 -0.0045,1.2457 -0.0045,1.868 -0.4311,-0.0033 -0.861,-0.0056 -1.2921,-0.0078 0,-0.69 0.0011,-1.379 0.0045,-2.0713zm2.6294 -5.7661c0.4243,0.5678 0.8509,1.1412 1.2797,1.7146 -0.0012,0.4123 -0.0023,0.8234 -0.0034,1.2335 -0.4277,-0.4579 -0.8554,-0.9168 -1.2808,-1.3713 0.0011,-0.5267 0.0034,-1.0512 0.0045,-1.5768zm-0.0147 3.1447c0.4266,0.3423 0.8543,0.6879 1.283,1.0324 -0.0067,0.4089 -0.0101,0.8178 -0.0158,1.2257 -0.4299,-0.2312 -0.8599,-0.4612 -1.2887,-0.6901 0.0079,-0.5223 0.0136,-1.0446 0.0215,-1.568zm-0.0316 3.1415c0.4299,0.1156 0.8598,0.2311 1.2909,0.3489 -0.0011,0.4093 -0.0011,0.8187 -0.0011,1.2269l-0.3166 0c-0.3255,-0.0019 -0.6508,-0.0032 -0.9755,-0.0057 0,-0.5234 0.0011,-1.0467 0.0023,-1.5701zm2.6056 -2.9592c0.4265,0.4467 0.8542,0.8079 1.2841,1.1334 -0.0011,0.2289 -0.0011,0.4579 -0.0011,0.6868 -0.4299,-0.2612 -0.8576,-0.5501 -1.2841,-0.9079 0.0011,-0.3034 0.0011,-0.6067 0.0011,-0.9123zm-0.0057 1.8202c0.4277,0.27 0.8554,0.4878 1.2853,0.6823 -0.0022,0.2289 -0.0045,0.4567 -0.0068,0.6856 -0.431,-0.1323 -0.861,-0.28 -1.2909,-0.4601 0.0045,-0.3022 0.0079,-0.6045 0.0124,-0.9078zm-0.0169 1.819c0.431,0.0923 0.861,0.1656 1.2909,0.2334l0 0.6624 -1.2921 0c0,-0.2979 0.0001,-0.5968 0.0012,-0.8958zm2.592 -1.8913c0.2789,0.084 0.557,0.1439 0.8362,0.1954l0 0.5252c-0.2795,-0.041 -0.5584,-0.0895 -0.8373,-0.1561 0,-0.1889 0,-0.3767 0.0011,-0.5645zm-0.0022 1.1257c0.2791,0.0508 0.5582,0.0863 0.8384,0.1171l0 0.5239c-0.2813,-0.0215 -0.5623,-0.0453 -0.8418,-0.0787 0.0011,-0.1856 0.0022,-0.3734 0.0034,-0.5623zm-0.0057 1.1246c0.2558,0.0163 0.5123,0.0268 0.7683,0.0366l-0.0081 0.018 -0.0189 0.0365 -0.0205 0.0356 -0.0221 0.0345 -0.0238 0.0334 -0.0253 0.0321 -0.0268 0.031 -0.0283 0.0296 -0.0296 0.0282 -0.0309 0.0268 -0.0322 0.0254 -0.0334 0.0237 -0.0344 0.0222 -0.0356 0.0205 -0.0365 0.0188 -0.0376 0.017 -0.0384 0.0152 -0.0393 0.0134 -0.04 0.0114 -0.0409 0.0095 -0.0416 0.0075 -0.0421 0.0054 -0.0429 0.0033 -0.0391 0.001 0 -0.5366z"/>
 </g>
</svg>
