<?xml version="1.0" encoding="UTF-8" standalone="no"?>
<!-- Generator: Adobe InDesign 4.0 SVG Export Plug-in, SVG Library version: 6.0 build 159 -->

<svg
   xmlns:dc="http://purl.org/dc/elements/1.1/"
   xmlns:cc="http://creativecommons.org/ns#"
   xmlns:rdf="http://www.w3.org/1999/02/22-rdf-syntax-ns#"
   xmlns:svg="http://www.w3.org/2000/svg"
   xmlns="http://www.w3.org/2000/svg"
   xmlns:sodipodi="http://sodipodi.sourceforge.net/DTD/sodipodi-0.dtd"
   xmlns:inkscape="http://www.inkscape.org/namespaces/inkscape"
   width="222"
   height="222"
   xml:space="preserve"
   id="svg2"
   version="1.1"
   inkscape:version="0.91 r13725"
   sodipodi:docname="signet.svg"><metadata
     id="metadata22"><rdf:RDF><cc:Work
         rdf:about=""><dc:format>image/svg+xml</dc:format><dc:type
           rdf:resource="http://purl.org/dc/dcmitype/StillImage" /><dc:title></dc:title></cc:Work></rdf:RDF></metadata><defs
     id="defs20" /><sodipodi:namedview
     pagecolor="#000000"
     bordercolor="#666666"
     borderopacity="1"
     objecttolerance="10"
     gridtolerance="10"
     guidetolerance="10"
     inkscape:pageopacity="0"
     inkscape:pageshadow="2"
     inkscape:window-width="1920"
     inkscape:window-height="1056"
     id="namedview18"
     showgrid="false"
     units="px"
     inkscape:zoom="2.38396"
     inkscape:cx="133.50986"
     inkscape:cy="103.23744"
     inkscape:window-x="1920"
     inkscape:window-y="24"
     inkscape:window-maximized="1"
     inkscape:current-layer="svg2"
     inkscape:showpageshadow="false"
     showborder="true"
     borderlayer="false" /><clipPath
     id="clp1"
     style="fill:none"><path
       d="m 0,0 227,0 0,224 -227,0 z"
       id="path5"
       inkscape:connector-curvature="0"
       style="stroke:#ffffff;shape-rendering:crispEdges" /></clipPath><g
     clip-path="url(#clp1)"
     id="signet"
     style="fill:none"
     transform="matrix(0.990258,0,0,1,-1.7983085,-1)"
     inkscape:export-xdpi="30.809999"
     inkscape:export-ydpi="30.809999"><clipPath
       id="clp2"><path
         d="M 1,1 1,223 226,223 226,1 1,1 Z"
         id="path10"
         inkscape:connector-curvature="0"
         style="stroke:#ffffff;shape-rendering:crispEdges" /></clipPath><g
       clip-path="url(#clp2)"
       id="g12"><g
         transform="matrix(3,0,0,-3,-1154,2068)"
         id="g14"><path
           d="m 455.76,688.608 c 2.448,-1.08 4.248,-3.6 4.248,-6.48 l 0,-60.48 c 0,-2.88 -1.8,-5.4 -4.248,-6.48 l 0,1.656 0,0.072 0.288,0.144 0.216,0.144 0.216,0.144 0.144,0.216 0.216,0.144 0.216,0.216 0.144,0.216 0.144,0.216 0.216,0.216 0.144,0.216 0.144,0.216 0.072,0.216 0.072,0.144 c -0.72,0 -1.512,0.072 -2.232,0.072 l 0,3.6 c 0.864,-0.072 1.8,-0.144 2.736,-0.216 l 0,3.456 c -0.936,0.072 -1.872,0.216 -2.736,0.288 l 0,3.6 c 0.864,-0.144 1.8,-0.288 2.736,-0.432 l 0,3.456 c -0.936,0.144 -1.872,0.36 -2.736,0.576 l 0,54.864 z m -7.056,0.648 4.176,0 c 1.008,0 2.016,-0.216 2.88,-0.648 l 0,-54.864 c -0.936,0.216 -1.872,0.432 -2.808,0.72 0,-1.224 0,-2.52 0,-3.744 0.936,-0.216 1.872,-0.432 2.808,-0.576 l 0,-3.6 c -0.936,0.144 -1.872,0.288 -2.808,0.504 0,-1.296 0,-2.52 0,-3.744 0.936,-0.144 1.872,-0.216 2.808,-0.288 l 0,-3.6 c -0.936,0.072 -1.872,0.144 -2.808,0.144 l 0,-3.528 0.216,0 0.288,0.072 0.288,0 0.288,0.072 0.288,0.072 0.216,0.072 0.288,0.072 0.216,0.072 0.288,0.144 0.216,0.144 0.216,0.072 0,-1.656 c -0.864,-0.432 -1.872,-0.648 -2.88,-0.648 l -4.176,0 0,5.4 c 1.44,-0.072 2.808,-0.216 4.248,-0.36 0,1.296 0,2.52 0,3.744 -1.44,0.216 -2.808,0.432 -4.248,0.72 l 0,4.104 c 1.44,-0.432 2.808,-0.792 4.248,-1.08 0,1.224 0,2.448 0,3.672 -1.368,0.432 -2.808,0.864 -4.248,1.44 l 0,57.096 z m -8.424,0 8.424,0 0,-57.096 c -1.368,0.576 -2.808,1.152 -4.248,1.8 0,-1.512 0,-3.024 0,-4.464 1.44,-0.504 2.808,-1.008 4.248,-1.368 l 0,-4.104 c -1.44,0.288 -2.88,0.576 -4.32,0.936 0,-1.512 0,-3.024 0,-4.536 1.44,-0.144 2.88,-0.36 4.32,-0.504 l 0,-5.4 -8.424,0 0,1.512 4.104,0 0,4.392 c -1.368,0.216 -2.736,0.432 -4.104,0.72 l 0,5.184 c 1.368,-0.504 2.736,-0.936 4.104,-1.368 0.072,1.512 0.072,3.024 0.072,4.536 -1.368,0.576 -2.808,1.296 -4.176,2.016 l 0,5.184 c 1.368,-0.936 2.808,-1.872 4.176,-2.736 0,1.512 0,3.024 0,4.536 -1.368,1.08 -2.808,2.232 -4.176,3.456 l 0,47.304 z m -8.496,0 8.496,0 0,-47.304 c -1.44,1.224 -2.88,2.52 -4.248,4.032 0,-2.016 0,-4.032 0,-6.048 1.368,-1.152 2.808,-2.232 4.248,-3.24 l 0,-5.184 c -1.44,0.72 -2.88,1.584 -4.32,2.448 0,-2.016 0,-3.96 -0.072,-5.976 1.44,-0.648 2.88,-1.152 4.392,-1.656 l 0,-5.184 c -1.512,0.216 -2.952,0.504 -4.392,0.792 0,-1.944 0,-3.888 0,-5.904 l 4.392,0 0,-1.512 -8.496,0 0,8.496 c 1.368,-0.36 2.736,-0.72 4.104,-1.08 0,2.016 0,4.032 0,6.048 -1.368,0.648 -2.736,1.368 -4.104,2.016 l 0,7.128 c 1.368,-1.08 2.808,-2.16 4.176,-3.168 0,2.016 0.072,4.032 0.072,5.976 -1.44,1.368 -2.88,2.808 -4.248,4.248 l 0,45.072 z m -8.424,0 8.424,0 0,-45.072 c -1.44,1.44 -2.808,2.88 -4.248,4.32 0,-2.736 0,-5.4 -0.072,-8.136 1.44,-1.08 2.88,-2.16 4.32,-3.24 l 0,-7.128 c -1.512,0.792 -2.952,1.512 -4.392,2.304 0,-2.736 -0.072,-5.472 -0.072,-8.136 1.512,-0.432 2.952,-0.792 4.464,-1.152 l 0,-8.496 -8.424,0 0,1.512 1.872,0 2.088,0 c 0,2.736 0,5.4 0,8.136 -1.296,0.36 -2.664,0.72 -3.96,1.08 l 0,9.216 c 1.296,-0.72 2.664,-1.44 4.032,-2.16 0,2.664 0.072,5.4 0.072,8.064 -1.368,1.152 -2.736,2.232 -4.104,3.384 l 0,9.216 4.176,-4.464 c 0,2.664 0,5.4 0,8.136 -1.368,1.872 -2.808,3.744 -4.176,5.688 l 0,26.928 z m -8.568,0 8.568,0 0,-26.928 c -1.44,1.872 -2.808,3.744 -4.248,5.616 0,-3.456 0,-6.912 0,-10.44 1.368,-1.44 2.808,-2.952 4.248,-4.536 l 0,-9.216 c -1.44,1.152 -2.88,2.304 -4.32,3.456 -0.072,-3.456 -0.072,-6.912 -0.144,-10.368 1.44,-0.792 2.952,-1.584 4.464,-2.376 l 0,-9.216 c -1.512,0.36 -3.024,0.792 -4.536,1.224 0,-3.456 0,-6.912 0,-10.368 1.512,0 3.024,-0.072 4.536,-0.072 l 0,-1.512 -8.568,0 0,12.96 c 1.368,-0.36 2.664,-0.648 4.032,-1.008 0,3.456 0,6.912 0.072,10.368 -1.368,0.72 -2.736,1.368 -4.104,2.016 l 0,11.376 c 1.44,-0.936 2.808,-1.944 4.248,-3.024 0,3.384 0.072,6.84 0.072,10.296 -1.44,1.512 -2.88,2.88 -4.32,4.176 l 0,27.576 z m -8.352,0 8.352,0 0,-27.576 c -1.368,1.296 -2.736,2.52 -4.176,3.744 0,-4.104 0,-8.208 -0.072,-12.312 1.44,-0.936 2.88,-1.872 4.248,-2.88 l 0,-11.376 c -1.44,0.648 -2.952,1.296 -4.392,1.944 -0.072,-4.104 -0.072,-8.208 -0.072,-12.312 1.44,-0.36 2.952,-0.648 4.464,-1.008 l 0,-12.96 -8.352,0 0,1.656 c 1.296,0 2.52,0 3.816,0 0,4.104 0,8.208 0.072,12.312 -1.296,0.216 -2.592,0.504 -3.888,0.72 l 0,12.96 c 1.296,-0.432 2.592,-0.864 3.96,-1.368 0.072,4.104 0.072,8.208 0.144,12.312 -1.368,0.792 -2.736,1.44 -4.104,2.16 l 0,13.032 c 1.368,-0.864 2.808,-1.8 4.176,-2.88 0.072,4.104 0.072,8.208 0.072,12.312 -1.44,1.368 -2.88,2.592 -4.248,3.672 l 0,7.848 z m -8.568,0 8.568,0 0,-7.848 c -1.44,1.152 -2.808,2.16 -4.248,3.096 0,-4.536 0,-9.144 0,-13.68 1.368,-0.792 2.808,-1.584 4.248,-2.52 l 0,-13.032 c -1.44,0.648 -2.952,1.296 -4.392,1.872 -0.072,-4.536 -0.072,-9.072 -0.144,-13.608 1.512,-0.432 3.024,-0.864 4.536,-1.368 l 0,-12.96 c -1.584,0.216 -3.096,0.432 -4.68,0.648 0,-4.536 0,-9.072 0,-13.68 l 4.68,0 0,-1.656 -8.568,0 0,15.768 c 1.296,-0.144 2.592,-0.288 3.888,-0.432 0,4.608 0.072,9.144 0.144,13.68 -1.368,0.288 -2.736,0.504 -4.032,0.792 l 0,14.04 c 1.368,-0.36 2.808,-0.792 4.176,-1.224 0.072,4.536 0.072,9.144 0.144,13.68 -1.44,0.576 -2.88,1.152 -4.32,1.584 l 0,16.848 z m -5.472,0 5.472,0 0,-16.848 c -1.368,0.504 -2.808,0.864 -4.176,1.224 0,-4.824 -0.072,-9.576 -0.144,-14.328 1.44,-0.288 2.88,-0.576 4.32,-0.936 l 0,-14.04 c -1.512,0.216 -3.024,0.432 -4.536,0.648 -0.072,-4.824 -0.072,-9.576 -0.072,-14.4 1.512,-0.072 3.024,-0.216 4.608,-0.288 l 0,-15.768 -5.472,0 c -0.72,0 -1.44,0.144 -2.16,0.36 l 0,1.584 0.216,-0.072 0.288,-0.072 0.216,-0.072 c 0.72,0 1.512,0 2.232,0 0,4.752 0,9.576 0.072,14.328 -1.008,0.072 -2.016,0.144 -3.024,0.144 l 0,14.472 c 1.08,-0.072 2.088,-0.144 3.096,-0.216 0.072,4.752 0.144,9.504 0.216,14.328 -1.08,0.144 -2.16,0.216 -3.312,0.36 l 0,14.472 c 1.152,-0.144 2.304,-0.288 3.456,-0.504 0,4.68 0,9.432 0,14.112 l -1.296,0 -0.288,0 -0.288,0 -0.288,-0.072 -0.288,-0.072 -0.216,0 -0.288,-0.072 -0.288,-0.144 -0.216,-0.072 0,1.584 c 0.72,0.216 1.44,0.36 2.16,0.36 z m -2.16,-74.376 c -2.808,0.936 -4.968,3.6 -4.968,6.768 l 0,60.48 c 0,3.168 2.16,5.832 4.968,6.768 l 0,-1.584 0,0 -0.288,-0.144 -0.216,-0.072 -0.216,-0.144 -0.216,-0.144 -0.216,-0.216 -0.216,-0.144 -0.216,-0.144 -0.216,-0.216 -0.216,-0.216 -0.144,-0.144 -0.144,-0.216 -0.144,-0.216 -0.216,-0.288 -0.072,-0.216 -0.144,-0.216 -0.144,-0.288 -0.072,-0.216 -0.072,-0.288 -0.072,-0.216 -0.072,-0.288 -0.072,-0.288 0,-0.288 -0.072,-0.288 0,-0.288 0,-7.632 c 1.152,-0.144 2.304,-0.216 3.456,-0.36 l 0,-14.472 c -1.152,0.072 -2.304,0.144 -3.456,0.216 l 0,-14.544 c 1.152,0 2.304,-0.072 3.456,-0.144 l 0,-14.472 c -1.152,0 -2.304,0.072 -3.456,0.072 l 0,-9.144 0,-0.288 0.072,-0.288 0,-0.288 0.072,-0.288 0.072,-0.216 0.072,-0.288 0.072,-0.288 0.072,-0.216 0.144,-0.288 0.144,-0.216 0.072,-0.216 0.216,-0.216 0.144,-0.216 0.144,-0.216 0.144,-0.216 0.216,-0.216 0.216,-0.144 0.216,-0.216 0.216,-0.144 0.216,-0.144 0.216,-0.144 0.216,-0.144 0.216,-0.144 0.288,-0.144 0,0 0,-1.584 z"
           id="path16"
           inkscape:connector-curvature="0"
           style="fill:#ffffff;fill-rule:evenodd" /></g></g></g></svg>
