<?xml version="1.0" encoding="utf-8"?>
<!-- Generator: Adobe InDesign 4.0 SVG Export Plug-in, SVG Library version: 6.0 build 159 -->
<!DOCTYPE svg PUBLIC "-//W3C//DTD SVG 1.0//EN"    "http://www.w3.org/TR/SVG/DTD/svg10.dtd" [
	<!ENTITY ns_svg "http://www.w3.org/2000/svg">
	<!ENTITY ns_xlink "http://www.w3.org/1999/xlink">
]>
<svg  xmlns="&ns_svg;" xmlns:xlink="&ns_xlink;" width="227pt" height="224pt" xml:space="preserve">
<clipPath id="clp1" fill="none">
	<path shape-rendering="crispEdges" stroke="#000000" d="M0,0h227v224H0z"/>
</clipPath>
<g clip-path="url(#clp1)" fill="none">
	<clipPath id="clp2">
		<path shape-rendering="crispEdges" stroke="#000000" d="M1,1v222h225V1H1z"/>
	</clipPath>
	<g clip-path="url(#clp2)">
		<g transform="matrix(3 0 0 -3 -1154 2068)">
			<path fill-rule="evenodd" fill="#000000" d="M455.76,688.608c2.448-1.08,4.248-3.6,4.248-6.48v-60.48c0-2.88-1.8-5.4-4.248-6.48
				v1.656v0.072l0.288,0.144l0.216,0.144l0.216,0.144l0.144,0.216l0.216,0.144l0.216,0.216l0.144,0.216l0.144,0.216l0.216,0.216
				l0.144,0.216l0.144,0.216l0.072,0.216l0.072,0.144c-0.72,0-1.512,0.072-2.232,0.072v3.6c0.864-0.072,1.8-0.144,2.736-0.216v3.456
				c-0.936,0.072-1.872,0.216-2.736,0.288v3.6c0.864-0.144,1.8-0.288,2.736-0.432v3.456c-0.936,0.144-1.872,0.36-2.736,0.576
				V688.608z M448.704,689.256h4.176c1.008,0,2.016-0.216,2.88-0.648v-54.864c-0.936,0.216-1.872,0.432-2.808,0.72
				c0-1.224,0-2.52,0-3.744c0.936-0.216,1.872-0.432,2.808-0.576v-3.6c-0.936,0.144-1.872,0.288-2.808,0.504c0-1.296,0-2.52,0-3.744
				c0.936-0.144,1.872-0.216,2.808-0.288v-3.6c-0.936,0.072-1.872,0.144-2.808,0.144v-3.528h0.216l0.288,0.072h0.288l0.288,0.072
				l0.288,0.072l0.216,0.072l0.288,0.072l0.216,0.072l0.288,0.144l0.216,0.144l0.216,0.072v-1.656
				c-0.864-0.432-1.872-0.648-2.88-0.648h-4.176v5.4c1.44-0.072,2.808-0.216,4.248-0.36c0,1.296,0,2.52,0,3.744
				c-1.44,0.216-2.808,0.432-4.248,0.72v4.104c1.44-0.432,2.808-0.792,4.248-1.08c0,1.224,0,2.448,0,3.672
				c-1.368,0.432-2.808,0.864-4.248,1.44V689.256z M440.28,689.256h8.424V632.16c-1.368,0.576-2.808,1.152-4.248,1.8
				c0-1.512,0-3.024,0-4.464c1.44-0.504,2.808-1.008,4.248-1.368v-4.104c-1.44,0.288-2.88,0.576-4.32,0.936c0-1.512,0-3.024,0-4.536
				c1.44-0.144,2.88-0.36,4.32-0.504v-5.4h-8.424v1.512h4.104v4.392c-1.368,0.216-2.736,0.432-4.104,0.72v5.184
				c1.368-0.504,2.736-0.936,4.104-1.368c0.072,1.512,0.072,3.024,0.072,4.536c-1.368,0.576-2.808,1.296-4.176,2.016v5.184
				c1.368-0.936,2.808-1.872,4.176-2.736c0,1.512,0,3.024,0,4.536c-1.368,1.08-2.808,2.232-4.176,3.456V689.256z M431.784,689.256
				h8.496v-47.304c-1.44,1.224-2.88,2.52-4.248,4.032c0-2.016,0-4.032,0-6.048c1.368-1.152,2.808-2.232,4.248-3.24v-5.184
				c-1.44,0.72-2.88,1.584-4.32,2.448c0-2.016,0-3.96-0.072-5.976c1.44-0.648,2.88-1.152,4.392-1.656v-5.184
				c-1.512,0.216-2.952,0.504-4.392,0.792c0-1.944,0-3.888,0-5.904h4.392v-1.512h-8.496v8.496c1.368-0.36,2.736-0.72,4.104-1.08
				c0,2.016,0,4.032,0,6.048c-1.368,0.648-2.736,1.368-4.104,2.016v7.128c1.368-1.08,2.808-2.16,4.176-3.168
				c0,2.016,0.072,4.032,0.072,5.976c-1.44,1.368-2.88,2.808-4.248,4.248V689.256z M423.36,689.256h8.424v-45.072
				c-1.44,1.44-2.808,2.88-4.248,4.32c0-2.736,0-5.4-0.072-8.136c1.44-1.08,2.88-2.16,4.32-3.24V630
				c-1.512,0.792-2.952,1.512-4.392,2.304c0-2.736-0.072-5.472-0.072-8.136c1.512-0.432,2.952-0.792,4.464-1.152v-8.496h-8.424
				v1.512h1.872h2.088c0,2.736,0,5.4,0,8.136c-1.296,0.36-2.664,0.72-3.96,1.08v9.216c1.296-0.72,2.664-1.44,4.032-2.16
				c0,2.664,0.072,5.4,0.072,8.064c-1.368,1.152-2.736,2.232-4.104,3.384v9.216l4.176-4.464c0,2.664,0,5.4,0,8.136
				c-1.368,1.872-2.808,3.744-4.176,5.688V689.256z M414.792,689.256h8.568v-26.928c-1.44,1.872-2.808,3.744-4.248,5.616
				c0-3.456,0-6.912,0-10.44c1.368-1.44,2.808-2.952,4.248-4.536v-9.216c-1.44,1.152-2.88,2.304-4.32,3.456
				c-0.072-3.456-0.072-6.912-0.144-10.368c1.44-0.792,2.952-1.584,4.464-2.376v-9.216c-1.512,0.36-3.024,0.792-4.536,1.224
				c0-3.456,0-6.912,0-10.368c1.512,0,3.024-0.072,4.536-0.072v-1.512h-8.568v12.96c1.368-0.36,2.664-0.648,4.032-1.008
				c0,3.456,0,6.912,0.072,10.368c-1.368,0.72-2.736,1.368-4.104,2.016v11.376c1.44-0.936,2.808-1.944,4.248-3.024
				c0,3.384,0.072,6.84,0.072,10.296c-1.44,1.512-2.88,2.88-4.32,4.176V689.256z M406.44,689.256h8.352V661.68
				c-1.368,1.296-2.736,2.52-4.176,3.744c0-4.104,0-8.208-0.072-12.312c1.44-0.936,2.88-1.872,4.248-2.88v-11.376
				c-1.44,0.648-2.952,1.296-4.392,1.944c-0.072-4.104-0.072-8.208-0.072-12.312c1.44-0.36,2.952-0.648,4.464-1.008v-12.96h-8.352
				v1.656c1.296,0,2.52,0,3.816,0c0,4.104,0,8.208,0.072,12.312c-1.296,0.216-2.592,0.504-3.888,0.72v12.96
				c1.296-0.432,2.592-0.864,3.96-1.368c0.072,4.104,0.072,8.208,0.144,12.312c-1.368,0.792-2.736,1.44-4.104,2.16v13.032
				c1.368-0.864,2.808-1.8,4.176-2.88c0.072,4.104,0.072,8.208,0.072,12.312c-1.44,1.368-2.88,2.592-4.248,3.672V689.256z
				 M397.872,689.256h8.568v-7.848c-1.44,1.152-2.808,2.16-4.248,3.096c0-4.536,0-9.144,0-13.68c1.368-0.792,2.808-1.584,4.248-2.52
				v-13.032c-1.44,0.648-2.952,1.296-4.392,1.872c-0.072-4.536-0.072-9.072-0.144-13.608c1.512-0.432,3.024-0.864,4.536-1.368
				v-12.96c-1.584,0.216-3.096,0.432-4.68,0.648c0-4.536,0-9.072,0-13.68h4.68v-1.656h-8.568v15.768
				c1.296-0.144,2.592-0.288,3.888-0.432c0,4.608,0.072,9.144,0.144,13.68c-1.368,0.288-2.736,0.504-4.032,0.792v14.04
				c1.368-0.36,2.808-0.792,4.176-1.224c0.072,4.536,0.072,9.144,0.144,13.68c-1.44,0.576-2.88,1.152-4.32,1.584V689.256z
				 M392.4,689.256h5.472v-16.848c-1.368,0.504-2.808,0.864-4.176,1.224c0-4.824-0.072-9.576-0.144-14.328
				c1.44-0.288,2.88-0.576,4.32-0.936v-14.04c-1.512,0.216-3.024,0.432-4.536,0.648c-0.072-4.824-0.072-9.576-0.072-14.4
				c1.512-0.072,3.024-0.216,4.608-0.288V614.52H392.4c-0.72,0-1.44,0.144-2.16,0.36v1.584l0.216-0.072l0.288-0.072l0.216-0.072
				c0.72,0,1.512,0,2.232,0c0,4.752,0,9.576,0.072,14.328c-1.008,0.072-2.016,0.144-3.024,0.144v14.472
				c1.08-0.072,2.088-0.144,3.096-0.216c0.072,4.752,0.144,9.504,0.216,14.328c-1.08,0.144-2.16,0.216-3.312,0.36v14.472
				c1.152-0.144,2.304-0.288,3.456-0.504c0,4.68,0,9.432,0,14.112H392.4h-0.288h-0.288l-0.288-0.072l-0.288-0.072h-0.216
				l-0.288-0.072l-0.288-0.144l-0.216-0.072v1.584C390.96,689.112,391.68,689.256,392.4,689.256z M390.24,614.88
				c-2.808,0.936-4.968,3.6-4.968,6.768v60.48c0,3.168,2.16,5.832,4.968,6.768v-1.584l0,0l-0.288-0.144l-0.216-0.072l-0.216-0.144
				l-0.216-0.144l-0.216-0.216l-0.216-0.144l-0.216-0.144l-0.216-0.216l-0.216-0.216l-0.144-0.144l-0.144-0.216l-0.144-0.216
				l-0.216-0.288l-0.072-0.216l-0.144-0.216l-0.144-0.288l-0.072-0.216l-0.072-0.288L387,683.568l-0.072-0.288l-0.072-0.288v-0.288
				l-0.072-0.288v-0.288v-7.632c1.152-0.144,2.304-0.216,3.456-0.36v-14.472c-1.152,0.072-2.304,0.144-3.456,0.216v-14.544
				c1.152,0,2.304-0.072,3.456-0.144V630.72c-1.152,0-2.304,0.072-3.456,0.072v-9.144v-0.288l0.072-0.288v-0.288l0.072-0.288
				L387,620.28l0.072-0.288l0.072-0.288l0.072-0.216l0.144-0.288l0.144-0.216l0.072-0.216l0.216-0.216l0.144-0.216l0.144-0.216
				l0.144-0.216l0.216-0.216l0.216-0.144l0.216-0.216l0.216-0.144l0.216-0.144l0.216-0.144l0.216-0.144l0.216-0.144l0.288-0.144l0,0
				V614.88z"/>
		</g>
	</g>
</g>
</svg>
