<?xml version="1.0" encoding="utf-8"?>
<!-- Generator: Adobe InDesign 4.0 SVG Export Plug-in, SVG Library version: 6.0 build 159 -->
<!DOCTYPE svg PUBLIC "-//W3C//DTD SVG 1.0//EN"    "http://www.w3.org/TR/SVG/DTD/svg10.dtd" [
	<!ENTITY ns_svg "http://www.w3.org/2000/svg">
	<!ENTITY ns_xlink "http://www.w3.org/1999/xlink">
]>
<svg  xmlns="&ns_svg;" xmlns:xlink="&ns_xlink;" width="142pt" height="140pt" xml:space="preserve">
<clipPath id="clp1" fill="none">
	<path shape-rendering="crispEdges" stroke="#000000" d="M0,0h142v140H0z"/>
</clipPath>
<g clip-path="url(#clp1)" fill="none">
	<clipPath id="clp2">
		<path shape-rendering="crispEdges" stroke="#000000" d="M1,1v138h140V1H1z"/>
	</clipPath>
	<g clip-path="url(#clp2)">
		<g transform="matrix(2 0 0 -2 -675 751)">
			<path fill-rule="evenodd" fill="#000000" d="M372.96,375.408c10.44,0,20.736-4.68,27.648-13.536
				c4.464-5.76,6.84-12.528,7.2-19.296v-4.104c-0.576-9.72-5.184-19.152-13.464-25.632c-6.408-4.896-13.896-7.272-21.384-7.272
				v3.744c6.624,0,13.392,2.16,19.08,6.552c13.608,10.512,16.128,30.096,5.544,43.704c-6.12,7.92-15.336,12.096-24.624,12.096
				V375.408L372.96,375.408z M372.96,337.896c10.152,0.072,15.264,4.608,15.264,13.608c-0.072,7.848-5.112,11.808-15.264,11.952
				v-6.48c5.112-0.144,7.704-1.944,7.704-5.544c0-4.68-2.52-7.056-7.704-7.056V337.896z M368.856,375.192
				c1.368,0.144,2.736,0.216,4.104,0.216v-3.744c-1.368,0-2.736-0.072-4.104-0.288V375.192L368.856,375.192z M372.96,305.568
				c-1.368,0-2.736,0.072-4.104,0.216v3.816c1.368-0.144,2.736-0.288,4.104-0.288V305.568L372.96,305.568z M372.96,363.456v-6.48
				c-0.216,0-0.432,0-0.648,0c-1.152,0-2.304-0.072-3.456-0.144v6.48c1.152,0.072,2.304,0.144,3.456,0.144
				C372.528,363.456,372.744,363.456,372.96,363.456L372.96,363.456z M372.96,344.376v-6.48h-0.072v-7.056h-4.032v13.536h3.96
				H372.96L372.96,344.376z M368.856,319.392v7.56h4.032l0.072-7.488L368.856,319.392z M351.576,368.136
				c5.184,4.032,11.16,6.336,17.28,7.056v-3.816c-5.328-0.648-10.44-2.736-14.976-6.192c-13.608-10.584-16.128-30.168-5.616-43.776
				c5.256-6.768,12.744-10.728,20.592-11.808v-3.816c-9,1.08-17.568,5.616-23.544,13.32c-4.464,5.76-6.84,12.528-7.272,19.296v4.176
				C338.616,352.296,343.296,361.728,351.576,368.136L351.576,368.136z M368.856,363.312c-2.88-0.216-5.832-0.72-8.856-1.44
				l0.072-6.48c3.024,0.72,5.904,1.224,8.784,1.44V363.312L368.856,363.312z M368.856,344.376l-4.176-0.072l0.072-13.536
				l4.104,0.072V344.376L368.856,344.376z M368.856,326.952h-4.104v-7.56h4.104V326.952z"/>
		</g>
	</g>
</g>
</svg>
