<?xml version="1.0" encoding="utf-8"?>
<!-- Generator: Adobe InDesign 4.0 SVG Export Plug-in, SVG Library version: 6.0 build 159 -->
<!DOCTYPE svg PUBLIC "-//W3C//DTD SVG 1.0//EN"    "http://www.w3.org/TR/SVG/DTD/svg10.dtd" [
	<!ENTITY ns_svg "http://www.w3.org/2000/svg">
	<!ENTITY ns_xlink "http://www.w3.org/1999/xlink">
]>
<svg  xmlns="&ns_svg;" xmlns:xlink="&ns_xlink;" width="224pt" height="227pt" xml:space="preserve">
<clipPath id="clp1" fill="none">
	<path shape-rendering="crispEdges" stroke="#000000" d="M0,0h224v227H0z"/>
</clipPath>
<g clip-path="url(#clp1)" fill="none">
	<clipPath id="clp2">
		<path shape-rendering="crispEdges" stroke="#000000" d="M1,1v225h222V1H1z"/>
	</clipPath>
	<g clip-path="url(#clp2)">
		<g transform="matrix(3 0 0 -3 -860 2071)">
			<path fill-rule="evenodd" fill="#000000" d="M356.904,689.112c2.52-1.08,4.248-3.6,4.248-6.48v-60.48
				c0-2.88-1.728-5.4-4.248-6.552v1.728h0.072l0.216,0.144l0.216,0.144l0.216,0.216l0.216,0.144l0.144,0.216l0.216,0.216
				l0.144,0.144l0.216,0.216v0.072c-0.576,0.072-1.08,0.072-1.656,0.072v2.592c0.864-0.072,1.8-0.144,2.664-0.216l0.072,0.288v0.288
				v0.288v1.584c-0.936,0.072-1.8,0.216-2.736,0.288v2.592c0.936-0.144,1.8-0.288,2.736-0.432v2.448
				c-0.936,0.216-1.8,0.36-2.736,0.504V689.112z M349.848,689.688h4.176c1.008,0,2.016-0.216,2.88-0.576v-59.976
				c-0.936,0.216-1.872,0.36-2.736,0.648c-0.072-0.936-0.072-1.8-0.072-2.736c0.936-0.144,1.872-0.288,2.808-0.432v-2.592
				c-0.936,0.144-1.872,0.216-2.808,0.36c0-0.864,0-1.8,0-2.664c0.936-0.072,1.872-0.144,2.808-0.216v-2.592
				c-0.936,0.072-1.872,0.072-2.808,0.144v-2.52h0.216h0.288l0.288,0.072l0.288,0.072h0.288l0.216,0.072l0.288,0.144l0.288,0.072
				l0.216,0.144l0.216,0.072l0.216,0.144V615.6c-0.864-0.36-1.872-0.576-2.88-0.576h-4.176v4.32c1.44-0.144,2.808-0.216,4.248-0.288
				c0,0.864,0,1.8,0,2.664c-1.44,0.144-2.808,0.36-4.248,0.576v2.952c1.44-0.288,2.88-0.576,4.248-0.864c0,0.936,0,1.8,0,2.664
				c-1.368,0.36-2.808,0.72-4.248,1.152V689.688z M341.424,689.688h8.424V628.2c-1.368,0.432-2.808,0.936-4.176,1.44
				c0-1.08-0.072-2.232-0.072-3.312c1.44-0.36,2.88-0.72,4.248-1.08v-2.952c-1.44,0.216-2.808,0.432-4.248,0.72
				c-0.072-1.08-0.072-2.232-0.072-3.312c1.44-0.144,2.88-0.288,4.32-0.36v-4.32h-8.424v1.512h4.104v3.168
				c-1.368,0.144-2.736,0.36-4.104,0.504v3.888c1.368-0.36,2.736-0.72,4.176-1.08c0,1.08,0,2.232,0,3.312
				c-1.368,0.504-2.808,1.008-4.176,1.584v3.888c1.368-0.792,2.808-1.512,4.248-2.16c0,1.152,0,2.232,0,3.312
				c-1.44,0.864-2.88,1.728-4.248,2.736v7.416c7.128,6.408,8.28,17.424,2.376,25.272c-0.72,0.936-1.512,1.8-2.376,2.592V689.688
				L341.424,689.688z M341.424,645.984c5.112,5.832,5.616,14.688,0.72,21.168c-0.216,0.36-0.504,0.648-0.72,0.936V645.984z
				 M328.752,689.688h12.672v-18.72c-3.528,3.24-8.064,4.896-12.672,4.896V689.688L328.752,689.688z M341.424,615.024h-12.672v7.488
				c2.736-0.504,5.544-1.08,8.28-1.584c0,1.44,0,2.952,0,4.464c-2.736,1.008-5.472,2.16-8.28,3.24v6.12
				c2.808-1.584,5.616-3.312,8.352-4.896c0.072,1.512,0.072,3.024,0.072,4.464c-1.152,0.864-2.304,1.728-3.456,2.664l-0.864-0.216
				l-1.008-0.144l-0.936-0.144l-1.008-0.072h-1.008h-0.144v1.8c3.96,0,7.992,1.224,11.376,3.816c0.432,0.288,0.864,0.648,1.296,1.08
				v-7.416c-1.224,0.792-2.448,1.728-3.744,2.736v-0.072l-0.504-0.216c0-1.224,0-2.52,0-3.816c1.368-0.936,2.808-1.728,4.248-2.52
				v-3.888c-1.44,0.648-2.88,1.224-4.32,1.944c0-1.512,0-2.952-0.072-4.464c1.44-0.504,2.952-0.936,4.392-1.296v-3.888
				c-1.512,0.216-2.952,0.432-4.392,0.72c0-1.512,0-2.952,0-4.392h4.392V615.024L341.424,615.024z M341.424,668.088
				c-3.312,3.744-7.92,5.76-12.672,5.76v-4.464c5.616-0.072,8.352-2.232,8.352-6.552c-0.072-4.824-2.808-7.2-8.352-7.2v-15.408
				c3.528,0,7.128,1.08,10.152,3.384c0.936,0.72,1.728,1.512,2.52,2.376V668.088L341.424,668.088z M328.752,659.088v6.84
				c2.88-0.072,4.248-1.08,4.248-3.024C333,660.384,331.56,659.088,328.752,659.088z M326.448,689.688h2.304v-13.824
				c-0.72,0-1.512-0.072-2.304-0.144V689.688L326.448,689.688z M328.752,615.024h-2.304v1.512h2.016c0,2.016,0,4.032,0,6.048
				l-2.016,0.432v6.552l2.088-0.864c0.072,2.088,0.072,4.104,0.144,6.12l-2.232,1.368v2.16c0.792-0.072,1.584-0.144,2.304-0.144
				v-1.8h-0.072v-1.584l0.072-0.072v-6.12l-0.216,0.072c0-2.016,0-4.104-0.072-6.12l0.288-0.072V615.024L328.752,615.024z
				 M328.752,673.848v-4.464h-0.144c-0.72,0-1.44,0-2.16-0.072v4.32C327.24,673.776,328.032,673.848,328.752,673.848
				L328.752,673.848z M328.752,665.928v-6.84l0,0l-2.304,0.072v6.696c0.72,0,1.44,0.072,2.088,0.072
				C328.608,665.928,328.68,665.928,328.752,665.928L328.752,665.928z M328.752,655.632v-15.408c-0.72,0-1.512,0.072-2.304,0.144
				v2.376l0.792-0.576l0.216-0.072h0.72h0.504v1.728l-2.232,0.072v1.8h2.232v4.032h-2.232v2.088h2.232L328.752,655.632
				L328.752,655.632z M322.2,689.688h4.248V675.72c-1.44-0.216-2.88-0.504-4.248-1.08V689.688L322.2,689.688z M326.448,615.024
				H322.2v1.512h4.248V615.024L326.448,615.024z M326.448,673.632v-4.32c-1.368-0.072-2.808-0.288-4.248-0.648v3.816
				C323.568,673.056,325.008,673.488,326.448,673.632L326.448,673.632z M326.448,665.856v-6.696h-2.088l-0.072-7.344h2.16v-2.088
				l-2.16,0.072l-0.072-4.104h2.232v-1.8h-1.368l1.368-1.152v-2.376c-1.44,0.216-2.88,0.648-4.248,1.224v4.608l0.216-0.144
				l0.072,5.544l0,0v1.8l-0.288,0.288v11.52C323.64,665.496,325.08,665.712,326.448,665.856L326.448,665.856z M326.448,638.352
				v-2.16l-0.72,0.432l-0.792,0.072L324,636.912l-1.008,0.288l-0.792,0.288v1.872C323.568,638.856,325.008,638.496,326.448,638.352
				L326.448,638.352z M326.448,629.568v-6.552l-4.248,0.864v7.416L326.448,629.568z M321.336,689.688h0.864V674.64
				c-0.288-0.072-0.576-0.216-0.864-0.288V689.688L321.336,689.688z M322.2,615.024h-0.864v1.512h0.864V615.024L322.2,615.024z
				 M322.2,672.48v-3.816l-0.288-0.072v-3.456l0.288,0.072v-11.52l-0.864,0.864v17.568
				C321.624,672.264,321.912,672.336,322.2,672.48L322.2,672.48z M322.2,646.2v-4.608c-0.288,0.072-0.576,0.216-0.864,0.36v4.896
				L322.2,646.2L322.2,646.2z M322.2,639.36v-1.872h-0.144l-0.72,0.288v1.944C321.624,639.576,321.912,639.504,322.2,639.36
				L322.2,639.36z M322.2,631.296v-7.416l-0.864,0.144v7.632L322.2,631.296z M317.52,689.688h3.816v-15.336
				c-1.296-0.576-2.592-1.368-3.816-2.232V689.688L317.52,689.688z M321.336,615.024h-3.816v9.792
				c0.792-0.144,1.656-0.288,2.448-0.504c0,2.664,0.072,5.256,0.072,7.848c-0.864,0.36-1.656,0.648-2.52,0.936v8.856
				c1.224-0.936,2.52-1.656,3.816-2.232v-1.944l-0.216,0.072l-0.864,0.36l-0.072,0.072c-0.072-2.016-0.072-4.104-0.144-6.12
				l1.296-0.504v-7.632l-1.368,0.288c0-2.592,0-5.184,0-7.776h1.368V615.024L321.336,615.024z M321.336,672.12v-17.568l-1.08,1.08
				c0-2.592,0-5.256,0-7.848l1.08-0.936v-4.896c-1.368,0.72-2.664,1.584-3.816,2.592v2.664l0.288-0.36l0.576-0.576l0.504-0.504
				l0.576-0.432l0.576-0.504l0.216-0.072c0,1.008,0,2.016,0,3.024c-0.936,0.72-1.8,1.368-2.736,2.016v19.656
				c0.36,0.36,0.72,0.648,1.152,0.936C319.536,671.112,320.4,671.616,321.336,672.12z M312.264,689.688h5.256V672.12l-0.072-0.072
				c-2.232-1.656-3.96-3.672-5.184-5.976V689.688L312.264,689.688z M317.52,615.024h-5.256v10.728
				c1.728-0.288,3.528-0.648,5.256-0.936V615.024L317.52,615.024z M317.52,669.456c-2.808-2.52-4.608-5.832-5.256-9.288v-6.264
				c0.504-2.448,1.512-4.896,3.096-6.984c0.648-0.864,1.368-1.656,2.16-2.376v2.664l-0.216,0.216L316.872,648l-0.504,0.648
				l-0.36,0.648l-0.432,0.648l-0.288,0.648l-0.288,0.72l-0.216,0.432c0.936-0.648,1.8-1.296,2.736-1.944V669.456L317.52,669.456z
				 M317.52,641.952v-8.856c-1.728,0.648-3.528,1.224-5.256,1.8v9.288l0.576-0.288l-0.576,0.648v0.072v3.312
				c0.432-0.72,0.936-1.512,1.512-2.232C314.856,644.256,316.152,642.96,317.52,641.952z M310.824,689.688h1.44v-23.616
				c-0.576-1.08-1.08-2.16-1.44-3.312V689.688L310.824,689.688z M312.264,615.024h-1.44v1.584h0.576c0,3.096,0,6.192,0.072,9.288
				l-0.648,0.072v9.36c0.288,0,0.504-0.072,0.72-0.144c0.072,3.096,0.072,6.192,0.144,9.216c-0.288,0.144-0.576,0.288-0.864,0.36
				v6.552c0.36-1.152,0.864-2.304,1.44-3.384v-3.312l-0.576,0.792V644.4c0.216-0.072,0.432-0.144,0.576-0.216v-9.288
				c-0.216,0.072-0.504,0.216-0.72,0.288c-0.072-3.096-0.072-6.192-0.072-9.288l0.792-0.144V615.024L312.264,615.024z
				 M312.264,660.168v-6.264C311.904,655.992,311.904,658.08,312.264,660.168z M306.432,689.688h4.392V662.76
				c-1.152-3.672-1.152-7.704,0-11.448v-6.552c-1.44,0.648-2.88,1.152-4.392,1.656v10.008c0.576-0.216,1.152-0.504,1.728-0.792
				v0.288l-0.072,1.008l0.072,1.008l0.072,0.936l0.072,1.008l0.144,1.008l0.216,0.936l0.288,0.936l0.288,1.008l0.288,0.792
				c-1.008,0.72-2.016,1.296-3.096,1.872V689.688L306.432,689.688z M310.824,615.024h-4.392v1.584h4.392V615.024L310.824,615.024z
				 M310.824,635.328v-9.36c-1.44,0.216-2.88,0.36-4.392,0.576v9.936C307.944,636.12,309.384,635.76,310.824,635.328z
				 M299.016,689.688h7.416v-23.256c-1.008,0.648-2.016,1.152-3.096,1.728c0-3.456,0-6.912,0-10.368
				c1.008-0.432,2.088-0.864,3.096-1.368v-10.008c-1.08,0.432-2.16,0.72-3.24,1.08c-0.072-3.384-0.072-6.84-0.144-10.296
				c1.152-0.216,2.232-0.432,3.384-0.72v-9.936c-1.152,0.144-2.304,0.288-3.528,0.36c0-3.456,0-6.84,0-10.296
				c1.152,0,2.376,0,3.528,0v-1.584h-7.416v12.168c1.296-0.072,2.592-0.144,3.888-0.288c0,3.456,0.072,6.912,0.144,10.296
				c-1.368,0.216-2.664,0.432-4.032,0.576v10.584c1.44-0.216,2.808-0.504,4.176-0.864c0.072,3.456,0.144,6.84,0.144,10.296
				c-1.44,0.432-2.88,0.864-4.32,1.224V689.688z M293.616,689.688h5.4v-30.672c-1.368,0.36-2.736,0.648-4.104,0.864
				c0-3.6-0.072-7.2-0.144-10.8c1.44-0.144,2.808-0.432,4.248-0.72v-10.584c-1.44,0.216-2.952,0.36-4.464,0.504
				c0-3.6-0.072-7.2-0.072-10.8c1.512-0.072,3.096-0.144,4.536-0.288v-12.168h-5.4c-0.72,0-1.44,0.144-2.088,0.36v1.584l0.216-0.072
				l0.216-0.144l0.288-0.072h0.288v-0.072c0.648,0,1.296,0,1.872,0c0,3.6,0,7.2,0.072,10.872c-1.008,0-2.016,0.072-2.952,0.072
				v10.944c1.008-0.072,2.016-0.144,3.024-0.216c0.144,3.6,0.144,7.2,0.216,10.8c-1.08,0.144-2.16,0.216-3.24,0.288v10.944
				c1.08-0.144,2.232-0.216,3.384-0.432c0,3.672,0.072,7.272,0.072,10.872c-1.152,0.216-2.304,0.36-3.456,0.504V689.4
				C292.176,689.616,292.896,689.688,293.616,689.688z M291.528,615.384c-2.88,0.864-4.968,3.6-4.968,6.768v60.48
				c0,3.168,2.088,5.832,4.968,6.768v-18.144c-1.224,0.144-2.376,0.216-3.528,0.288v-11.016c1.152-0.072,2.304-0.144,3.528-0.216
				v-10.944c-1.224,0.072-2.376,0.144-3.528,0.216V638.64c1.152-0.072,2.304-0.144,3.528-0.144v-10.944
				c-1.224,0-2.376,0.072-3.528,0.072v-5.472l0.072-0.288v-0.288v-0.288l0.072-0.288l0.072-0.288l0.072-0.216l0.072-0.288
				l0.144-0.216l0.072-0.288l0.144-0.216l0.144-0.216l0.144-0.288l0.144-0.216l0.144-0.216l0.216-0.144l0.144-0.216l0.216-0.216
				l0.216-0.144l0.216-0.216l0.216-0.144l0.216-0.144l0.216-0.144l0.288-0.072l0.216-0.144h0.072V615.384z"/>
		</g>
	</g>
</g>
</svg>
