<?xml version="1.0" encoding="utf-8"?>
<!-- Generator: Adobe InDesign 4.0 SVG Export Plug-in, SVG Library version: 6.0 build 159 -->
<!DOCTYPE svg PUBLIC "-//W3C//DTD SVG 1.0//EN"    "http://www.w3.org/TR/SVG/DTD/svg10.dtd" [
	<!ENTITY ns_svg "http://www.w3.org/2000/svg">
	<!ENTITY ns_xlink "http://www.w3.org/1999/xlink">
]>
<svg  xmlns="&ns_svg;" xmlns:xlink="&ns_xlink;" width="278pt" height="278.374pt" xml:space="preserve">
<clipPath id="clp1" fill="none">
	<path shape-rendering="crispEdges" stroke="#000000" d="M0,0h278v278.374H0z"/>
</clipPath>
<g clip-path="url(#clp1)" fill="none">
	<clipPath id="clp2">
		<path shape-rendering="crispEdges" stroke="#000000" d="M1,1v276.374h276V1H1z"/>
	</clipPath>
	<g clip-path="url(#clp2)">
		<g transform="matrix(2 0 0 -2 173 257)">
			<path fill-rule="evenodd" fill="#000000" d="M43.704-9.216v4.536h2.016l0.288,0.288l0.36,0.36l0.36,0.36l0.288,0.432l0,0
				c-1.08,0.072-2.232,0.072-3.312,0.144v1.512c1.44-0.072,2.808-0.072,4.248-0.144l0.144,0.216L48.24-1.08l0.216,0.432l0.144,0.36
				C46.944-0.216,45.288-0.072,43.704,0v127.368c4.752-1.944,8.136-6.696,8.136-12.168V2.952c0-1.152-0.144-2.304-0.432-3.384
				c-0.072-0.216-0.144-0.504-0.216-0.72l0,0l0,0c-0.072-0.216-0.144-0.36-0.144-0.504l-0.072-0.072l0,0l0,0l0,0V-1.8l0,0l0,0
				v-0.072l0,0l0,0c-0.216-0.504-0.432-1.008-0.72-1.44l-0.072-0.072v-0.072v-0.072l0,0L50.04-3.672l0,0
				c-0.072-0.144-0.072-0.216-0.144-0.288v-0.072h-0.072l0,0v-0.072C49.68-4.32,49.536-4.536,49.32-4.752
				c-0.36-0.576-0.792-1.008-1.224-1.512c-0.216-0.216-0.432-0.432-0.648-0.648h-0.072l0,0l0,0v-0.072h-0.072l0,0l-0.072-0.072
				H47.16L47.088-7.2l0,0C46.08-8.064,44.928-8.712,43.704-9.216z M43.704,127.368V0c-0.864,0.072-1.656,0.144-2.52,0.144V128.16
				C42.048,128.016,42.912,127.728,43.704,127.368L43.704,127.368z M43.704-1.584v-1.512c-0.864,0-1.656,0.072-2.52,0.072v1.584
				C42.048-1.44,42.84-1.512,43.704-1.584L43.704-1.584z M43.704-4.68v-4.536c-0.792-0.36-1.656-0.576-2.52-0.792v2.88h0.072
				l0.504,0.144l0.504,0.144l0.432,0.216L43.2-6.408l0.432,0.216h-2.448v1.584C42.048-4.608,42.84-4.608,43.704-4.68z
				 M41.184,128.16V0.144C40.392,0.216,39.6,0.288,38.88,0.36c-0.072-0.576-0.072-1.08-0.072-1.656c0.792,0,1.584-0.072,2.376-0.144
				v-1.584C40.392-2.952,39.6-2.952,38.808-2.88c0-0.576,0-1.08,0-1.656c0.792,0,1.584,0,2.376-0.072v-1.584
				c-0.792,0-1.656,0.072-2.448,0.072v-1.296h0.504h0.504l0.504,0.072l0.504,0.072l0.432,0.144v-2.88
				c-0.792-0.144-1.656-0.216-2.52-0.216H30.96v4.248c2.592-0.072,5.184-0.072,7.776-0.144c0,0.504,0,1.08,0.072,1.584
				c-2.664,0.144-5.256,0.216-7.848,0.36v1.8c2.592-0.216,5.256-0.36,7.848-0.504c0,0.504,0,1.08,0,1.584
				c-2.592,0.216-5.256,0.432-7.848,0.72v128.952h7.704C39.528,128.376,40.392,128.304,41.184,128.16z M30.96,128.376V-0.576
				C28.296-0.288,25.704,0,23.112,0.288c0-0.648-0.072-1.368-0.072-2.016c2.664-0.216,5.256-0.432,7.92-0.648v-1.8
				c-2.664,0.144-5.328,0.288-7.992,0.432c0-0.648-0.072-1.296-0.072-2.016c2.664-0.072,5.4-0.144,8.064-0.216v-4.248H15.192v2.808
				h7.704v1.656c-2.52,0.144-5.112,0.216-7.704,0.36v2.304c2.592-0.216,5.184-0.432,7.776-0.648c0,0.72,0.072,1.368,0.072,2.016
				C20.448-1.44,17.856-1.08,15.192-0.72v2.304c2.664-0.432,5.256-0.864,7.92-1.296c0,0.648,0,1.368,0,2.016
				c-2.664,0.504-5.256,1.08-7.92,1.656v124.416H30.96z M15.192,128.376V3.96C12.6,4.536,10.008,5.184,7.344,5.832
				c0-0.864,0-1.8,0-2.736c2.664-0.504,5.256-1.008,7.848-1.512V-0.72C12.6-0.36,9.936,0,7.272,0.432c0-0.936-0.072-1.8-0.144-2.736
				c2.736-0.288,5.4-0.504,8.064-0.792V-5.4c-2.664,0.144-5.4,0.216-8.136,0.432c0-0.864,0-1.656,0-2.448h8.136v-2.808H-0.576v5.688
				C2.016-4.68,4.536-4.824,7.056-4.968c0,0.864,0.072,1.8,0.072,2.664c-2.52,0.36-5.112,0.648-7.704,1.008v3.168
				c2.664-0.504,5.256-1.008,7.848-1.44c0.072,0.864,0.072,1.8,0.072,2.664C4.68,3.744,2.088,4.464-0.576,5.112v123.264H15.192z
				 M-0.576,128.376V5.112C-3.168,5.76-5.76,6.48-8.352,7.128c0-1.224-0.072-2.448-0.072-3.672c2.592-0.504,5.256-1.008,7.848-1.584
				v-3.168c-2.664,0.36-5.4,0.72-8.064,1.008C-8.712-1.512-8.712-2.736-8.712-3.96c2.664-0.216,5.4-0.36,8.136-0.576v-5.688H-16.2
				v2.808h7.416c0,1.152,0,2.304,0.072,3.456L-16.2-3.456V0.72c2.52-0.288,5.04-0.648,7.56-1.008
				c0.072,1.224,0.072,2.52,0.216,3.744c-2.592,0.504-5.184,1.008-7.776,1.512v4.248l7.848-2.088c0,1.224,0,2.448,0.072,3.744
				c-2.664,0.864-5.256,1.728-7.92,2.592v114.912H-0.576z M-16.2,128.376V13.464c-2.592,0.864-5.184,1.728-7.776,2.52
				c0-1.584-0.072-3.096-0.072-4.752c2.592-0.648,5.256-1.368,7.848-2.016V4.968c-2.664,0.504-5.328,1.08-7.992,1.584
				c-0.072-1.584-0.144-3.168-0.216-4.752l8.208-1.08v-4.176l-8.352,0.504c0-1.512,0-3.024,0-4.464h8.352v-2.808h-15.768v7.776
				c2.448-0.144,4.896-0.288,7.416-0.504c0,1.584,0.072,3.168,0.144,4.752c-2.52,0.36-5.04,0.648-7.56,0.936V7.92
				c2.592-0.432,5.184-0.864,7.776-1.368c0.072,1.584,0.144,3.168,0.144,4.68c-2.664,0.72-5.256,1.296-7.92,1.944v115.2H-16.2z
				 M-31.968,128.376v-115.2c-2.592,0.576-5.184,1.152-7.776,1.656c0-1.872-0.072-3.744-0.144-5.616
				c2.592-0.36,5.256-0.792,7.92-1.296V2.736c-2.736,0.288-5.472,0.576-8.208,0.864c-0.144-1.872-0.144-3.744-0.216-5.616
				c2.808-0.144,5.616-0.288,8.424-0.432v-7.776H-47.52v2.808h7.056c0,1.8,0.072,3.6,0.072,5.4c-2.376,0.144-4.752,0.216-7.128,0.36
				v5.904c2.376-0.216,4.824-0.36,7.344-0.648c0.072,1.872,0.144,3.744,0.288,5.616c-2.592,0.36-5.112,0.72-7.632,1.008V16.2
				c2.592-0.432,5.184-0.864,7.776-1.368c0,1.872,0.072,3.816,0.072,5.688c-2.592,0.576-5.256,1.152-7.848,1.656v106.2H-31.968z
				 M-63.432,18.072c2.664-0.216,5.328-0.504,7.992-0.72c-0.072-2.088-0.144-4.176-0.216-6.264c-2.592,0.216-5.184,0.36-7.776,0.576
				V5.256c2.448-0.144,4.968-0.288,7.416-0.36c-0.072-2.088-0.144-4.176-0.216-6.264c-2.376,0.072-4.824,0.144-7.2,0.144v-9h15.912
				v2.808h-8.712c0,2.016,0,4.032,0,6.048c2.88-0.072,5.76-0.216,8.712-0.288v5.904c-2.88,0.216-5.688,0.432-8.496,0.648
				c0.144,2.088,0.216,4.104,0.36,6.192c2.736-0.288,5.4-0.576,8.136-0.864V16.2c-2.664,0.432-5.328,0.792-7.92,1.152
				c0,2.088,0.072,4.176,0.072,6.264c2.592-0.504,5.184-0.936,7.848-1.44v106.2h-15.912V18.072z M-71.208,18.576
				c2.592-0.144,5.184-0.288,7.776-0.504v110.304h-10.152c-1.368,0-2.736-0.216-3.96-0.576V25.488
				c2.16-0.072,4.248-0.144,6.408-0.288C-71.136,22.968-71.208,20.808-71.208,18.576c-2.088,0.144-4.248,0.216-6.336,0.288V12.24
				c2.016-0.072,4.104-0.072,6.12-0.144c-0.144-2.232-0.216-4.392-0.432-6.552c-1.872,0-3.816,0.072-5.688,0.072v-6.624
				c1.8,0,3.672,0,5.472,0c0-2.16,0-4.32,0-6.408h-1.512h-0.504h-0.576l-0.504,0.072l-0.504,0.072l-0.504,0.144l-0.504,0.144
				l-0.432,0.144l-0.432,0.216v-2.952c1.224-0.432,2.592-0.648,3.96-0.648h10.152v9c-2.88,0.072-5.76,0.144-8.64,0.216
				c0.072,2.16,0.144,4.32,0.216,6.552c2.808-0.072,5.616-0.216,8.424-0.288v6.408c-2.664,0.144-5.328,0.288-7.992,0.432
				C-71.352,14.256-71.28,16.416-71.208,18.576z M-77.544,127.8V25.488c-2.16,0.072-4.32,0.144-6.408,0.216v-6.696
				c2.088-0.072,4.248-0.072,6.408-0.144V12.24c-2.16,0.072-4.32,0.072-6.408,0.144V5.688c2.088,0,4.248,0,6.408-0.072v-6.624
				c-1.872,0.072-3.816,0.072-5.688,0.072l0.072-0.144l0.216-0.432l0.216-0.504l0.288-0.432l0.216-0.432l0.288-0.36l0.36-0.432
				l0.288-0.36l0.36-0.36l0.36-0.36l0.36-0.288l0.432-0.36l0.36-0.288l0.432-0.288l0.432-0.216l0.504-0.216l0.432-0.216h0.072
				v-2.952c-1.728,0.504-3.312,1.44-4.608,2.592l-0.072,0.072l0,0l-0.144,0.072c-0.792,0.72-1.584,1.584-2.232,2.52v0.072
				c-0.144,0.288-0.288,0.504-0.432,0.72l-0.072,0.072c-0.144,0.288-0.288,0.504-0.36,0.792l0,0l-0.072,0.144
				c-0.144,0.216-0.216,0.432-0.288,0.72h-0.072v0.072c-0.072,0.144-0.072,0.216-0.144,0.36l0,0l-0.072,0.216l0,0v0.144
				l-0.072,0.072c-0.36,1.224-0.576,2.52-0.576,3.888V115.2C-86.76,121.104-82.872,126.072-77.544,127.8z"/>
		</g>
	</g>
</g>
</svg>
