<?xml version="1.0" encoding="utf-8"?>
<!-- Generator: Adobe InDesign 4.0 SVG Export Plug-in, SVG Library version: 6.0 build 159 -->
<!DOCTYPE svg PUBLIC "-//W3C//DTD SVG 1.0//EN"    "http://www.w3.org/TR/SVG/DTD/svg10.dtd" [
	<!ENTITY ns_svg "http://www.w3.org/2000/svg">
	<!ENTITY ns_xlink "http://www.w3.org/1999/xlink">
]>
<svg  xmlns="&ns_svg;" xmlns:xlink="&ns_xlink;" width="286pt" height="287.933pt" xml:space="preserve">
<clipPath id="clp1" fill="none">
	<path shape-rendering="crispEdges" stroke="#000000" d="M0,0h286v287.933H0z"/>
</clipPath>
<g clip-path="url(#clp1)" fill="none">
	<clipPath id="clp2">
		<path shape-rendering="crispEdges" stroke="#000000" d="M1,1v285.933h284V1H1z"/>
	</clipPath>
	<g clip-path="url(#clp2)">
		<g transform="matrix(2 0 0 -2 -201 265)">
			<path fill-rule="evenodd" fill="#000000" d="M234.504-9.072v3.168l0.072,0.072l0.432,0.288l0.432,0.288l0.432,0.288l0.36,0.36
				l0.072,0.072h-1.8v3.168c1.368-0.072,2.736-0.072,4.104-0.144l0.072,0.144l0.216,0.504l0.216,0.432l0.144,0.504l0.144,0.504
				l0.144,0.504l0.072,0.432c-1.728,0.072-3.384,0.216-5.112,0.36V5.04c1.728-0.216,3.456-0.36,5.256-0.504v3.096
				c-1.8,0.144-3.528,0.36-5.256,0.576v122.184c4.752-2.088,8.064-6.84,8.064-12.312V3.24c0-0.648-0.072-1.296-0.144-1.944l0,0
				c-0.072-0.648-0.216-1.224-0.432-1.872l0,0c0-0.144-0.072-0.216-0.072-0.36l0,0c-0.072-0.216-0.144-0.504-0.288-0.72l0,0
				c-0.432-1.08-0.936-2.088-1.656-3.024l0,0c-0.216-0.288-0.432-0.576-0.648-0.864l0,0C238.032-7.056,236.376-8.28,234.504-9.072z
				 M234.504,130.392V8.208c-1.728,0.216-3.456,0.504-5.256,0.72c0-1.08,0-2.16,0-3.312c1.728-0.216,3.528-0.432,5.256-0.576V1.872
				c-1.728,0.072-3.528,0.288-5.256,0.432c0-1.152,0-2.232-0.072-3.312c1.8-0.144,3.528-0.216,5.328-0.36v-3.168
				c-1.8,0.072-3.528,0.144-5.328,0.144v-3.024l0.504,0.072h0.504l0.576,0.072l0.504,0.072l0.504,0.144l0.504,0.144l0.504,0.144
				l0.432,0.216l0.504,0.216l0.432,0.216l0.36,0.216v-3.168c-1.656-0.72-3.456-1.152-5.4-1.152h-7.92v6.192
				c2.664-0.144,5.328-0.216,7.992-0.36c0,1.152,0,2.232,0,3.384c-2.664,0.144-5.328,0.432-7.992,0.72v3.672
				c2.664-0.432,5.4-0.792,8.064-1.08c0,1.08,0,2.232,0,3.312c-2.664,0.432-5.4,0.936-8.064,1.44v124.488h7.92
				C231.048,131.544,232.848,131.112,234.504,130.392z M221.184,131.544V7.056c-2.664,0.576-5.328,1.152-8.064,1.8
				c0-1.368,0-2.736,0-4.176c2.664-0.432,5.4-0.936,8.064-1.296v-3.672c-2.736,0.216-5.472,0.576-8.136,0.864
				c-0.072-1.368-0.072-2.736-0.072-4.104c2.736-0.216,5.472-0.36,8.208-0.504v-6.192h-16.056v2.808h7.848v3.888
				c-2.592,0.216-5.256,0.432-7.848,0.648v4.824c2.592-0.504,5.256-0.936,7.92-1.368c0,1.368,0.072,2.736,0.072,4.104
				c-2.664,0.648-5.328,1.296-7.992,2.016v4.824c2.664-0.936,5.328-1.872,7.992-2.664c0,1.368,0,2.736,0.072,4.104
				c-2.736,1.08-5.4,2.16-8.064,3.384v115.2H221.184z M205.128,131.544v-115.2c-2.664,1.224-5.4,2.52-8.064,3.96
				c0-1.872,0-3.744,0-5.616c2.664-1.152,5.4-2.232,8.064-3.168V6.696c-2.736,0.72-5.4,1.512-8.136,2.448
				c-0.072-1.872-0.072-3.744-0.144-5.616c2.736-0.576,5.544-1.08,8.28-1.584V-2.88c-2.808,0.288-5.544,0.504-8.352,0.864
				c0-1.8,0-3.6,0-5.4h8.352v-2.808H189v9.216c2.592-0.36,5.184-0.72,7.776-1.008c0,1.8,0.072,3.672,0.072,5.544
				c-2.592,0.648-5.256,1.368-7.848,2.016v6.624c2.664-1.08,5.328-2.088,7.992-3.024c0.072,1.8,0.072,3.672,0.072,5.544
				c-2.664,1.296-5.4,2.664-8.064,4.104v112.752H205.128z M189,131.544V18.792c-2.664,1.368-5.328,2.736-7.992,4.104
				c0-2.52-0.072-5.04-0.072-7.632c2.664-1.008,5.328-2.088,8.064-3.096V5.544c-2.736,0.72-5.544,1.44-8.28,2.16
				c-0.072-2.52-0.072-5.112-0.072-7.632c2.736-0.36,5.544-0.72,8.352-1.08v-9.216h-15.984v2.808h7.56c0,2.52,0,4.968,0.072,7.488
				l-7.632,1.008v8.64c2.592-0.648,5.112-1.368,7.704-2.016c0.072,2.52,0.072,5.04,0.216,7.56c-2.664,1.08-5.328,2.16-7.92,3.168
				v8.712c2.664-1.44,5.328-2.808,7.992-4.248c0,2.52,0,5.112,0.072,7.632c-2.736,1.8-5.4,3.6-8.064,5.328v95.688H189z
				 M173.016,131.544V35.856c-2.664,1.8-5.328,3.528-7.992,5.328c0-3.24-0.072-6.48-0.072-9.792c2.664-1.368,5.4-2.808,8.064-4.248
				v-8.712c-2.736,1.08-5.472,2.16-8.208,3.24c-0.072-3.24-0.144-6.48-0.216-9.72c2.808-0.72,5.616-1.44,8.424-2.232V1.08
				c-2.88,0.36-5.688,0.792-8.568,1.152c0-3.24,0-6.408,0-9.648h8.568v-2.808h-16.128V3.168c2.52-0.288,5.04-0.648,7.56-0.936
				c0,3.24,0.072,6.48,0.144,9.72c-2.592,0.648-5.184,1.296-7.704,1.872v10.728c2.664-0.936,5.256-1.872,7.92-2.88
				c0.072,3.24,0.144,6.48,0.144,9.72c-2.664,1.368-5.4,2.664-8.064,3.888v96.264H173.016z M156.888,131.544V35.28
				c-2.664,1.224-5.328,2.448-7.992,3.528c0-3.888-0.072-7.704-0.144-11.592c2.736-0.792,5.4-1.728,8.136-2.664V13.824
				c-2.808,0.648-5.616,1.296-8.424,1.872c-0.144-3.888-0.144-7.704-0.216-11.592c2.88-0.288,5.76-0.576,8.64-0.936v-13.392h-15.984
				v2.808h7.344c0,3.888,0,7.704,0,11.52c-2.448,0.288-4.896,0.504-7.344,0.648v12.24c2.52-0.36,5.04-0.792,7.56-1.296
				c0.072,3.816,0.144,7.704,0.288,11.52c-2.592,0.792-5.184,1.44-7.848,2.016v12.312c2.664-0.864,5.328-1.728,7.992-2.736
				c0.072,3.816,0.072,7.704,0.072,11.592c-2.664,1.224-5.328,2.376-8.064,3.456v77.688H156.888z M124.704,45.36
				c2.736-0.432,5.4-0.936,8.136-1.512c0-4.248-0.072-8.496-0.216-12.816c-2.664,0.432-5.256,0.792-7.92,1.152V19.008
				c2.52-0.216,5.04-0.504,7.56-0.72c-0.072-4.32-0.144-8.568-0.144-12.816c-2.52,0.072-4.968,0.216-7.416,0.288v-15.984h16.2v2.808
				h-8.856c0,4.32,0,8.568,0.072,12.888c2.88-0.216,5.832-0.432,8.784-0.72v12.24c-2.88,0.432-5.76,0.864-8.64,1.296
				c0.144,4.248,0.288,8.496,0.36,12.744c2.808-0.504,5.544-1.152,8.28-1.8v12.312c-2.664,0.864-5.328,1.584-8.064,2.304
				c0.072,4.32,0.072,8.568,0.072,12.888c2.664-0.936,5.328-1.872,7.992-2.88v77.688h-16.2V45.36z M116.784,46.512
				c2.592-0.288,5.256-0.72,7.92-1.152v86.184h-10.368c-1.44,0-2.808-0.288-4.104-0.648V60.624c2.232-0.144,4.392-0.36,6.624-0.576
				C116.856,55.512,116.784,50.976,116.784,46.512c-2.232,0.216-4.392,0.36-6.552,0.504V33.408c2.088-0.072,4.176-0.216,6.264-0.36
				c-0.144-4.464-0.216-9-0.432-13.464c-1.944,0.144-3.888,0.216-5.832,0.216V6.264c1.872-0.072,3.744-0.072,5.688-0.144
				c-0.072-4.536-0.072-9-0.072-13.464h-2.232h-0.36l-0.576,0.072L112.176-7.2l-0.504,0.144l-0.504,0.144l-0.504,0.144l-0.432,0.216
				v-3.024c1.296-0.432,2.664-0.648,4.104-0.648h10.368V5.76c-2.952,0.144-5.904,0.288-8.784,0.36c0,4.464,0.072,9,0.144,13.464
				c2.88-0.144,5.76-0.36,8.64-0.576v13.176c-2.736,0.36-5.472,0.648-8.208,0.864C116.64,37.512,116.712,42.048,116.784,46.512z
				 M110.232,130.896V60.624c-2.16,0.144-4.392,0.288-6.552,0.432V47.304c2.16-0.072,4.392-0.216,6.552-0.288V33.408
				c-2.16,0.072-4.392,0.144-6.552,0.216V20.016c2.16-0.072,4.392-0.144,6.552-0.216V6.264c-2.16,0-4.392,0-6.552,0.072V3.312V2.664
				l0.072-0.504l0.072-0.504l0.072-0.576l0.144-0.504l0.144-0.504l0.144-0.504l0.216-0.432l0.216-0.504l0.216-0.432l0.216-0.432
				l0.288-0.432l0.288-0.432l0.36-0.432l0.36-0.36l0.288-0.36l0.432-0.36l0.36-0.36L108-5.256l0.36-0.288l0.432-0.288l0.504-0.288
				l0.432-0.216l0.432-0.216h0.072v-3.024c-3.456,1.08-6.408,3.6-7.992,6.912c-0.36,0.648-0.576,1.296-0.792,2.016l-0.072,0.072
				l-0.072,0.216v0.144l-0.072,0.144v0.144v0.072c-0.072,0.216-0.072,0.36-0.144,0.576l0,0l-0.072,0.216v0.072V1.08l0,0v0.144
				l-0.072,0.288v0.072V1.8v0.144l-0.072,0.216v0.072c0,0.072,0,0.216,0,0.288v0.072c0,0.072,0,0.216,0,0.288l0,0v0.072
				c0,0.072,0,0.216,0,0.288v114.84C100.872,124.056,104.832,129.168,110.232,130.896z"/>
		</g>
	</g>
</g>
</svg>
