<?xml version="1.0" encoding="utf-8"?>
<!-- Generator: Adobe InDesign 4.0 SVG Export Plug-in, SVG Library version: 6.0 build 159 -->
<!DOCTYPE svg PUBLIC "-//W3C//DTD SVG 1.0//EN"    "http://www.w3.org/TR/SVG/DTD/svg10.dtd" [
	<!ENTITY ns_svg "http://www.w3.org/2000/svg">
	<!ENTITY ns_xlink "http://www.w3.org/1999/xlink">
]>
<svg  xmlns="&ns_svg;" xmlns:xlink="&ns_xlink;" width="278pt" height="279.319pt" xml:space="preserve">
<clipPath id="clp1" fill="none">
	<path shape-rendering="crispEdges" stroke="#000000" d="M0,0h278v279.319H0z"/>
</clipPath>
<g clip-path="url(#clp1)" fill="none">
	<clipPath id="clp2">
		<path shape-rendering="crispEdges" stroke="#000000" d="M1,1v277.319h276V1H1z"/>
	</clipPath>
	<g clip-path="url(#clp2)">
		<g transform="matrix(2 0 0 -2 -583 257)">
			<path fill-rule="evenodd" fill="#000000" d="M422.208,127.296c4.608-2.016,7.92-6.696,7.92-12.096V2.952
				c0-5.4-3.312-10.008-7.92-12.096v3.168h0.072l0.432,0.288l0.432,0.288l0.432,0.36l0.36,0.288l0.36,0.36l0.36,0.36l0.288,0.36
				l0.288,0.432l0.144,0.072c-1.08,0.072-2.088,0.144-3.168,0.144v4.752c1.656-0.144,3.312-0.216,5.04-0.36l0.072,0.504v0.576v0.504
				v2.952c-1.728,0.216-3.384,0.36-5.112,0.576v4.752c1.728-0.288,3.456-0.504,5.112-0.72v4.536
				c-1.728,0.288-3.384,0.576-5.112,0.936V127.296z M409.176,128.376h7.776c1.872,0,3.672-0.36,5.256-1.08V15.984
				c-1.728,0.288-3.384,0.72-5.112,1.08c0-1.656,0-3.312,0-4.968c1.728-0.288,3.384-0.648,5.112-0.864V6.48
				c-1.728,0.216-3.456,0.432-5.112,0.648c-0.072-1.656-0.072-3.312-0.072-4.968c1.728-0.144,3.456-0.288,5.184-0.432v-4.752
				c-1.728,0.072-3.456,0.144-5.184,0.216v-4.608h0.432h0.576l0.504,0.072l0.504,0.072l0.504,0.144l0.504,0.144l0.432,0.144
				l0.504,0.216l0.432,0.216l0.432,0.216l0.36,0.216v-3.168c-1.584-0.648-3.384-1.08-5.256-1.08h-7.776v7.992
				c2.592-0.216,5.184-0.432,7.848-0.576c0,1.656,0,3.312,0,4.968c-2.592,0.36-5.256,0.648-7.848,1.08v5.472
				c2.664-0.576,5.256-1.08,7.92-1.584c0,1.656,0,3.312,0,4.968c-2.664,0.648-5.256,1.368-7.92,2.16V128.376z M393.48,128.376
				h15.696V14.256c-2.592,0.792-5.256,1.656-7.848,2.664c0-2.088,0-4.104,0-6.192c2.592-0.72,5.256-1.368,7.848-2.016V3.24
				c-2.664,0.432-5.328,0.864-7.992,1.368c0-2.088,0-4.104,0-6.192c2.664-0.216,5.328-0.432,7.992-0.648v-7.992H393.48v2.808h7.704
				v5.832c-2.592,0.36-5.184,0.648-7.704,1.008v7.128c2.592-0.72,5.184-1.368,7.704-1.944c0.072,2.016,0.072,4.104,0.144,6.12
				c-2.664,0.936-5.256,1.944-7.848,3.024v7.128c2.592-1.44,5.256-2.736,7.848-3.96c0,2.016,0,4.104,0,6.12
				c-2.592,1.584-5.256,3.24-7.848,5.04V128.376z M377.712,128.376h15.768V28.08c-2.664,1.8-5.256,3.744-7.848,5.832
				c0-2.736,0-5.544,0-8.28c2.592-1.728,5.184-3.312,7.848-4.752v-7.128c-2.664,1.08-5.328,2.232-7.92,3.528
				c-0.072-2.736-0.144-5.544-0.144-8.28c2.664-0.864,5.328-1.656,8.064-2.448v-7.128c-2.736,0.36-5.4,0.792-8.136,1.224
				c0-2.664,0-5.4,0-8.064h8.136v-2.808h-15.768V2.16c2.52-0.504,5.112-1.008,7.632-1.512c0,2.808,0,5.544,0.072,8.352
				c-2.592,0.936-5.184,1.944-7.704,3.024v9.792c2.592-1.512,5.184-3.024,7.848-4.536c0,2.808,0,5.544,0.072,8.352
				c-2.664,1.944-5.328,4.032-7.92,6.048V128.376z M362.088,128.376h15.624V31.68c-2.592,2.088-5.184,4.176-7.848,6.192
				c0-3.816,0-7.56-0.072-11.376c2.664-1.512,5.256-3.096,7.92-4.68v-9.792c-2.736,1.008-5.4,2.16-8.136,3.168
				c0-3.816-0.072-7.632-0.072-11.376c2.736-0.576,5.472-1.08,8.208-1.656v-12.384h-15.624v2.808h7.416c0,3.744,0,7.488,0,11.232
				l-7.416,1.512v12.888c2.52-1.008,5.04-2.016,7.488-3.024c0.072,3.744,0.144,7.56,0.216,11.304
				c-2.592,1.584-5.184,3.168-7.704,4.752v12.96c2.592-2.088,5.184-4.248,7.776-6.336c0.072,3.816,0.072,7.56,0.072,11.376
				c-2.592,2.664-5.256,5.328-7.848,7.992V128.376z M346.248,128.376h15.84V57.24c-2.664,2.592-5.256,5.256-7.848,7.848
				c0-4.824,0-9.648-0.072-14.544c2.664-2.088,5.256-4.248,7.92-6.336v-12.96c-2.664,1.584-5.328,3.24-7.992,4.824
				c-0.144-4.824-0.216-9.648-0.288-14.472c2.736-1.152,5.544-2.232,8.28-3.384V5.328c-2.808,0.576-5.616,1.152-8.424,1.728
				c0-4.824,0-9.648,0-14.472h8.424v-2.808h-15.84V8.424c2.52-0.432,4.968-0.936,7.416-1.368c0.072,4.824,0.072,9.648,0.144,14.544
				c-2.52,0.936-5.04,1.872-7.56,2.736V40.32c2.592-1.368,5.256-2.736,7.848-4.248c0.072,4.824,0.072,9.648,0.072,14.472
				c-2.592,2.016-5.256,3.96-7.92,5.832V128.376z M330.696,128.376h15.552v-72c-2.592,1.8-5.112,3.528-7.704,5.184
				c-0.072-5.76-0.144-11.52-0.216-17.208c2.664-1.296,5.328-2.592,7.92-4.032V24.336c-2.736,1.008-5.472,1.944-8.208,2.808
				c-0.072-5.76-0.144-11.52-0.144-17.28c2.808-0.432,5.544-0.936,8.352-1.44v-18.648h-15.552v2.88c2.376,0,4.752,0,7.128,0
				c0,5.76,0,11.448,0.072,17.208c-2.448,0.36-4.824,0.72-7.2,1.008v18.216c2.448-0.648,4.896-1.224,7.344-1.944
				c0.072,5.76,0.216,11.448,0.288,17.208c-2.52,1.08-5.112,2.088-7.632,2.952v18.36c2.592-1.224,5.184-2.592,7.848-4.104
				c0,5.76,0,11.52,0.072,17.28c-2.664,1.944-5.328,3.6-7.92,5.184V128.376z M314.784,128.376h15.912V84.024
				c-2.592,1.512-5.184,2.952-7.848,4.32c0-6.408,0-12.816-0.072-19.224c2.664-1.08,5.256-2.232,7.92-3.456v-18.36
				c-2.736,1.008-5.4,1.872-8.064,2.736c-0.144-6.336-0.288-12.744-0.36-19.08c2.808-0.576,5.616-1.224,8.424-1.872V10.872
				c-2.88,0.36-5.76,0.648-8.64,0.936c-0.072-6.336-0.072-12.744-0.072-19.08c2.88-0.072,5.832-0.072,8.712-0.072v-2.88h-15.912
				v22.608c2.448-0.216,4.824-0.36,7.272-0.576c0,6.408,0.144,12.744,0.216,19.152c-2.52,0.36-4.968,0.72-7.488,1.08v19.656
				c2.592-0.504,5.184-1.08,7.848-1.656c0.072,6.336,0.144,12.744,0.144,19.08c-2.664,0.864-5.328,1.584-7.992,2.304V128.376z
				 M304.632,128.376h10.152V71.424c-2.592,0.648-5.112,1.152-7.704,1.656c-0.072-6.696-0.144-13.392-0.288-20.088
				c2.736-0.36,5.328-0.792,7.992-1.296V32.04c-2.736,0.36-5.544,0.648-8.352,0.936c-0.072-6.768-0.144-13.464-0.216-20.16
				c2.88-0.072,5.76-0.288,8.568-0.432v-22.608h-10.152c-1.368,0-2.664,0.216-3.96,0.648v2.952l0.432-0.216l0.504-0.144l0.432-0.144
				l0.504-0.144h0.144c1.152,0,2.304,0,3.456,0c0,6.696,0,13.392,0.072,20.088c-1.872,0.072-3.672,0.144-5.544,0.216v20.232
				c1.944-0.072,3.816-0.144,5.76-0.288c0.144,6.624,0.288,13.32,0.36,20.016c-2.016,0.216-4.032,0.36-6.12,0.504V73.8
				c2.16-0.216,4.248-0.432,6.408-0.72c0,6.696,0,13.392,0.072,20.16c-2.16,0.36-4.32,0.648-6.48,0.864V127.8
				C301.968,128.16,303.264,128.376,304.632,128.376z M300.672-9.576C295.416-7.92,291.6-2.952,291.6,2.952V115.2
				c0,5.904,3.816,10.872,9.072,12.6V94.104c-2.088,0.288-4.176,0.432-6.336,0.648v-20.52c2.16-0.144,4.248-0.288,6.336-0.432
				V53.496c-2.088,0.144-4.176,0.288-6.336,0.36V33.552c2.16-0.072,4.248-0.144,6.336-0.288V13.032
				c-2.088,0-4.176,0.072-6.336,0.072V2.952V2.376l0.072-0.504l0.072-0.504l0.072-0.504l0.144-0.504l0.144-0.504l0.144-0.504
				l0.144-0.432l0.216-0.432l0.216-0.504l0.288-0.432l0.288-0.432l0.288-0.36l0.288-0.432l0.36-0.36l0.288-0.36l0.36-0.36
				l0.36-0.288l0.36-0.36l0.432-0.288l0.432-0.288l0.432-0.216l0.432-0.216l0.432-0.216h0.072V-9.576z"/>
		</g>
	</g>
</g>
</svg>
