<?xml version="1.0" encoding="utf-8"?>
<!-- Generator: Adobe InDesign 4.0 SVG Export Plug-in, SVG Library version: 6.0 build 159 -->
<!DOCTYPE svg PUBLIC "-//W3C//DTD SVG 1.0//EN"    "http://www.w3.org/TR/SVG/DTD/svg10.dtd" [
	<!ENTITY ns_svg "http://www.w3.org/2000/svg">
	<!ENTITY ns_xlink "http://www.w3.org/1999/xlink">
]>
<svg  xmlns="&ns_svg;" xmlns:xlink="&ns_xlink;" width="280pt" height="279.13pt" xml:space="preserve">
<clipPath id="clp1" fill="none">
	<path shape-rendering="crispEdges" stroke="#000000" d="M0,0h280v279.13H0z"/>
</clipPath>
<g clip-path="url(#clp1)" fill="none">
	<clipPath id="clp2">
		<path shape-rendering="crispEdges" stroke="#000000" d="M1,1v277.13h278V1H1z"/>
	</clipPath>
	<g clip-path="url(#clp2)">
		<g transform="matrix(2 0 0 -2 -957 257)">
			<path fill-rule="evenodd" fill="#000000" d="M609.84,127.296c4.608-2.016,7.848-6.696,7.848-12.096V2.952
				c0-5.4-3.24-10.008-7.848-12.096v3.168h0.072l0.432,0.288l0.432,0.288l0.36,0.36l0.36,0.288l0.36,0.36l0.36,0.36l0.36,0.36
				l0.288,0.432l0.288,0.36l0.288,0.432l0.216,0.432l0.288,0.504l0.072,0.216c-1.368,0-2.808,0.072-4.176,0.144v6.624
				c1.656-0.144,3.384-0.288,5.112-0.432v6.408c-1.728,0.216-3.456,0.432-5.112,0.648v6.624c1.656-0.36,3.384-0.576,5.112-0.864
				v6.48c-1.728,0.288-3.456,0.648-5.112,1.008V127.296z M596.808,128.376h7.704c1.872,0,3.672-0.36,5.328-1.08V25.344
				c-1.728,0.432-3.456,0.864-5.112,1.368c-0.072-2.304-0.072-4.608-0.072-6.912c1.728-0.432,3.456-0.792,5.184-1.08v-6.624
				c-1.728,0.216-3.456,0.504-5.184,0.792c0-2.304,0-4.608,0-6.84c1.728-0.216,3.456-0.432,5.184-0.576v-6.624
				c-1.8,0.072-3.528,0.144-5.256,0.288v-6.552h0.504h0.504l0.504,0.072l0.504,0.072l0.504,0.144l0.504,0.144l0.504,0.144
				l0.432,0.216l0.504,0.216l0.432,0.216l0.36,0.216v-3.168c-1.656-0.648-3.456-1.08-5.328-1.08h-7.704v10.008
				c2.592-0.216,5.184-0.432,7.776-0.648c0,2.304,0,4.608,0.072,6.912c-2.664,0.36-5.256,0.792-7.848,1.296v7.56
				c2.592-0.792,5.256-1.44,7.848-2.016c0,2.304,0,4.608,0,6.912c-2.592,0.72-5.256,1.656-7.848,2.664V128.376z M581.112,128.376
				h15.696V22.464c-2.664,1.008-5.256,2.16-7.848,3.312c0-2.736-0.072-5.544-0.072-8.352c2.664-0.864,5.256-1.728,7.92-2.52v-7.56
				c-2.664,0.504-5.328,1.08-7.992,1.728c0-2.808-0.072-5.616-0.072-8.424c2.664-0.288,5.4-0.576,8.064-0.864v-10.008h-15.696v2.808
				h7.632v8.064c-2.52,0.432-5.112,0.864-7.632,1.296v9.648c2.52-0.936,5.112-1.728,7.704-2.52c0,2.808,0.072,5.544,0.072,8.352
				c-2.592,1.224-5.184,2.448-7.776,3.816v9.648c2.592-1.8,5.184-3.456,7.848-5.112c0,2.808,0,5.616,0,8.424
				c-2.664,2.016-5.256,4.104-7.848,6.408V128.376z M565.272,128.376h15.84V40.608c-2.664,2.304-5.256,4.752-7.92,7.488
				c0-3.744,0-7.416,0-11.16c2.664-2.232,5.256-4.176,7.92-6.048V21.24c-2.664,1.368-5.328,2.88-7.992,4.536
				c0-3.672-0.072-7.416-0.144-11.088c2.736-1.152,5.4-2.16,8.136-3.096V1.944c-2.736,0.504-5.472,1.008-8.136,1.584
				c-0.072-3.672-0.072-7.344-0.072-10.944h8.208v-2.808h-15.84V5.472c2.592-0.72,5.112-1.296,7.704-1.944c0,3.744,0,7.416,0,11.16
				c-2.52,1.224-5.112,2.52-7.704,3.816v13.104c2.664-2.016,5.256-3.96,7.848-5.832c0.072,3.744,0.072,7.416,0.072,11.16
				c-2.592,2.52-5.256,5.112-7.92,7.776V128.376z M549.648,128.376h15.624V44.712c-2.592,2.664-5.184,5.4-7.776,8.064
				c0-5.04-0.072-10.08-0.072-15.048c2.592-2.088,5.256-4.104,7.848-6.12V18.504c-2.664,1.368-5.328,2.808-8.064,4.176
				c-0.072-5.04-0.072-10.08-0.072-15.12c2.736-0.72,5.4-1.44,8.136-2.088v-15.696h-15.624v2.808h3.6h3.816
				c0,4.968,0,10.008,0.072,14.976c-2.52,0.72-4.968,1.368-7.488,2.016v17.136c2.52-1.368,5.04-2.664,7.56-4.032
				c0.072,4.968,0.144,10.008,0.216,15.048c-2.592,2.016-5.184,4.104-7.776,6.192v17.208c2.664-2.808,5.256-5.616,7.848-8.352
				c0,4.968,0,10.008,0.072,15.12c-2.664,3.456-5.256,6.984-7.92,10.512V128.376z M533.88,128.376h15.768V78.408
				c-2.592,3.528-5.184,6.984-7.776,10.44c0-6.408-0.072-12.816-0.072-19.296c2.592-2.808,5.256-5.616,7.848-8.424V43.92
				c-2.664,2.16-5.328,4.32-7.992,6.408c-0.072-6.408-0.144-12.816-0.216-19.224c2.736-1.44,5.472-2.88,8.208-4.392V9.576
				c-2.736,0.792-5.544,1.512-8.352,2.304c0-6.408,0-12.816,0-19.296c2.736,0,5.544,0,8.352,0v-2.808H533.88V13.68
				c2.448-0.576,4.968-1.152,7.416-1.8c0,6.408,0.072,12.816,0.144,19.224c-2.52,1.296-5.04,2.52-7.56,3.744v21.168
				c2.592-1.8,5.184-3.672,7.776-5.688c0.072,6.408,0.144,12.816,0.144,19.224c-2.664,2.664-5.256,5.256-7.92,7.704V128.376z
				 M518.328,128.376h15.552v-51.12c-2.592,2.448-5.184,4.752-7.776,6.912c0-7.632-0.072-15.264-0.144-22.824
				c2.664-1.728,5.256-3.456,7.92-5.328V34.848c-2.736,1.296-5.472,2.52-8.208,3.672c-0.144-7.632-0.144-15.264-0.216-22.896
				c2.808-0.576,5.616-1.224,8.424-1.944v-23.904h-15.552V-7.2c2.376,0,4.752,0,7.128-0.072c0,7.632,0,15.264,0,22.896
				c-2.376,0.504-4.752,0.936-7.128,1.296v24.12c2.448-0.792,4.896-1.584,7.344-2.52c0.072,7.56,0.144,15.192,0.288,22.824
				c-2.592,1.44-5.112,2.736-7.632,3.96v24.264c2.592-1.656,5.184-3.384,7.776-5.4c0.072,7.632,0.072,15.264,0.072,22.968
				c-2.592,2.448-5.256,4.68-7.848,6.768V128.376z M502.416,128.376h15.912v-14.472c-2.664,2.088-5.256,3.96-7.848,5.76
				c0-8.496-0.072-16.992-0.072-25.488c2.664-1.44,5.256-2.952,7.92-4.608V65.304c-2.736,1.296-5.4,2.448-8.136,3.6
				c-0.144-8.424-0.216-16.92-0.36-25.344c2.808-0.792,5.616-1.584,8.496-2.52V16.92c-2.952,0.504-5.832,0.864-8.712,1.296
				c0-8.496,0-16.92,0-25.344c2.88-0.072,5.76-0.072,8.712-0.072v-3.024h-15.912v29.16c2.448-0.216,4.824-0.432,7.2-0.72
				c0.072,8.424,0.144,16.92,0.216,25.344c-2.448,0.504-4.968,1.008-7.416,1.44v26.064c2.592-0.648,5.184-1.368,7.776-2.16
				c0.072,8.424,0.144,16.848,0.216,25.272c-2.664,1.152-5.328,2.16-7.992,3.024V128.376z M492.264,128.376h10.152V97.2
				c-2.592,0.864-5.184,1.584-7.776,2.232c0-8.928-0.144-17.784-0.216-26.64c2.664-0.504,5.328-1.08,7.992-1.728V45
				c-2.808,0.432-5.616,0.864-8.424,1.224c-0.072-8.928-0.144-17.784-0.216-26.64c2.88-0.216,5.76-0.432,8.64-0.648v-29.16h-10.152
				c-1.368,0-2.736,0.216-3.96,0.648v2.952l0.432-0.216l0.432-0.144l0.432-0.144c1.368,0,2.736,0,4.176,0c0,8.928,0,17.784,0,26.712
				c-1.8,0.072-3.672,0.144-5.472,0.216v26.856c1.872-0.144,3.816-0.288,5.688-0.432c0.216,8.856,0.288,17.712,0.432,26.568
				c-2.016,0.288-4.104,0.504-6.12,0.72v26.856c2.088-0.288,4.248-0.576,6.336-0.936c0.072,8.712,0.072,17.424,0.072,26.208h-2.376
				h-0.576l-0.576-0.072l-0.504-0.072l-0.504-0.072l-0.504-0.144l-0.504-0.144l-0.432-0.144l-0.432-0.144v2.952
				C489.528,128.16,490.896,128.376,492.264,128.376z M488.304-9.576c-5.328,1.656-9.216,6.624-9.216,12.528V115.2
				c0,5.904,3.888,10.872,9.216,12.6v-2.952l-0.072-0.072l-0.432-0.216l-0.504-0.216l-0.432-0.216l-0.36-0.288l-0.432-0.288
				l-0.432-0.288l-0.36-0.36l-0.36-0.36l-0.36-0.36l-0.288-0.36l-0.36-0.36l-0.288-0.432l-0.216-0.432l-0.288-0.432l-0.216-0.432
				l-0.216-0.504l-0.216-0.432l-0.144-0.504l-0.144-0.504l-0.072-0.504l-0.144-0.504l-0.072-0.504v-0.504V115.2v-14.256
				c2.088-0.144,4.248-0.36,6.408-0.576V73.512c-2.16,0.144-4.32,0.288-6.408,0.432v-27c2.088-0.072,4.248-0.144,6.408-0.288V19.8
				c-2.16,0.072-4.32,0.072-6.408,0.144V2.952V2.376V1.872l0.072-0.504l0.144-0.504l0.072-0.504l0.144-0.504l0.144-0.504
				l0.216-0.432l0.216-0.432l0.216-0.504l0.288-0.432l0.216-0.432l0.288-0.36l0.36-0.432l0.288-0.36l0.36-0.36l0.36-0.36l0.36-0.288
				l0.432-0.36l0.432-0.288l0.36-0.288l0.432-0.216l0.504-0.216l0.432-0.216h0.072V-9.576z"/>
		</g>
	</g>
</g>
</svg>
