<?xml version="1.0" encoding="utf-8"?>
<!-- Generator: Adobe InDesign 4.0 SVG Export Plug-in, SVG Library version: 6.0 build 159 -->
<!DOCTYPE svg PUBLIC "-//W3C//DTD SVG 1.0//EN"    "http://www.w3.org/TR/SVG/DTD/svg10.dtd" [
	<!ENTITY ns_svg "http://www.w3.org/2000/svg">
	<!ENTITY ns_xlink "http://www.w3.org/1999/xlink">
]>
<svg  xmlns="&ns_svg;" xmlns:xlink="&ns_xlink;" width="1241pt" height="215pt" xml:space="preserve">
<clipPath id="clp1" fill="none">
	<path shape-rendering="crispEdges" stroke="#000000" d="M0,0h1241v215H0z"/>
</clipPath>
<g clip-path="url(#clp1)" fill="none">
	<clipPath id="clp2">
		<path shape-rendering="crispEdges" stroke="#000000" d="M1,1v213h1239V1H1z"/>
	</clipPath>
	<g clip-path="url(#clp2)">
		<g transform="matrix(3 0 0 -3 -263 1729)">
			<path fill="#000000" d="M289.152,505.224v10.584c1.584-0.216,3.24-0.36,5.112-0.36c5.184,0,10.44,0.504,15.696,1.512v-10.44
				c-4.608-1.008-10.224-1.512-16.704-1.512C291.816,505.008,290.52,505.08,289.152,505.224L289.152,505.224z M289.152,526.464
				v9.144h11.088v0.432c0,7.2-3.6,10.8-10.872,10.8h-0.216v10.296h0.216c15.768,0,23.616-8.064,23.616-24.192
				c0-2.16-0.072-4.32-0.432-6.48H289.152L289.152,526.464z M324.144,505.008V576h31.752c14.472,0,21.744-6.696,21.744-20.016
				c0-14.472-9.936-23.184-29.736-26.208l-1.872,11.664c11.88,2.16,17.856,6.912,17.856,14.184c0,5.904-2.952,8.784-8.856,8.784
				H337.32v-59.4H324.144L324.144,505.008z M386.28,505.008V576h13.68l24.048-53.856L447.624,576h13.104v-70.992H448.56v49.464
				l-19.224-49.464h-11.232l-19.656,49.464v-49.464H386.28z M289.152,557.136V546.84c-6.768-0.072-10.512-3.816-11.088-11.232
				h11.088v-9.144h-11.088c0-6.048,3.672-9.648,11.088-10.656v-10.584c-16.128,1.224-24.264,10.008-24.264,26.496
				C264.888,548.568,273.024,557.064,289.152,557.136L289.152,557.136z M171.864,504.936v10.008c8.424,0,12.672,5.472,12.672,16.344
				c0,10.656-4.248,15.912-12.672,15.912v10.08c17.208,0,25.848-8.712,25.848-26.208
				C197.712,513.648,189.072,504.936,171.864,504.936L171.864,504.936z M207.576,505.008v52.128H217.8l1.584-7.632
				c5.04,5.112,10.728,7.632,17.064,7.632c12.384,0,18.576-6.408,18.576-19.224v-32.904h-13.176v32.904c0,5.76-2.88,8.64-8.568,8.64
				c-4.248,0-8.424-1.728-12.528-5.112v-36.432H207.576z M122.976,543.528c-2.664,1.8-6.12,2.736-10.224,2.736
				c-0.288,0-0.648-0.072-1.008-0.072v10.944c0.144,0,0.36,0,0.504,0c3.528,0,7.128-0.792,10.728-2.448V576h13.176v-67.824
				c-7.992-2.088-15.768-3.168-23.4-3.168c-0.288,0-0.648,0.072-1.008,0.072v11.16c0.504-0.072,1.008-0.072,1.512-0.072
				c3.456,0,6.696,0.504,9.72,1.44V543.528L122.976,543.528z M171.864,557.28V547.2c-8.424,0-12.6-5.256-12.6-15.912
				c0-10.872,4.176-16.344,12.6-16.344v-10.008c-17.136,0-25.704,8.712-25.776,26.136
				C146.088,548.568,154.656,557.28,171.864,557.28z M111.744,546.192c-7.488-0.36-11.232-4.968-11.232-13.68
				c0-10.224,3.744-15.696,11.232-16.272v-11.16c-16.128,0.36-24.192,9.36-24.192,27.072c0,16.488,8.064,24.84,24.192,24.984
				V546.192z"/>
		</g>
		<g transform="matrix(3 0 0 -3 -263 1729)">
			<path fill-rule="evenodd" fill="#000000" d="M498.816,575.856c1.08-0.432,1.8-1.512,1.8-2.808v-25.92
				c0-1.296-0.72-2.376-1.8-2.808v0.72l0,0l0.144,0.072l0.072,0.072l0.072,0.072l0.072,0.072l0.144,0.072l0.072,0.072l0.072,0.072
				l0.072,0.144l0.072,0.072v0.072l0.072,0.144l0.072,0.072v0.072c-0.288,0-0.648,0-0.936,0v1.584
				c0.36-0.072,0.792-0.072,1.152-0.144v1.512c-0.36,0-0.792,0.072-1.152,0.144v1.512c0.36-0.072,0.792-0.144,1.152-0.216v1.512
				c-0.36,0.072-0.792,0.144-1.152,0.216V575.856z M495.792,576.144h1.8c0.432,0,0.864-0.144,1.224-0.288V552.24
				c-0.432,0.144-0.792,0.216-1.224,0.36c0-0.576,0-1.08,0-1.584c0.432-0.144,0.792-0.216,1.224-0.288v-1.512
				c-0.432,0.072-0.792,0.144-1.224,0.216c0-0.576,0-1.08,0-1.656c0.432,0,0.792-0.072,1.224-0.072v-1.584
				c-0.432,0.072-0.792,0.072-1.224,0.072v-1.512h0.144h0.072h0.144l0.144,0.072h0.072l0.144,0.072h0.072l0.144,0.072h0.072
				l0.144,0.072l0.072,0.072v-0.72c-0.36-0.216-0.792-0.288-1.224-0.288h-1.8v2.304c0.576,0,1.224-0.072,1.8-0.144
				c0,0.576,0,1.08,0,1.584c-0.576,0.144-1.224,0.216-1.8,0.36v1.728c0.576-0.216,1.224-0.36,1.8-0.432c0,0.504,0,1.008,0,1.584
				c-0.576,0.144-1.224,0.36-1.8,0.576V576.144z M492.192,576.144h3.6v-24.552c-0.576,0.216-1.224,0.504-1.8,0.792
				c0-0.648,0-1.296,0-1.944c0.576-0.216,1.224-0.432,1.8-0.576v-1.728c-0.648,0.072-1.224,0.216-1.872,0.36
				c0-0.648,0-1.296,0-1.944c0.648-0.072,1.224-0.144,1.872-0.216v-2.304h-3.6v0.648h1.728v1.872
				c-0.576,0.072-1.152,0.216-1.728,0.288v2.232c0.576-0.216,1.152-0.36,1.728-0.576c0,0.648,0.072,1.296,0.072,1.944
				c-0.648,0.288-1.224,0.576-1.8,0.864v2.232c0.576-0.432,1.152-0.792,1.8-1.152c0,0.648,0,1.296,0,1.944
				c-0.648,0.432-1.224,0.936-1.8,1.512V576.144z M488.52,576.144h3.672V555.84c-0.648,0.504-1.224,1.08-1.872,1.728
				c0-0.864,0-1.728,0-2.592c0.648-0.504,1.224-1.008,1.872-1.44v-2.232c-0.648,0.36-1.224,0.72-1.872,1.08c0-0.864,0-1.728,0-2.592
				c0.576-0.216,1.224-0.504,1.872-0.72v-2.232c-0.648,0.144-1.296,0.216-1.944,0.36c0-0.792,0-1.656,0-2.52h1.944v-0.648h-3.672
				v3.672c0.576-0.216,1.152-0.36,1.728-0.504c0,0.864,0,1.728,0.072,2.592c-0.648,0.288-1.224,0.576-1.8,0.864v3.096
				c0.576-0.504,1.224-0.936,1.8-1.368c0,0.864,0,1.728,0,2.592c-0.576,0.576-1.224,1.152-1.8,1.8V576.144z M484.92,576.144h3.6
				v-19.368c-0.648,0.576-1.224,1.224-1.8,1.872c0-1.224,0-2.376-0.072-3.528c0.648-0.432,1.224-0.936,1.872-1.368v-3.096
				c-0.648,0.36-1.296,0.648-1.872,1.008c0-1.152,0-2.304-0.072-3.528c0.648-0.144,1.296-0.288,1.944-0.432v-3.672h-3.6v0.648h0.792
				h0.864c0,1.152,0,2.304,0,3.456c-0.504,0.216-1.08,0.36-1.656,0.504v3.96l1.728-0.936c0,1.152,0,2.304,0,3.456l-1.728,1.44v3.96
				l1.8-1.872c0,1.152,0,2.304,0,3.456c-0.648,0.792-1.224,1.656-1.8,2.448V576.144z M481.248,576.144h3.672v-11.592L483.048,567
				c0-1.512,0-3.024,0-4.464c0.648-0.648,1.224-1.296,1.872-2.016v-3.96c-0.648,0.504-1.296,1.008-1.872,1.512
				c0-1.512-0.072-2.952-0.072-4.464l1.944-1.008v-3.96l-1.944,0.504c0-1.44,0-2.952,0-4.464h1.944v-0.648h-3.672v5.544
				c0.576-0.144,1.152-0.288,1.728-0.432c0,1.512,0,2.952,0,4.464c-0.576,0.288-1.152,0.576-1.728,0.864v4.896
				c0.576-0.432,1.224-0.864,1.8-1.296c0,1.44,0,2.952,0,4.464c-0.576,0.576-1.224,1.152-1.8,1.728V576.144z M477.648,576.144h3.6
				v-11.88c-0.576,0.576-1.224,1.08-1.8,1.656c0-1.8,0-3.6-0.072-5.328c0.648-0.36,1.224-0.792,1.872-1.224v-4.896
				c-0.648,0.288-1.296,0.576-1.944,0.864c0-1.8,0-3.528,0-5.328c0.648-0.144,1.296-0.288,1.944-0.432v-5.544h-3.6v0.72h1.656
				c0,1.728,0,3.528,0,5.256c-0.576,0.144-1.152,0.216-1.656,0.288v5.616c0.576-0.216,1.08-0.36,1.656-0.576
				c0.072,1.728,0.072,3.528,0.072,5.256c-0.576,0.36-1.152,0.648-1.728,0.936v5.616c0.576-0.36,1.224-0.792,1.8-1.224
				c0,1.728,0,3.528,0,5.256c-0.576,0.576-1.224,1.08-1.8,1.584V576.144z M473.976,576.144h3.672v-3.384
				c-0.648,0.504-1.224,0.936-1.8,1.368c0-2.016-0.072-3.96-0.072-5.904c0.648-0.36,1.224-0.72,1.872-1.08v-5.616
				c-0.648,0.288-1.296,0.576-1.872,0.792c-0.072-1.944-0.072-3.888-0.072-5.832c0.648-0.144,1.296-0.36,1.944-0.576v-5.616
				c-0.72,0.144-1.368,0.216-2.016,0.36c0-2.016,0-3.96,0-5.904h2.016v-0.72h-3.672v6.768c0.504-0.072,1.08-0.144,1.656-0.144
				c0,1.944,0,3.888,0.072,5.832c-0.576,0.144-1.152,0.216-1.728,0.36v5.976c0.576-0.144,1.152-0.288,1.8-0.504
				c0,1.944,0,3.96,0,5.904c-0.576,0.216-1.224,0.504-1.8,0.648V576.144z M471.6,576.144h2.376v-7.272
				c-0.648,0.216-1.224,0.432-1.8,0.504c0-2.016-0.072-4.104-0.072-6.12c0.648-0.144,1.224-0.216,1.872-0.432v-5.976
				c-0.648,0.072-1.296,0.144-1.944,0.288c-0.072-2.088-0.072-4.176-0.072-6.192c0.648-0.072,1.368-0.072,2.016-0.144v-6.768H471.6
				c-0.288,0-0.648,0.072-0.936,0.144v0.72l0.144-0.072h0.072l0.144-0.072c0.288,0,0.576,0,0.936,0c0,2.088,0,4.104,0,6.192
				c-0.432,0-0.864,0-1.296,0.072v6.192c0.432,0,0.936-0.072,1.368-0.072c0,2.016,0.072,4.032,0.072,6.12
				c-0.504,0.072-0.936,0.144-1.44,0.144v6.264c0.504-0.072,1.008-0.144,1.512-0.288c0,2.088,0,4.104,0,6.12H471.6h-0.144h-0.072
				l-0.144-0.072h-0.144h-0.072l-0.144-0.072h-0.072l-0.144-0.072V576C470.952,576.072,471.312,576.144,471.6,576.144z
				 M470.664,544.176c-1.224,0.432-2.088,1.584-2.088,2.952v25.92c0,1.368,0.864,2.52,2.088,2.952v-0.72l0,0l-0.072-0.072h-0.144
				l-0.072-0.072l-0.144-0.072l-0.072-0.072l-0.072-0.072l-0.072-0.072l-0.072-0.072l-0.144-0.072l-0.072-0.072l-0.072-0.144
				l-0.072-0.072v-0.072l-0.072-0.144l-0.072-0.072l-0.072-0.144v-0.072l-0.072-0.144v-0.072l-0.072-0.144v-0.144v-0.072v-0.144
				v-0.144v-3.312c0.504,0,0.936-0.072,1.44-0.072V563.4c-0.504,0.072-0.936,0.072-1.44,0.144v-6.264
				c0.504,0,0.936-0.072,1.44-0.072v-6.192c-0.504,0-0.936,0-1.44,0v-3.888v-0.144v-0.144v-0.144v-0.072l0.072-0.144v-0.072
				l0.072-0.144v-0.072l0.072-0.144l0.072-0.072l0.072-0.144v-0.072l0.072-0.072l0.072-0.144l0.072-0.072l0.144-0.072l0.072-0.072
				l0.072-0.072l0.072-0.072l0.072-0.072l0.144-0.072l0.072-0.072l0.144-0.072h0.072l0,0V544.176z"/>
		</g>
	</g>
</g>
</svg>
