<?xml version="1.0" encoding="utf-8"?>
<!-- Generator: Adobe InDesign 4.0 SVG Export Plug-in, SVG Library version: 6.0 build 159 -->
<!DOCTYPE svg PUBLIC "-//W3C//DTD SVG 1.0//EN"    "http://www.w3.org/TR/SVG/DTD/svg10.dtd" [
	<!ENTITY ns_svg "http://www.w3.org/2000/svg">
	<!ENTITY ns_xlink "http://www.w3.org/1999/xlink">
]>
<svg  xmlns="&ns_svg;" xmlns:xlink="&ns_xlink;" width="302pt" height="298pt" xml:space="preserve">
<clipPath id="clp1" fill="none">
	<path shape-rendering="crispEdges" stroke="#000000" d="M0,0h302v298H0z"/>
</clipPath>
<g clip-path="url(#clp1)" fill="none">
	<clipPath id="clp2">
		<path shape-rendering="crispEdges" stroke="#000000" d="M1,1v296h300V1H1z"/>
	</clipPath>
	<g clip-path="url(#clp2)">
		<g transform="matrix(4 0 0 -4 -347 2757)">
			<path fill-rule="evenodd" fill="#000000" d="M157.464,615.312v2.52l1.08-0.072l0.144,0.144l0.216,0.216l0.144,0.216l0.216,0.216
				l0,0c-0.576,0.072-1.224,0.072-1.8,0.072v0.864c0.792-0.072,1.512-0.072,2.304-0.144l0.072,0.144l0.072,0.216l0.144,0.288v0.144
				c-0.864,0.072-1.728,0.144-2.592,0.144v68.688c2.592-1.08,4.392-3.6,4.392-6.552v-60.552c0-0.576-0.072-1.224-0.216-1.8
				c-0.072-0.144-0.072-0.216-0.144-0.36l0,0l0,0c0-0.144-0.072-0.216-0.072-0.288l0,0v-0.072h-0.072l0,0l0,0l0,0l0,0v-0.072l0,0
				l0,0c-0.072-0.216-0.216-0.504-0.36-0.792l0,0l0,0l-0.072-0.072l0,0l-0.072-0.072l0,0c0-0.072,0-0.144-0.072-0.144v-0.072l0,0
				l0,0l0,0c-0.072-0.144-0.216-0.288-0.288-0.36c-0.216-0.288-0.432-0.576-0.648-0.792c-0.144-0.144-0.288-0.288-0.36-0.36l0,0
				h-0.072v-0.072l0,0l0,0l0,0l-0.072-0.072l0,0l-0.072-0.072l0,0C158.76,615.96,158.112,615.6,157.464,615.312z M157.464,688.968
				V620.28c-0.432,0.072-0.936,0.072-1.368,0.144v68.904C156.6,689.256,157.032,689.112,157.464,688.968L157.464,688.968z
				 M157.464,619.488v-0.864c-0.432,0-0.936,0.072-1.368,0.072v0.864C156.528,619.488,157.032,619.488,157.464,619.488
				L157.464,619.488z M157.464,617.832v-2.52c-0.432-0.144-0.864-0.288-1.368-0.36v1.512h0.072l0.216,0.072l0.288,0.072l0.288,0.144
				l0.216,0.072l0.216,0.144h-1.296v0.864C156.528,617.832,157.032,617.832,157.464,617.832z M156.096,689.328v-68.904
				c-0.432,0-0.864,0-1.224,0.072c-0.072-0.288-0.072-0.576-0.072-0.864c0.432-0.072,0.864-0.072,1.296-0.072v-0.864
				c-0.432,0-0.864,0-1.296,0.072c0-0.288,0-0.576,0-0.864c0.432-0.072,0.864-0.072,1.296-0.072v-0.864H154.8v-0.648h0.216h0.288
				h0.288l0.288,0.072l0.216,0.072v-1.512c-0.432-0.144-0.864-0.144-1.368-0.144h-4.176v2.304c1.44-0.072,2.808-0.072,4.248-0.144
				c0,0.288,0,0.648,0,0.936c-1.44,0-2.808,0.072-4.248,0.144v1.008c1.44-0.144,2.88-0.216,4.248-0.288c0,0.288,0,0.576,0,0.864
				c-1.368,0.072-2.808,0.216-4.248,0.36v69.48h4.176C155.232,689.472,155.664,689.4,156.096,689.328z M150.552,689.472v-69.48
				c-1.368,0.144-2.808,0.288-4.176,0.432c0-0.288-0.072-0.72-0.072-1.08c1.44-0.072,2.88-0.216,4.248-0.288v-1.008
				c-1.44,0.072-2.808,0.144-4.248,0.216c0-0.36-0.072-0.72-0.072-1.08c1.44,0,2.88-0.072,4.32-0.072v-2.304h-8.424v1.512h4.104
				v0.864c-1.368,0.072-2.736,0.144-4.104,0.216v1.224c1.368-0.072,2.736-0.216,4.176-0.36c0,0.36,0,0.72,0,1.08
				c-1.368,0.216-2.808,0.36-4.176,0.576v1.224c1.368-0.216,2.808-0.432,4.248-0.72c0,0.432,0,0.792,0,1.152
				c-1.44,0.216-2.88,0.504-4.248,0.864v20.592c3.672,3.456,5.976,8.352,5.976,13.752c0,5.4-2.304,10.296-5.976,13.752v18.936
				H150.552L150.552,689.472z M142.128,645.984c2.448,2.88,3.96,6.696,3.96,10.8c0,4.104-1.512,7.92-3.96,10.8V645.984z
				 M142.128,689.472v-18.936c-2.376,2.232-5.256,3.816-8.496,4.536v14.4H142.128L142.128,689.472z M142.128,667.584
				c-2.16,2.592-5.112,4.536-8.496,5.4v-2.952v0.072l7.632-6.48l-7.632-9v-14.04c3.384,0.864,6.336,2.808,8.496,5.4V667.584
				L142.128,667.584z M142.128,643.032V622.44c-1.44,0.288-2.808,0.648-4.248,1.008c0-0.504,0-0.936,0-1.44
				c1.44-0.288,2.808-0.576,4.248-0.864v-1.224c-1.44,0.144-2.88,0.36-4.248,0.576c-0.072-0.432-0.072-0.936-0.144-1.44
				c1.512-0.144,2.952-0.288,4.392-0.432V617.4c-1.44,0.072-2.952,0.144-4.392,0.216c0-0.432,0-0.864,0-1.296h4.392v-1.512h-8.496
				v3.096c1.368-0.144,2.736-0.216,4.104-0.288c0,0.504,0,0.936,0,1.44c-1.368,0.216-2.736,0.36-4.104,0.576v1.728
				c1.368-0.288,2.808-0.576,4.248-0.864c0,0.504,0,1.008,0,1.512c-1.44,0.36-2.88,0.72-4.248,1.08v15.408
				C136.872,639.216,139.752,640.8,142.128,643.032z M133.632,689.472v-14.4c-1.44,0.36-2.88,0.504-4.392,0.504
				c-1.368,0-2.736-0.144-4.032-0.432v14.328H133.632L133.632,689.472z M133.632,672.984v-2.952l-8.424-9.936v12.96
				c1.296,0.36,2.664,0.504,4.032,0.504C130.752,673.56,132.264,673.416,133.632,672.984L133.632,672.984z M133.632,654.624v-14.04
				c-1.368-0.36-2.88-0.576-4.392-0.576c-1.368,0-2.736,0.144-4.032,0.504v6.912l3.096,0.936l-3.096,2.664v1.8l3.96-3.384
				L133.632,654.624L133.632,654.624z M133.632,638.496v-15.408c-1.44,0.36-2.808,0.72-4.248,1.08c0-0.72,0-1.368,0-2.016
				c1.368-0.288,2.808-0.576,4.248-0.792v-1.728c-1.44,0.144-2.952,0.36-4.392,0.504c0-0.648,0-1.296-0.072-1.944
				c1.512-0.144,2.952-0.216,4.464-0.288v-3.096h-8.424v1.512h3.96c0,0.576,0,1.224,0,1.872l-3.96,0.216v2.304l4.032-0.576
				c0.072,0.72,0.072,1.368,0.144,2.016l-4.176,0.792v2.304l4.176-1.08c0.072,0.648,0.072,1.296,0.072,2.016
				c-1.44,0.432-2.88,0.864-4.248,1.368v10.872c1.296-0.288,2.664-0.432,4.032-0.432
				C130.752,637.992,132.192,638.136,133.632,638.496z M125.208,689.472v-14.328c-3.24-0.72-6.12-2.232-8.496-4.392v18.72H125.208
				L125.208,689.472z M125.208,673.056c-3.384-0.792-6.336-2.664-8.496-5.184v-22.176c2.16-2.52,5.112-4.392,8.496-5.184v6.912
				l-5.832-1.872l1.296,9.288l4.536-3.816v1.8l-3.6,3.096l3.6,4.176V673.056L125.208,673.056z M125.208,638.424v-10.872
				l-4.248,1.368c0-0.864,0-1.656,0-2.52c1.44-0.432,2.808-0.792,4.248-1.152v-2.304c-1.44,0.288-2.88,0.576-4.32,0.864
				c-0.072-0.864-0.072-1.656-0.144-2.52l4.464-0.576v-2.304l-4.536,0.288c0-0.792,0-1.584,0-2.376h4.536v-1.512h-8.496v4.176
				c1.296-0.072,2.664-0.144,3.96-0.288c0,0.864,0.072,1.728,0.072,2.592c-1.368,0.144-2.736,0.36-4.032,0.504v2.808
				c1.368-0.288,2.808-0.504,4.176-0.792c0,0.864,0.072,1.728,0.072,2.592c-1.44,0.36-2.88,0.648-4.248,1.008v15.408
				C119.088,640.656,121.968,639.144,125.208,638.424z M116.712,689.472v-18.72c-3.888-3.384-6.264-8.424-6.264-13.968
				s2.376-10.512,6.264-13.968v-15.408c-1.44,0.288-2.808,0.648-4.176,0.936c-0.072-1.08-0.072-2.088-0.144-3.096
				c1.44-0.216,2.88-0.432,4.32-0.648v-2.808c-1.512,0.144-2.952,0.288-4.464,0.432c-0.072-1.008-0.072-2.016-0.072-3.024
				c1.512-0.072,3.024-0.144,4.536-0.216v-4.176h-8.424v1.512h3.816c0,0.936,0,1.944,0.072,2.88
				c-1.296,0.072-2.592,0.144-3.888,0.216v3.168c1.296-0.072,2.664-0.216,3.96-0.36c0.072,1.008,0.072,2.016,0.144,3.024
				c-1.368,0.216-2.736,0.432-4.104,0.576v3.168c1.44-0.216,2.808-0.432,4.248-0.648c0,1.008,0,2.016,0,3.024
				c-1.44,0.288-2.808,0.576-4.248,0.864v57.24H116.712L116.712,689.472z M116.712,667.872c-2.664-2.952-4.248-6.84-4.248-11.088
				s1.584-8.136,4.248-11.088V667.872z M99.72,630c1.44-0.072,2.88-0.216,4.32-0.36c0-1.152-0.072-2.232-0.144-3.384
				c-1.368,0.144-2.736,0.216-4.176,0.288v-3.456c1.368,0,2.664-0.072,4.032-0.144c-0.072-1.152-0.072-2.232-0.144-3.384
				c-1.296,0.072-2.592,0.072-3.888,0.072v-4.824h8.568v1.512h-4.68c0,1.08,0,2.16,0,3.24c1.584-0.072,3.096-0.072,4.68-0.144v3.168
				c-1.512,0.144-3.024,0.216-4.536,0.36c0.072,1.08,0.144,2.232,0.144,3.312c1.512-0.144,2.952-0.288,4.392-0.432v3.168
				c-1.44,0.288-2.808,0.432-4.248,0.648c0,1.152,0,2.232,0.072,3.384c1.368-0.216,2.808-0.504,4.176-0.792v57.24H99.72V630z
				 M95.544,630.36c1.44-0.144,2.808-0.216,4.176-0.36v59.472h-5.472l0,0c-0.072,0-0.072,0-0.144,0s-0.144,0-0.216,0
				c-0.072,0-0.072,0-0.144,0s-0.144,0-0.216,0c-0.072,0-0.072-0.072-0.144-0.072s-0.144,0-0.216,0c0,0-0.072,0-0.144,0
				c-0.072-0.072-0.144-0.072-0.216-0.072c0,0-0.072,0-0.144,0c-0.072-0.072-0.072-0.072-0.144-0.072s-0.144,0-0.216-0.072
				c0,0-0.072,0-0.144,0l0,0v-55.152c1.152-0.072,2.304-0.072,3.456-0.144C95.616,632.664,95.544,631.512,95.544,630.36
				c-1.152,0-2.304,0.072-3.384,0.072v-3.528c1.08,0,2.16-0.072,3.24-0.072c-0.072-1.224-0.072-2.376-0.216-3.528
				c-1.008,0-2.016,0-3.024,0v-3.528c0.936,0,1.944,0,2.952,0c0-1.152-0.072-2.304-0.072-3.456h-0.72h-0.36h-0.288h-0.288
				l-0.216,0.072l-0.288,0.072l-0.288,0.072l-0.216,0.072l-0.216,0.144v-1.656l0,0c0.072,0,0.144,0,0.144,0
				c0.072-0.072,0.144-0.072,0.216-0.072s0.072,0,0.144-0.072c0.072,0,0.144,0,0.144,0c0.072,0,0.144,0,0.216-0.072
				c0.072,0,0.144,0,0.144,0c0.072,0,0.144,0,0.216,0s0.072-0.072,0.144-0.072c0.072,0,0.144,0,0.216,0s0.072,0,0.144,0
				c0.072,0,0.144,0,0.216,0s0.072,0,0.144,0l0,0h5.472v4.824c-1.512,0.072-3.096,0.072-4.608,0.144
				c0,1.152,0.072,2.304,0.072,3.528c1.512-0.072,3.024-0.144,4.536-0.216v3.456c-1.44,0.144-2.88,0.216-4.32,0.288
				C95.472,627.984,95.544,629.136,95.544,630.36z M92.16,689.184v-55.152c-1.152,0.072-2.376,0.072-3.528,0.072v-3.6
				c1.152,0,2.376,0,3.528-0.072v-3.528c-1.152,0-2.376,0-3.528,0.072v-3.6c1.152,0,2.376,0,3.528-0.072v-3.528
				c-1.08,0-2.088,0-3.096,0l0.072-0.072l0.072-0.216l0.144-0.288l0.144-0.216l0.144-0.216l0.144-0.216l0.144-0.216l0.216-0.216
				l0.144-0.216l0.216-0.144l0.216-0.216l0.216-0.144l0.216-0.144l0.216-0.144l0.216-0.144l0.288-0.144l0.216-0.072h0.072v-1.656
				l-0.144,0.072c-0.072,0-0.144,0.072-0.216,0.072c0,0-0.072,0-0.144,0.072c-0.072,0-0.072,0-0.144,0.072
				c-0.072,0-0.072,0-0.144,0.072c-0.072,0-0.144,0-0.144,0.072c-0.072,0-0.144,0-0.144,0.072c-0.072,0-0.144,0-0.216,0.072
				c0,0-0.072,0.072-0.144,0.072c0,0-0.072,0.072-0.144,0.072c0,0.072-0.072,0.072-0.144,0.072c0,0.072-0.072,0.072-0.144,0.144
				c0,0-0.072,0.072-0.144,0.072c0,0.072-0.072,0.072-0.144,0.072c0,0.072-0.072,0.072-0.072,0.144
				c-0.072,0-0.144,0.072-0.144,0.072c-0.072,0.072-0.144,0.072-0.144,0.144l0,0l0,0l0,0l0,0h-0.072l0,0l0,0v0.072l0,0l0,0l0,0l0,0
				l0,0l0,0l0,0l0,0l0,0l0,0h-0.072l0,0l0,0l0,0l0,0l0,0v0.072l0,0l0,0l0,0h-0.072l0,0l0,0l0,0l0,0l0,0l-0.072,0.072l0,0l0,0l0,0
				c-0.072,0.144-0.144,0.216-0.216,0.288l0,0c-0.072,0.072-0.144,0.072-0.144,0.144l0,0l0,0l0,0l0,0l0,0l0,0H88.92l0,0l0,0v0.072
				l0,0l0,0l0,0l0,0l0,0l0,0l0,0l0,0l0,0l0,0l0,0l0,0l0,0l0,0l0,0h-0.072l0,0v0.072l0,0l0,0l0,0l0,0l0,0l0,0l0,0l0,0l0,0l0,0
				l-0.072,0.072l0,0l0,0l0,0l0,0l0,0l0,0l0,0l0,0l0,0l0,0l0,0l0,0l0,0l0,0l0,0v0.072h-0.072l0,0l0,0l0,0l0,0l0,0l0,0l0,0v0.072l0,0
				l0,0l0,0l0,0l0,0l0,0h-0.072l0,0l0,0l0,0l0,0l0,0l0,0l0,0l0,0l0,0l0,0l0,0l0,0l0,0l0,0v0.072l0,0l0,0l0,0l0,0l0,0l0,0l0,0l0,0
				l0,0l0,0l0,0l0,0l0,0l0,0l0,0l0,0l0,0l0,0l0,0H88.56l0,0v0.072l0,0l0,0l0,0l0,0l0,0l0,0l0,0l0,0l0,0l0,0l0,0l0,0l0,0v0.072l0,0
				h-0.072l0,0l0,0l0,0l0,0l0,0l0,0l0,0l0,0l0,0l0,0l0,0l0,0l0,0l0,0v0.072l0,0l0,0l0,0l0,0l0,0l0,0l0,0l0,0l0,0l0,0l0,0l0,0l0,0
				l0,0l0,0h-0.072l0,0l0,0l0,0v0.072l0,0l0,0l0,0l0,0l0,0l0,0l0,0l0,0l0,0l0,0l0,0l0,0l0,0l0,0l0,0l0,0l0,0l0,0l0,0l-0.072,0.072
				l0,0l0,0l0,0l0,0l0,0l0,0l0,0l0,0l0,0l0,0l0,0l0,0l0,0l0,0l0,0l0,0l0,0l0,0l0,0l0,0l0,0l0,0l0,0l0,0l0,0v0.072l0,0l0,0l0,0l0,0
				l0,0l0,0h-0.072l0,0l0,0l0,0l0,0l0,0l0,0l0,0l0,0v0.072l0,0l0,0l0,0l0,0l0,0l0,0l0,0l0,0l0,0l0,0l0,0l0,0l0,0l0,0l0,0l0,0l0,0
				l0,0l0,0l-0.072,0.072l0,0l0,0l0,0l0,0l0,0l0,0l0,0l0,0l0,0l0,0l0,0l0,0l0,0l0,0l0,0l0,0l0,0l0,0l-0.072,0.144l0,0v0.072l0,0l0,0
				l0,0l0,0l0,0l0,0h-0.072l0,0l0,0l0,0l0,0l0,0l0,0l0,0v0.072l0,0l0,0l0,0l0,0l0,0l0,0l0,0l0,0l0,0l0,0l0,0l0,0l0,0l0,0l0,0l0,0
				l0,0v0.072l0,0l0,0h-0.072l0,0l0,0l0,0l0,0l0,0l0,0l0,0l0,0l0,0l0,0v0.072l0,0l0,0l0,0l0,0l0,0l0,0l0,0l0,0l0,0l0,0l0,0l0,0l0,0
				l0,0l0,0l0,0l0,0l0,0l0,0l-0.072,0.072l0,0l0,0l0,0l0,0l0,0l0,0l0,0l0,0l0,0l0,0l0,0v0.072l0,0l0,0l0,0l0,0l0,0l0,0l0,0l0,0l0,0
				l0,0l0,0l0,0l0,0l0,0v0.072l0,0H87.84l0,0l0,0l0,0l0,0l0,0l0,0l0,0l0,0l0,0l0,0l0,0l0,0l0,0l0,0v0.072l0,0l0,0l0,0l0,0l0,0l0,0
				l0,0l0,0l0,0l0,0l0,0l0,0l0,0l0,0l0,0l0,0l0,0l0,0l0,0l0,0l0,0l0,0l0,0l0,0l0,0v0.072l0,0l0,0h-0.072l0,0v0.072l0,0l0,0l0,0l0,0
				l0,0l0,0l0,0l0,0v0.072l0,0l0,0l0,0l0,0l0,0l0,0l0,0l0,0l-0.072,0.072l0,0l0,0l0,0l0,0l0,0l0,0v0.072l0,0l0,0l0,0l0,0l0,0l0,0
				l0,0l0,0l0,0l0,0l0,0l0,0l0,0l0,0l0,0l0,0l0,0l0,0l0,0l0,0v0.072l0,0h-0.072l0,0l0,0l0,0l0,0l0,0l0,0l0,0l0,0l0,0l0,0l0,0l0,0
				l0,0l0,0l0,0l0,0l0,0v0.072l0,0l0,0l0,0l0,0l0,0l0,0l0,0l0,0l0,0l0,0l0,0l0,0l0,0l0,0l0,0l0,0l0,0l0,0l-0.072,0.144l0,0l0,0l0,0
				l0,0l0,0l0,0l0,0l0,0l0,0l0,0l0,0l0,0l0,0l0,0l0,0l0,0l0,0v0.072l0,0l0,0l0,0l0,0l0,0l0,0l0,0l0,0l0,0l0,0l0,0l0,0l0,0l0,0l0,0
				v0.072l0,0l0,0l0,0l0,0l0,0l0,0l0,0l0,0l0,0l0,0l0,0l0,0H87.48l0,0v0.072l0,0l0,0l0,0l0,0l0,0l0,0l0,0l0,0l0,0l0,0l0,0l0,0l0,0
				l0,0l0,0l0,0c0,0.072,0,0.144-0.072,0.144c0,0.072,0,0.144,0,0.216c0,0.072-0.072,0.072-0.072,0.144c0,0.072,0,0.144,0,0.216
				c0,0-0.072,0.072-0.072,0.144c0,0.072,0,0.144,0,0.144c0,0.072,0,0.144,0,0.216c-0.072,0.072-0.072,0.144-0.072,0.144
				c0,0.072,0,0.144,0,0.216c0,0.072,0,0.072,0,0.144c0,0.072,0,0.144,0,0.216c0,0.072,0,0.144,0,0.144v60.552c0,0,0,0.072,0,0.144
				c0,0.072,0,0.144,0,0.216c0,0,0,0.072,0,0.144c0,0.072,0,0.144,0,0.216c0,0,0,0.072,0.072,0.144c0,0.072,0,0.144,0,0.216
				c0,0,0,0.072,0,0.144s0.072,0.144,0.072,0.144c0,0.072,0,0.144,0,0.216s0.072,0.072,0.072,0.144c0,0.072,0,0.144,0,0.144
				c0.072,0.072,0.072,0.144,0.072,0.216s0.072,0.072,0.072,0.144c0,0.072,0,0.144,0.072,0.144c0,0.072,0,0.144,0.072,0.216
				c0,0,0,0.072,0.072,0.144c0,0.072,0,0.072,0,0.144c0.072,0.072,0.072,0.072,0.072,0.144c0.072,0.072,0.072,0.144,0.144,0.144
				c0,0.072,0,0.144,0.072,0.144c0,0.072,0,0.144,0.072,0.216c0,0,0.072,0.072,0.072,0.144c0,0,0.072,0.072,0.072,0.144
				c0.072,0,0.072,0.072,0.144,0.144c0,0,0.072,0.072,0.072,0.144c0,0,0.072,0.072,0.072,0.072c0.072,0.072,0.072,0.144,0.144,0.144
				c0,0.072,0.072,0.144,0.072,0.144c0.072,0.072,0.072,0.072,0.144,0.144c0,0.072,0.072,0.072,0.072,0.144
				c0.072,0,0.072,0.072,0.144,0.072c0.072,0.072,0.072,0.144,0.144,0.144c0,0.072,0.072,0.072,0.072,0.144
				c0.072,0,0.144,0.072,0.144,0.072c0.072,0.072,0.072,0.072,0.144,0.144c0,0.072,0.072,0.072,0.144,0.144
				c0,0,0.072,0.072,0.144,0.072c0,0.072,0.072,0.072,0.072,0.072c0.072,0.072,0.144,0.072,0.144,0.144
				c0.072,0,0.144,0.072,0.144,0.072c0.072,0.072,0.144,0.072,0.144,0.144c0.072,0,0.144,0,0.144,0.072
				c0.072,0,0.144,0.072,0.144,0.072c0.072,0,0.144,0.072,0.144,0.072c0.072,0.072,0.144,0.072,0.216,0.072
				c0,0.072,0.072,0.072,0.144,0.072c0,0.072,0.072,0.072,0.144,0.072c0.072,0.072,0.072,0.072,0.144,0.072
				c0.072,0.072,0.072,0.072,0.144,0.072c0.072,0.072,0.144,0.072,0.144,0.072c0.072,0,0.144,0.072,0.216,0.072L92.16,689.184z"/>
		</g>
	</g>
</g>
</svg>
