<?xml version="1.0" encoding="utf-8"?>
<!-- Generator: Adobe InDesign 4.0 SVG Export Plug-in, SVG Library version: 6.0 build 159 -->
<!DOCTYPE svg PUBLIC "-//W3C//DTD SVG 1.0//EN"    "http://www.w3.org/TR/SVG/DTD/svg10.dtd" [
	<!ENTITY ns_svg "http://www.w3.org/2000/svg">
	<!ENTITY ns_xlink "http://www.w3.org/1999/xlink">
]>
<svg  xmlns="&ns_svg;" xmlns:xlink="&ns_xlink;" width="230pt" height="233pt" xml:space="preserve">
<clipPath id="clp1" fill="none">
	<path shape-rendering="crispEdges" stroke="#000000" d="M0,0h230v233H0z"/>
</clipPath>
<g clip-path="url(#clp1)" fill="none">
	<clipPath id="clp2">
		<path shape-rendering="crispEdges" stroke="#000000" d="M1,1v231h228V1H1z"/>
	</clipPath>
	<g clip-path="url(#clp2)">
		<g transform="matrix(3 0 0 -3 -557 2077)">
			<path fill-rule="evenodd" fill="#000000" d="M258.048,615.888v1.728l0,0l0.288,0.144l0.216,0.216l0.216,0.144l0.216,0.144v0.072
				h-0.936v1.728c0.72,0,1.44-0.072,2.16-0.072l0.072,0.072l0.144,0.216l0.072,0.288l0.072,0.288l0.072,0.288l0.072,0.216
				l0.072,0.216c-0.936,0.072-1.872,0.144-2.736,0.216v1.728c0.936-0.144,1.872-0.216,2.808-0.288v1.656
				c-0.936,0.072-1.872,0.216-2.808,0.36v65.808l0.072-0.072l0,0c0,0,0.072,0,0.144-0.072l0,0c0.072,0,0.072-0.072,0.144-0.072l0,0
				c0.072,0,0.144-0.072,0.144-0.072l0,0c0.072,0,0.144-0.072,0.144-0.072l0,0c0.072-0.072,0.144-0.072,0.144-0.144l0,0
				c0.072,0,0.144,0,0.216-0.072l0,0c0,0,0.072-0.072,0.144-0.072l0,0c0-0.072,0.072-0.072,0.144-0.144l0,0c0,0,0.072,0,0.144-0.072
				l0,0c0,0,0.072-0.072,0.072-0.072l0,0c0.072-0.072,0.144-0.072,0.144-0.144l0,0c0.072,0,0.144-0.072,0.144-0.144l0,0
				c0.072,0,0.072-0.072,0.144-0.072l0,0c0.072-0.072,0.072-0.072,0.144-0.144l0,0c0,0,0.072-0.072,0.144-0.072l0,0
				c0-0.072,0.072-0.144,0.072-0.144l0,0c0.072-0.072,0.072-0.072,0.144-0.144l0,0c0-0.072,0.072-0.072,0.072-0.144l0,0
				c0.072,0,0.144-0.072,0.144-0.144l0,0c0.072,0,0.072-0.072,0.144-0.144l0,0c0,0,0.072-0.072,0.072-0.072l0,0
				c0-0.072,0.072-0.144,0.072-0.144l0,0c0.072-0.072,0.072-0.144,0.144-0.144l0,0c0-0.072,0.072-0.144,0.072-0.144l0,0
				c0.072-0.072,0.072-0.144,0.072-0.144l0,0c0.072-0.072,0.072-0.144,0.144-0.216l0,0c0,0,0.072-0.072,0.072-0.144l0,0
				c0,0,0.072-0.072,0.072-0.144l0,0c0-0.072,0.072-0.072,0.072-0.144l0,0c0-0.072,0.072-0.144,0.072-0.144l0,0
				c0-0.072,0.072-0.144,0.072-0.216l0,0c0,0,0.072-0.072,0.072-0.144l0,0c0-0.072,0.072-0.072,0.072-0.144l0,0
				c0-0.072,0.072-0.144,0.072-0.144l0,0c0-0.072,0-0.144,0.072-0.216l0,0c0-0.072,0-0.072,0-0.144l0,0
				c0-0.072,0.072-0.144,0.072-0.216l0,0c0,0,0-0.072,0.072-0.144l0,0c0-0.072,0-0.144,0-0.144l0,0c0-0.072,0-0.144,0.072-0.216l0,0
				c0-0.072,0-0.144,0-0.144l0,0c0-0.072,0-0.144,0-0.216l0,0c0-0.072,0-0.144,0.072-0.144l0,0c0-0.072,0-0.144,0-0.216l0,0
				c0-0.072,0-0.144,0-0.144l0,0c0-0.072,0-0.144,0-0.216l0,0c0-0.072,0-0.144,0-0.216l0,0v-61.848l0,0c0-0.072,0-0.072,0-0.144l0,0
				c0-0.072,0-0.144,0-0.216l0,0c0-0.072,0-0.144,0-0.144l0,0c0-0.072,0-0.144,0-0.216l0,0c-0.072-0.072-0.072-0.144-0.072-0.144
				l0,0c0-0.072,0-0.144,0-0.216l0,0c0-0.072,0-0.144,0-0.144l0,0c-0.072-0.072-0.072-0.144-0.072-0.216l0,0
				c0-0.072,0-0.144,0-0.144l0,0c-0.072-0.072-0.072-0.144-0.072-0.216l0,0c0-0.072-0.072-0.072-0.072-0.144l0,0
				c0-0.072,0-0.144,0-0.216l0,0c-0.072,0-0.072-0.072-0.072-0.144l0,0c0-0.072-0.072-0.072-0.072-0.144l0,0
				c0-0.072-0.072-0.144-0.072-0.216l0,0c0,0-0.072-0.072-0.072-0.144l0,0c0-0.072-0.072-0.072-0.072-0.144l0,0
				c0-0.072-0.072-0.144-0.072-0.144l0,0c0-0.072-0.072-0.144-0.072-0.144l0,0c0-0.072-0.072-0.144-0.072-0.216l0,0
				c0,0-0.072-0.072-0.072-0.144l0,0c-0.072,0-0.072-0.072-0.144-0.144l0,0c0-0.072,0-0.072-0.072-0.144l0,0
				c0-0.072-0.072-0.072-0.072-0.144l0,0c-0.072-0.072-0.072-0.072-0.144-0.144l0,0c0-0.072-0.072-0.072-0.072-0.144l0,0
				c0-0.072-0.072-0.072-0.072-0.144l0,0c-0.072,0-0.072-0.072-0.144-0.144l0,0c0,0-0.072-0.072-0.144-0.144l0,0
				c0,0-0.072-0.072-0.072-0.072l0,0c-0.072-0.072-0.072-0.144-0.144-0.144l0,0c0-0.072-0.072-0.072-0.072-0.144l0,0
				c-0.072,0-0.144-0.072-0.144-0.144l0,0c-0.072,0-0.072-0.072-0.144-0.072l0,0c-0.072-0.072-0.072-0.072-0.144-0.144l0,0
				c0,0-0.072-0.072-0.144-0.072l0,0c0-0.072-0.072-0.072-0.144-0.144l0,0c0,0-0.072-0.072-0.072-0.072l0,0
				c-0.072-0.072-0.144-0.072-0.144-0.144l0,0c-0.072,0-0.144-0.072-0.144-0.072l0,0c-0.072-0.072-0.144-0.072-0.144-0.144l0,0
				c-0.072,0-0.144,0-0.216-0.072l0,0c0,0-0.072-0.072-0.144-0.072l0,0c0,0-0.072-0.072-0.144-0.072l0,0
				c0-0.072-0.072-0.072-0.144-0.072l0,0c-0.072-0.072-0.072-0.072-0.144-0.072l0,0c-0.072-0.072-0.144-0.072-0.144-0.144l0,0
				H258.048z M258.048,691.056v-65.808c-0.936,0.072-1.872,0.216-2.808,0.36c-0.072-0.576-0.072-1.224-0.072-1.8
				c0.936-0.144,1.944-0.216,2.88-0.288v-1.728c-0.936,0.072-1.944,0.144-2.88,0.216c0-0.576,0-1.152,0-1.8
				c0.936-0.072,1.872-0.072,2.88-0.144v-1.728c-1.008,0.072-1.944,0.072-2.88,0.072v-1.584h0.216h0.288l0.288,0.072h0.288
				l0.288,0.072l0.288,0.072l0.288,0.144l0.216,0.072l0.288,0.144l0.216,0.072l0.216,0.144v-1.728l-0.144-0.072l0,0
				c0,0-0.072,0-0.144,0l0,0c-0.072-0.072-0.072-0.072-0.144-0.072l0,0c-0.072-0.072-0.144-0.072-0.144-0.072l0,0
				c-0.072,0-0.144-0.072-0.216-0.072l0,0c-0.072,0-0.072,0-0.144-0.072l0,0c-0.072,0-0.144,0-0.216,0l0,0
				c0,0-0.072-0.072-0.144-0.072l0,0c-0.072,0-0.144,0-0.144,0l0,0c-0.072-0.072-0.144-0.072-0.216-0.072l0,0
				c-0.072,0-0.144,0-0.144,0l0,0c-0.072,0-0.144-0.072-0.216-0.072l0,0c-0.072,0-0.144,0-0.144,0l0,0c-0.072,0-0.144,0-0.216,0l0,0
				c-0.072,0-0.144,0-0.144,0l0,0c-0.072,0-0.144,0-0.216,0l0,0c-0.072,0-0.144,0-0.216,0l0,0h-4.248v3.312
				c1.44-0.072,2.88-0.144,4.32-0.216c0,0.648,0,1.224,0,1.8c-1.44,0.144-2.88,0.288-4.32,0.432v1.944
				c1.44-0.216,2.88-0.36,4.32-0.576c0,0.648,0,1.224,0,1.8c-1.44,0.216-2.88,0.504-4.32,0.792v67.032h4.248l0,0
				c0.072,0,0.144,0,0.216,0l0,0c0.072,0,0.144,0,0.216,0l0,0c0,0,0.072,0,0.144,0l0,0c0.072,0,0.144,0,0.216,0l0,0
				c0,0,0.072-0.072,0.144-0.072l0,0c0.072,0,0.144,0,0.216,0l0,0c0,0,0.072,0,0.144,0l0,0c0.072-0.072,0.144-0.072,0.216-0.072l0,0
				c0,0,0.072,0,0.144,0l0,0c0.072-0.072,0.144-0.072,0.144-0.072l0,0c0.072,0,0.144,0,0.216-0.072l0,0c0.072,0,0.072,0,0.144,0l0,0
				c0.072-0.072,0.144-0.072,0.216-0.072l0,0c0,0,0.072-0.072,0.144-0.072l0,0c0.072,0,0.072-0.072,0.144-0.072l0,0
				c0.072,0,0.144-0.072,0.144-0.072l0,0H258.048z M250.848,691.632V624.6c-1.44,0.288-2.88,0.576-4.32,0.936c0-0.72,0-1.44,0-2.232
				c1.44-0.216,2.88-0.504,4.32-0.72v-1.944c-1.44,0.144-2.952,0.288-4.392,0.432c0-0.72,0-1.44,0-2.232
				c1.44-0.072,2.952-0.144,4.392-0.216v-3.312h-8.64v1.512h4.248v2.016c-1.44,0.144-2.88,0.288-4.248,0.36v2.592
				c1.44-0.216,2.808-0.432,4.248-0.72c0,0.792,0,1.512,0.072,2.232c-1.44,0.36-2.88,0.72-4.32,1.08v2.592
				c1.44-0.504,2.88-1.008,4.32-1.44c0,0.72,0,1.512,0,2.232c-1.44,0.576-2.88,1.152-4.32,1.8v15.264
				c2.88,3.312,4.68,7.632,4.68,12.456c0,4.752-1.8,9.144-4.68,12.456v21.888H250.848L250.848,691.632z M242.208,648.144
				c1.656,2.664,2.664,5.76,2.664,9.144c0,3.312-1.008,6.48-2.664,9.072V648.144z M242.208,691.632v-21.888
				c-2.304,2.592-5.328,4.536-8.712,5.544v16.344H242.208L242.208,691.632z M242.208,666.36c-2.016,3.168-5.112,5.544-8.712,6.84
				v-4.752h2.52l-2.52-4.032V650.16l2.52-4.032h-2.52v-4.752c3.6,1.224,6.696,3.672,8.712,6.768V666.36L242.208,666.36z
				 M242.208,644.832v-15.264c-1.44,0.648-2.88,1.368-4.32,2.16c0-1.008,0-2.016,0-3.024c1.44-0.648,2.88-1.224,4.32-1.728v-2.592
				c-1.44,0.432-2.952,0.864-4.392,1.296c0-1.008-0.072-2.016-0.072-2.952c1.512-0.36,2.952-0.648,4.464-0.936V619.2
				c-1.512,0.144-3.024,0.288-4.464,0.504c-0.072-1.008-0.072-1.944-0.072-2.88h4.536v-1.512h-8.712v4.896
				c1.44-0.144,2.808-0.36,4.248-0.504c0,1.008,0,2.016,0,3.024c-1.44,0.288-2.808,0.648-4.248,1.08v3.528
				c1.44-0.576,2.88-1.08,4.32-1.656c0,1.008,0,2.016,0.072,3.024c-1.512,0.72-2.952,1.44-4.392,2.232v8.28
				C236.88,640.296,239.904,642.24,242.208,644.832L242.208,644.832z M233.496,647.352v0.576l0.36-0.576H233.496z M233.496,691.632
				v-16.344c-1.728,0.504-3.528,0.792-5.4,0.792l0,0v15.552H233.496L233.496,691.632z M233.496,673.2v-4.752h-5.4v5.616l0,0
				C229.968,674.064,231.768,673.776,233.496,673.2L233.496,673.2z M233.496,664.416V650.16l-4.464,7.128L233.496,664.416
				L233.496,664.416z M233.496,647.928l-2.16,3.528h-3.24v-4.104h5.4V647.928L233.496,647.928z M233.496,646.128v-4.752
				c-1.728-0.576-3.528-0.864-5.4-0.864l0,0v5.616H233.496L233.496,646.128z M233.496,639.216v-8.28c-1.44,0.72-2.88,1.44-4.32,2.16
				c0-1.368,0-2.736,0-4.104c1.44-0.504,2.88-1.08,4.32-1.656v-3.528c-1.512,0.36-2.952,0.72-4.464,1.152
				c0-1.368,0-2.808-0.072-4.176c1.512-0.144,3.024-0.36,4.536-0.576v-4.896h-5.4v1.512h0.864c0,1.296,0,2.664,0,3.96l-0.864,0.144
				v4.248l0.936-0.216c0.072,1.368,0.072,2.736,0.144,4.032l-1.08,0.432v4.32l1.08-0.648l0.072,3.528h-0.144h-1.008l0,0v1.8l0,0
				C229.968,638.424,231.768,638.712,233.496,639.216L233.496,639.216z M228.096,657.936L228.096,657.936l2.808,4.536h-2.808
				V657.936z M228.096,691.632V676.08c-4.536,0-8.64-1.584-11.88-4.248v19.8H228.096L228.096,691.632z M228.096,674.064
				c-4.68,0-8.856-1.872-11.88-4.968v-23.688c3.024-3.024,7.2-4.896,11.88-4.896v5.616h-7.992l6.984,11.16l-6.984,11.16h7.992
				V674.064L228.096,674.064z M228.096,662.472v-4.536l-2.88,4.536H228.096L228.096,662.472z M228.096,651.456v-4.104h-5.832
				l2.592,4.104H228.096L228.096,651.456z M228.096,638.424v-1.8h-1.08l-1.08,0.072l-1.008,0.144l-1.008,0.216l-1.008,0.216
				l-1.008,0.288l-0.936,0.288l-0.432,0.216v-0.36c2.52-1.296,5.04-2.664,7.56-3.96v-4.32c-2.52,1.008-5.112,2.016-7.632,3.024
				c0-1.728-0.072-3.456-0.144-5.184c2.592-0.72,5.184-1.368,7.776-2.088v-4.248c-2.592,0.36-5.184,0.72-7.848,1.08
				c0-1.728,0-3.456,0-5.184h7.848v-1.512h-11.88v7.2c1.368-0.216,2.664-0.36,4.032-0.504c0.072,1.728,0.072,3.456,0.072,5.256
				c-1.368,0.36-2.736,0.648-4.104,1.008v5.76c1.44-0.504,2.808-1.008,4.248-1.584c0.072,1.728,0.072,3.528,0.072,5.256
				c-1.44,0.72-2.88,1.44-4.32,2.088v2.88C219.456,640.008,223.56,638.424,228.096,638.424z M216.216,691.632v-19.8
				c-1.872-1.512-3.456-3.312-4.608-5.472v25.272H216.216L216.216,691.632z M216.216,669.096c-2.304-2.232-3.96-5.256-4.608-8.496
				v-6.624c0.648-3.312,2.304-6.264,4.608-8.568V669.096L216.216,669.096z M216.216,642.672v-2.88
				c-1.44,0.648-2.88,1.296-4.32,1.872c0-2.088,0-4.104-0.072-6.192c1.44-0.432,2.88-0.936,4.392-1.44v-5.76
				c-1.512,0.288-3.024,0.648-4.536,1.008c-0.072-0.864-0.072-1.728-0.072-2.52v2.52h0.072c0,2.016,0.072,4.104,0.144,6.192
				l-0.216,0.072v6.264l0.288-0.144l0.072,2.736l-0.36,0.432v3.312C212.76,646.056,214.344,644.184,216.216,642.672L216.216,642.672
				z M216.216,622.512v-7.2h-4.608v7.704C213.12,622.872,214.632,622.656,216.216,622.512z M211.608,691.632V666.36
				c-0.36-0.648-0.72-1.368-1.008-2.088v27.36H211.608L211.608,691.632z M211.608,660.6v-6.624c-0.216,1.08-0.288,2.16-0.288,3.312
				C211.32,658.368,211.392,659.52,211.608,660.6L211.608,660.6z M211.608,648.144v-3.312l-0.072,0.072l-0.576,0.792l-0.36,0.576
				v4.032C210.888,649.584,211.248,648.864,211.608,648.144L211.608,648.144z M211.608,641.808v-6.264
				c-0.36,0.072-0.648,0.144-1.008,0.288v6.336C210.96,642.024,211.248,641.952,211.608,641.808L211.608,641.808z M211.608,629.28
				v-2.52c0-1.224,0-2.52-0.072-3.744h0.072v-7.704H210.6v1.512h0.936c0,2.016,0,4.104,0,6.192l-0.936,0.072v6.336
				C210.96,629.352,211.248,629.352,211.608,629.28z M198.864,645.264c1.44-0.288,2.952-0.576,4.392-0.864
				c0-2.304-0.072-4.608-0.072-6.912c-1.44,0.216-2.88,0.432-4.32,0.648v-7.128c1.368-0.144,2.736-0.216,4.104-0.36
				c-0.072-2.304-0.144-4.608-0.144-6.912c-1.296,0.072-2.664,0.144-3.96,0.144v-8.568H210.6v1.512h-7.776c0,2.304,0,4.608,0,6.912
				c2.592-0.216,5.184-0.36,7.776-0.648v6.336c-2.592,0.504-5.112,0.864-7.632,1.224c0.072,2.304,0.144,4.608,0.216,6.84
				c2.448-0.504,4.896-1.008,7.416-1.656v6.336c-2.448,0.864-4.896,1.584-7.344,2.232c0,2.304,0.072,4.608,0.072,6.984
				c1.872-0.648,3.816-1.368,5.76-2.16l0.36-0.936l0.504-0.864l0.432-0.864l0.216-0.288v4.032c-0.864,2.16-1.368,4.464-1.368,6.984
				c0,2.448,0.504,4.824,1.368,6.984v27.36h-11.736V645.264z M194.616,645.84c1.368-0.144,2.808-0.36,4.248-0.576v46.368h-5.616l0,0
				c-0.072,0-0.072,0-0.144,0l0,0c-0.072,0-0.144,0-0.216,0l0,0c-0.072,0-0.144,0-0.144,0l0,0c-0.072,0-0.144,0-0.216,0l0,0
				c-0.072,0-0.144-0.072-0.144-0.072l0,0c-0.072,0-0.144,0-0.216,0l0,0c-0.072,0-0.144,0-0.144,0l0,0
				c-0.072-0.072-0.144-0.072-0.216-0.072l0,0c-0.072,0-0.144,0-0.144,0l0,0c-0.072-0.072-0.144-0.072-0.216-0.072l0,0
				c-0.072,0-0.072,0-0.144-0.072l0,0c-0.072,0-0.144,0-0.216,0l0,0v-0.072v-37.8c1.152-0.072,2.376-0.216,3.528-0.36
				C194.616,650.664,194.616,648.288,194.616,645.84c-1.224,0.144-2.376,0.216-3.528,0.288v-7.344
				c1.152-0.072,2.232-0.144,3.384-0.216c-0.072-2.376-0.144-4.824-0.216-7.2c-1.08,0-2.088,0.072-3.168,0.072v-7.272
				c1.008-0.072,2.016-0.072,3.024-0.072c0-2.448,0-4.896,0-7.272h-1.224h-0.216l-0.288,0.072h-0.288l-0.288,0.072l-0.216,0.072
				l-0.288,0.144l-0.216,0.072V615.6l0,0l0,0c0.072,0,0.144,0,0.216-0.072l0,0c0.072,0,0.072,0,0.144,0l0,0
				c0.072,0,0.144-0.072,0.216-0.072l0,0c0,0,0.072,0,0.144,0l0,0c0.072-0.072,0.144-0.072,0.216-0.072l0,0c0,0,0.072,0,0.144,0l0,0
				c0.072,0,0.144-0.072,0.216-0.072l0,0c0,0,0.072,0,0.144,0l0,0c0.072,0,0.144,0,0.216,0l0,0c0,0,0.072,0,0.144,0l0,0
				c0.072,0,0.144,0,0.216,0l0,0c0.072,0,0.072,0,0.144,0l0,0h5.616v8.568c-1.584,0.072-3.168,0.144-4.752,0.216
				c0,2.376,0.072,4.824,0.144,7.272c1.512-0.144,3.096-0.216,4.608-0.36v7.128c-1.44,0.144-2.952,0.36-4.392,0.432
				C194.544,641.016,194.544,643.392,194.616,645.84z M191.088,691.272v-37.8c-1.152,0.072-2.376,0.144-3.528,0.216v-7.416
				c1.152-0.072,2.376-0.072,3.528-0.144v-7.344c-1.152,0.072-2.376,0.072-3.528,0.144v-7.344c1.152-0.072,2.376-0.072,3.528-0.144
				v-7.272c-1.152,0-2.376,0-3.528,0v-1.584v-0.36v-0.288l0.072-0.288v-0.288l0.072-0.216l0.072-0.288l0.144-0.288l0.072-0.288
				l0.144-0.216l0.072-0.216l0.144-0.288l0.144-0.216l0.216-0.216l0.144-0.216l0.144-0.216l0.216-0.216l0.216-0.216l0.216-0.144
				l0.216-0.144l0.216-0.216l0.216-0.144l0.288-0.144l0.216-0.072l0.216-0.144h0.072V615.6l-0.144,0.072l0,0
				c-0.072,0-0.072,0-0.144,0.072l0,0c-0.072,0-0.144,0-0.216,0.072l0,0c0,0-0.072,0-0.144,0l0,0
				c-0.072,0.072-0.072,0.072-0.144,0.072l0,0c-0.072,0.072-0.144,0.072-0.144,0.144c-0.072,0-0.144,0-0.144,0.072
				c-0.072,0-0.144,0-0.216,0.072c0,0-0.072,0.072-0.144,0.072c0,0-0.072,0.072-0.144,0.072c-0.072,0.072-0.072,0.072-0.144,0.072
				c-0.072,0.072-0.072,0.072-0.144,0.144c-0.072,0-0.072,0.072-0.144,0.072c-0.072,0.072-0.072,0.072-0.144,0.144
				c-0.072,0-0.072,0.072-0.144,0.072c0,0.072-0.072,0.072-0.144,0.144c0,0-0.072,0.072-0.144,0.072
				c0,0.072-0.072,0.072-0.072,0.144c-0.072,0-0.144,0.072-0.144,0.072c-0.072,0.072-0.072,0.144-0.144,0.144
				c0,0.072-0.072,0.072-0.144,0.144c0,0-0.072,0.072-0.072,0.144c-0.072,0-0.072,0.072-0.144,0.072
				c0,0.072-0.072,0.144-0.072,0.144c-0.072,0.072-0.072,0.144-0.144,0.144c0,0.072-0.072,0.072-0.072,0.144
				c-0.072,0.072-0.072,0.072-0.144,0.144c0,0.072-0.072,0.072-0.072,0.144c-0.072,0.072-0.072,0.072-0.144,0.144
				c0,0.072,0,0.072-0.072,0.144c0,0.072-0.072,0.144-0.072,0.144c0,0.072-0.072,0.144-0.072,0.144
				c-0.072,0.072-0.072,0.144-0.072,0.216c-0.072,0-0.072,0-0.072,0.072l0,0l0,0l0,0l0,0l0,0l0,0l0,0l0,0l0,0l0,0l0,0l-0.072,0.072
				l0,0l0,0l0,0l0,0l0,0v0.072l0,0l0,0l0,0l0,0l0,0l0,0l0,0l0,0l0,0l0,0l0,0l0,0l0,0l0,0l0,0c-0.072,0.216-0.144,0.36-0.216,0.576
				l0,0l0,0l0,0l0,0h-0.072l0,0l0,0v0.072l0,0c0,0,0,0.072,0,0.144l0,0l0,0l0,0l0,0l0,0l0,0l0,0l0,0l0,0l0,0l-0.072,0.072l0,0v0.072
				l0,0l0,0l0,0l0,0l0,0l0,0l0,0l0,0l0,0v0.072l0,0l0,0l0,0l0,0l0,0l0,0l0,0l0,0l0,0l0,0l0,0l0,0l0,0l0,0l0,0l0,0l0,0l0,0l0,0l0,0
				h-0.072l0,0l0,0v0.072l0,0l0,0l0,0l0,0l0,0l0,0l0,0l0,0l0,0l0,0l0,0l0,0l0,0l0,0l0,0l0,0l0,0l0,0l0,0l0,0l0,0v0.072l0,0l0,0l0,0
				l0,0l0,0l0,0v0.072l0,0l0,0l0,0l0,0l0,0l0,0l0,0l0,0l0,0l0,0l0,0l0,0l0,0l0,0l0,0l0,0l0,0v0.072l0,0l0,0l0,0l0,0l0,0l0,0l0,0
				h-0.072l0,0l0,0l0,0l0,0l0,0l0,0l0,0l0,0l0,0l0,0v0.072l0,0l0,0l0,0l0,0l0,0v0.072l0,0l0,0l0,0l0,0l0,0l0,0l0,0l0,0l0,0l0,0l0,0
				l0,0l0,0l0,0l0,0l0,0l0,0l0,0l0,0l0,0l0,0l0,0V621l0,0l0,0l0,0l0,0l0,0l0,0l0,0l0,0l0,0l0,0l0,0v0.072l0,0l0,0l0,0l0,0
				l-0.072,0.072l0,0l0,0l0,0l0,0l0,0l0,0l0,0v0.072l0,0l0,0l0,0l0,0l0,0l0,0l0,0l0,0l0,0l0,0v0.072l0,0l0,0l0,0l0,0l0,0l0,0l0,0
				l0,0l0,0l0,0l0,0l0,0l0,0l0,0l0,0l0,0l0,0l0,0l0,0l0,0l0,0l0,0v0.072l0,0l0,0l0,0l0,0l0,0l0,0l0,0l0,0l0,0l0,0l0,0l0,0l0,0l0,0
				l0,0l0,0l0,0l0,0l0,0l0,0l0,0l0,0l0,0l0,0l0,0v0.072l0,0l0,0l0,0l0,0l0,0l0,0l0,0l0,0l0,0v0.072l0,0l0,0l0,0l0,0l0,0l0,0l0,0l0,0
				l0,0l0,0l0,0l0,0l0,0l0,0l0,0l-0.072,0.072l0,0l0,0l0,0l0,0l0,0l0,0v0.072l0,0l0,0l0,0l0,0l0,0l0,0l0,0l0,0l0,0l0,0l0,0l0,0l0,0
				l0,0l0,0l0,0l0,0v0.072l0,0l0,0l0,0l0,0l0,0l0,0l0,0l0,0l0,0l0,0l0,0v0.072l0,0l0,0l0,0l0,0l0,0l0,0l0,0l0,0l0,0l0,0l0,0l0,0l0,0
				l0,0l0,0l0,0v0.072l0,0l0,0l0,0l0,0l0,0l0,0l0,0l0,0l0,0l0,0v0.072l0,0l0,0l0,0l0,0l0,0l0,0l0,0l0,0l0,0l0,0l0,0l0,0l0,0l0,0l0,0
				l0,0l0,0v0.072l0,0l0,0l0,0v0.072l0,0l0,0l0,0v0.072l0,0l0,0l0,0l0,0l0,0l0,0l0,0l0,0l0,0l0,0l0,0v0.072l0,0l0,0v0.144l0,0l0,0
				l0,0l0,0l0,0l0,0l0,0l0,0l0,0v0.072l0,0l0,0l0,0l0,0l0,0l0,0l0,0l0,0l0,0l0,0v0.072l0,0l0,0l0,0l0,0l0,0l0,0l0,0l0,0l0,0l0,0
				v61.848c0,0.072,0,0.144,0,0.216s0,0.144,0,0.216c0,0,0,0.072,0,0.144s0,0.144,0,0.216c0,0,0,0.072,0,0.144
				c0,0.072,0.072,0.144,0.072,0.216c0,0,0,0.072,0,0.144s0,0.144,0.072,0.216c0,0,0,0.072,0,0.144s0.072,0.144,0.072,0.144
				c0,0.072,0,0.144,0,0.216c0.072,0.072,0.072,0.072,0.072,0.144c0,0.072,0.072,0.144,0.072,0.216c0,0,0,0.072,0.072,0.144
				c0,0.072,0,0.072,0.072,0.144c0,0.072,0,0.144,0,0.144c0.072,0.072,0.072,0.144,0.072,0.216c0.072,0,0.072,0.072,0.144,0.144
				c0,0.072,0,0.072,0.072,0.144c0,0.072,0,0.144,0.072,0.144c0,0.072,0.072,0.144,0.072,0.144c0,0.072,0.072,0.144,0.072,0.216
				c0.072,0,0.072,0.072,0.072,0.144c0.072,0,0.072,0.072,0.144,0.144c0,0,0.072,0.072,0.072,0.144c0.072,0,0.072,0.072,0.144,0.144
				c0,0,0.072,0.072,0.072,0.072c0.072,0.072,0.072,0.144,0.144,0.144c0,0.072,0.072,0.144,0.072,0.144
				c0.072,0.072,0.072,0.072,0.144,0.144c0,0.072,0.072,0.072,0.072,0.144c0.072,0,0.144,0.072,0.144,0.144
				c0.072,0,0.072,0.072,0.144,0.072c0,0.072,0.072,0.072,0.144,0.144c0,0,0.072,0.072,0.072,0.072
				c0.072,0.072,0.144,0.144,0.144,0.144c0.072,0.072,0.144,0.072,0.144,0.144c0.072,0,0.072,0.072,0.144,0.072
				c0.072,0.072,0.072,0.072,0.144,0.072c0.072,0.072,0.072,0.072,0.144,0.144c0.072,0,0.072,0.072,0.144,0.072
				c0.072,0.072,0.072,0.072,0.144,0.072c0.072,0.072,0.144,0.072,0.144,0.144c0.072,0,0.144,0.072,0.144,0.072
				c0.072,0,0.144,0.072,0.216,0.072c0,0,0.072,0.072,0.144,0.072c0,0,0.072,0.072,0.144,0.072l0,0
				c0.072,0.072,0.072,0.072,0.144,0.072l0,0c0.072,0,0.144,0.072,0.144,0.072l0,0c0.072,0,0.144,0.072,0.216,0.072l0,0
				c0.072,0,0.072,0.072,0.144,0.072l0,0H191.088z"/>
		</g>
	</g>
</g>
</svg>
